<svg viewBox="0 0 1679 1080" xmlns="http://www.w3.org/2000/svg" xmlns:xlink="http://www.w3.org/1999/xlink"><defs><radialGradient id="b" cx="0" cy="0" r="1" gradientTransform="matrix(-1679 0 0 -1080 1679 1080)" gradientUnits="userSpaceOnUse" xlink:href="#a"><stop stop-color="#CC3047" offset="0"/><stop stop-color="#D94432" offset="1"/></radialGradient><radialGradient id="h" cx="-374.2" cy="3728.4" r="1" gradientTransform="matrix(-17.118 4.9746 3.4953 12.028 -18110 -42332)" gradientUnits="userSpaceOnUse" xlink:href="#a"/><pattern id="c" width="64" height="64" patternUnits="userSpaceOnUse"><path d="M50.7 36.4l-.6-.1-.4-.4a18.9 18.9 0 00-7.4-7 21.7 21.7 0 00-20.6 0 18.9 18.9 0 00-7.4 7c-.1.2-.4.4-.7.5s-.7 0-1 0l-.3-.3a1 1 0 01-.3-.4 1 1 0 01.2-.9c1.9-3.3 4.7-6 8.2-7.9a24.3 24.3 0 0123.2 0 21.2 21.2 0 018.4 8.3v.5l-.3.4-.4.2-.6.1z" fill="#1F2348"/><path d="M45.3 37.5c-.2 0-.4 0-.6-.2l-.4-.3c-1.4-1.8-3.2-3.3-5.3-4.3a16.3 16.3 0 00-19.7 4.6 1.3 1.3 0 01-.9.1 1.3 1.3 0 01-.8-.4 1 1 0 010-1.2 17 17 0 016.3-5 19.1 19.1 0 0116.2 0 17 17 0 016.3 5l.2.4v.4l-.2.4-.4.3-.7.2z" fill="#1F2348"/><path d="M23.5 39.7h-.4a1 1 0 01-.4-.3 1 1 0 01-.4-.7c0-.3 0-.6.3-.8 1.1-1.2 2.6-2.2 4.2-2.9A13.6 13.6 0 0141.4 38c.2 0 .2.2.3.3a.9.9 0 010 .9l-.4.3a1.3 1.3 0 01-1.7-.1 10 10 0 00-3.4-2.3 11 11 0 00-11.8 2.3c-.2.2-.5.4-.9.4zM50.7 4.4l-.6-.1-.4-.4c-1.7-2.9-4.3-5.3-7.4-7a21.5 21.5 0 00-20.6 0 18.9 18.9 0 00-7.4 7c-.1.2-.4.4-.7.5h-1l-.3-.3a1 1 0 01-.3-.4 1 1 0 01.2-.9c1.9-3.3 4.7-6 8.2-7.9a24.3 24.3 0 0123.2 0A21.2 21.2 0 0152 3.2v.5l-.3.4-.4.2-.6.1z" fill="#1F2348"/><path d="M45.3 5.5c-.2 0-.4 0-.6-.2l-.4-.3A14.6 14.6 0 0039 .7a16.4 16.4 0 00-19.7 4.6 1.3 1.3 0 01-.9.1 1.3 1.3 0 01-.8-.4l-.2-.4v-.4l.2-.4a17 17 0 016.3-5 19.1 19.1 0 0116.2 0 17 17 0 016.3 5l.2.4v.4l-.2.4-.4.3-.7.2z" fill="#1F2348"/><path d="M23.5 7.7h-.4l-.4-.3a1 1 0 01-.4-.7c0-.3 0-.6.3-.8 1.1-1.2 2.6-2.2 4.2-2.9A13.6 13.6 0 0141.4 6c.2 0 .2.2.3.3v.9l-.4.3a1.3 1.3 0 01-1.7-.1A10 10 0 0036.2 5a11 11 0 00-11.8 2.3c-.2.2-.5.4-.9.4zM82.7 20.4l-.6-.1-.4-.4a18.9 18.9 0 00-7.4-7 21.7 21.7 0 00-20.6 0 18.9 18.9 0 00-7.4 7c-.1.2-.4.4-.7.5s-.7 0-1 0l-.3-.3a1 1 0 01-.3-.4 1 1 0 01.2-.9c1.9-3.3 4.7-6 8.2-7.9a24.3 24.3 0 0123.2 0 21.2 21.2 0 018.4 8.3v.5l-.3.4-.4.2-.6.1z" fill="#1F2348"/><path d="M77.3 21.5c-.2 0-.4 0-.6-.2l-.4-.3c-1.4-1.8-3.2-3.3-5.3-4.3a16.3 16.3 0 00-19.7 4.6 1.3 1.3 0 01-.9.1 1.3 1.3 0 01-.8-.4 1 1 0 010-1.2 17 17 0 016.3-5 19.1 19.1 0 0116.2 0 17 17 0 016.3 5l.2.4v.4l-.2.4-.4.3-.7.2z" fill="#1F2348"/><path d="M55.5 23.7h-.4a1 1 0 01-.4-.3 1 1 0 01-.4-.7c0-.3 0-.6.3-.8 1.1-1.2 2.6-2.2 4.2-2.9A13.6 13.6 0 0173.4 22c.2 0 .2.2.3.3a.9.9 0 010 .9l-.4.3a1.3 1.3 0 01-1.7-.1 10 10 0 00-3.4-2.3 11 11 0 00-11.8 2.3c-.2.2-.5.4-.9.4zM82.7 52.4l-.6-.1-.4-.4a18.9 18.9 0 00-7.4-7 21.7 21.7 0 00-20.6 0 18.9 18.9 0 00-7.4 7c-.1.2-.4.4-.7.5s-.7 0-1 0l-.3-.3a1 1 0 01-.3-.4 1 1 0 01.2-.9c1.9-3.3 4.7-6 8.2-7.9a24.3 24.3 0 0123.2 0 21.2 21.2 0 018.4 8.3v.5l-.3.4-.4.2-.6.1z" fill="#1F2348"/><path d="M77.3 53.5c-.2 0-.4 0-.6-.2l-.4-.3c-1.4-1.8-3.2-3.3-5.3-4.3a16.3 16.3 0 00-19.7 4.6 1.3 1.3 0 01-.9.1 1.3 1.3 0 01-.8-.4 1 1 0 010-1.2 17 17 0 016.3-5 19.1 19.1 0 0116.2 0 17 17 0 016.3 5l.2.4v.4l-.2.4-.4.3-.7.2z" fill="#1F2348"/><path d="M55.5 55.7h-.4a1 1 0 01-.4-.3 1 1 0 01-.4-.7c0-.3 0-.6.3-.8 1.1-1.2 2.6-2.2 4.2-2.9A13.6 13.6 0 0173.4 54c.2 0 .2.2.3.3a.9.9 0 010 .9l-.4.3a1.3 1.3 0 01-1.7-.1 10 10 0 00-3.4-2.3 11 11 0 00-11.8 2.3c-.2.2-.5.4-.9.4zM50.7 68.4l-.6-.1-.4-.4a18.9 18.9 0 00-7.4-7 21.7 21.7 0 00-20.6 0 18.9 18.9 0 00-7.4 7c-.1.2-.4.4-.7.5s-.7 0-1 0l-.3-.3a1 1 0 01-.3-.4 1 1 0 01.2-.9c1.9-3.3 4.7-6 8.2-7.9a24.3 24.3 0 0123.2 0 21.2 21.2 0 018.4 8.3v.5l-.3.4-.4.2-.6.1z" fill="#1F2348"/><path d="M45.3 69.5c-.2 0-.4 0-.6-.2l-.4-.3c-1.4-1.8-3.2-3.3-5.3-4.3a16.3 16.3 0 00-19.7 4.6 1.3 1.3 0 01-.9.1 1.3 1.3 0 01-.8-.4 1 1 0 010-1.2 17 17 0 016.3-5 19.1 19.1 0 0116.2 0 17 17 0 016.3 5l.2.4v.4l-.2.4-.4.3-.7.2zM18.7 20.4l-.6-.1-.4-.4a18.9 18.9 0 00-7.4-7 21.7 21.7 0 00-20.6 0 18.9 18.9 0 00-7.4 7c-.1.2-.4.4-.7.5s-.7 0-1 0l-.3-.3a1 1 0 01-.3-.4 1 1 0 01.2-.9c1.9-3.3 4.7-6 8.2-7.9a24.3 24.3 0 0123.2 0 21.2 21.2 0 018.4 8.3v.5l-.3.4-.4.2-.6.1z" fill="#1F2348"/><path d="M13.3 21.5c-.2 0-.4 0-.6-.2l-.4-.3A14.6 14.6 0 007 16.7a16.4 16.4 0 00-19.7 4.6 1.3 1.3 0 01-.9.1 1.3 1.3 0 01-.8-.4 1 1 0 010-1.2 17 17 0 016.3-5 19.1 19.1 0 0116.2 0 17 17 0 016.3 5l.2.4v.4l-.2.4-.4.3-.7.2z" fill="#1F2348"/><path d="M-8.5 23.7h-.4a1 1 0 01-.4-.3 1 1 0 01-.4-.7c0-.3 0-.6.3-.8 1.1-1.2 2.6-2.2 4.2-2.9A13.6 13.6 0 019.4 22c.2 0 .2.2.3.3a.9.9 0 010 .9l-.4.3a1.3 1.3 0 01-1.7-.1A10 10 0 004.2 21a11 11 0 00-11.8 2.3c-.2.2-.5.4-.9.4zM18.7 52.4l-.6-.1-.4-.4a18.9 18.9 0 00-7.4-7 21.7 21.7 0 00-20.6 0 18.9 18.9 0 00-7.4 7c-.1.2-.4.4-.7.5s-.7 0-1 0l-.3-.3a1 1 0 01-.3-.4 1 1 0 01.2-.9c1.9-3.3 4.7-6 8.2-7.9a24.3 24.3 0 0123.2 0 21.2 21.2 0 018.4 8.3v.5l-.3.4-.4.2-.6.1z" fill="#1F2348"/><path d="M13.3 53.5c-.2 0-.4 0-.6-.2l-.4-.3A14.6 14.6 0 007 48.7a16.4 16.4 0 00-19.7 4.6 1.3 1.3 0 01-.9.1 1.3 1.3 0 01-.8-.4 1 1 0 010-1.2 17 17 0 016.3-5 19.1 19.1 0 0116.2 0 17 17 0 016.3 5l.2.4v.4l-.2.4-.4.3-.7.2z" fill="#1F2348"/><path d="M-8.5 55.7h-.4a1 1 0 01-.4-.3 1 1 0 01-.4-.7c0-.3 0-.6.3-.8 1.1-1.2 2.6-2.2 4.2-2.9A13.6 13.6 0 019.4 54c.2 0 .2.2.3.3a.9.9 0 010 .9l-.4.3a1.3 1.3 0 01-1.7-.1A10 10 0 004.2 53a11 11 0 00-11.8 2.3c-.2.2-.5.4-.9.4z" fill="#1F2348"/></pattern><symbol id="d"><path class="st3" d="M546.7 416.6v-.5l-.1-1.5-.1-1.8-.1-.7-.2-1.6-.3-1.9v-.1l-.3-1.8-.4-1.9v-.1l-.4-1.6-.4-1.5-.4-1.2-.2-.7-.3-.8-.1-.3a7 7 0 00-.5-1.3l-.6-1.5c-.5-1.4-1.1-2.7-1.8-4.1l-.8-1.6-.7-1.3-.4-.8-.9-1.6-.9-1.5-1.1-1.7-.2-.2-1-1.4a25 25 0 00-1.2-1.7l-1.2-1.5-.2-.2-1.2-1.5-.9-1-.5-.6a20 20 0 00-1.4-1.6l-.5-.5-1-1-1.5-1.5-1.5-1.5-1.6-1.5-1.6-1.5-1.7-1.4-1.7-1.4-1.1-.9-.6-.5-1.4-1.1-.4-.3-1.5-1.1a116 116 0 00-8.2-5.4l-1.8-1-2.9-1.6-1.3-.7-.6-.3-1.8-.9-2.2-1.1-4.5-2.1-4.2-1.8-1.9-.8-1.9-.7-1.8-.7-1.9-.7-2.4-.8c-3.3-1.1-6.8-2.1-10.2-3l-1.5-.4-1.5-.4-1-.2-1.6-.3-1.6-.3-6.7-1.3a57 57 0 01-1.7-.3l-5.5-.8c.2-.5.3-1.1.3-1.6v-12.2c0-1.4-.6-2.9-1.6-3.9s-2.4-1.6-3.9-1.6h-5.6V310c0-1.5-1.2-2.7-2.7-2.7h-6.9V0h-4v307.3H411a2.7 2.7 0 00-2.7 2.7v4.4h-5.4c-1.4 0-2.9.6-3.9 1.6s-1.6 2.4-1.6 3.9v12.2l.2 1.6-5.5.8-1.8.3-3.9.7-1.9.4-3.7.8-2.1.5-2.6.6-3.2.8-4.5 1.3-2.5.8-2.4.8-.2.1-2 .7-.6.2a32.5 32.5 0 00-4.5 1.7l-4.6 1.9-4.5 2.1-1.4.7-3.2 1.6-1.7.9-.4.2-1.8 1-.1.1-2 1.2-1.9 1.2-4 2.6-1.8 1.3-.3.2-1.5 1.1-.6.4-1.3 1-1.7 1.3-.1.1-1.7 1.4-1.7 1.4-1.5 1.4-1.5 1.4-.5.5-1.2 1.2-1.5 1.5-1.5 1.6-1.1 1.2-.2.3-1.2 1.4-3 3.8-1 1.3-1 1.5-.3.4-1 1.5a15 15 0 00-1 1.7l-1.2 2.2-.7 1.3-.9 1.8-.6 1.4-.2.6-2.2 5.7-.4 1.3-.1.5-.5 1.6-.4 1.7-.1.3-.3 1.4-.1.5-.3 1.6v.1l-.3 1.9-.2 1.6-.1.8-.1 1.8-.1 1.5v4.4l.1 1.5v.7l.1 1.5.2 1.8v.3l.3 1.8v.1l.3 1.6.1.5.4 1.6.4 1.6.6 2.1.1.5.4 1.2.1.4.6 1.6v.1l.3.9.4.9.6 1.5 1 2.2.8 1.6.7 1.3 1 1.9.6 1 .8 1.3.8 1.3.3.4.9 1.4 1.2 1.7 1.1 1.4.2.3 1.1 1.3.2.2 2.5 3 .6.6.3.3.9 1 1.3 1.3 4.9 4.6 1.4 1.2.4.3 1.7 1.4 1.8 1.4 3.8 2.8 1.5 1 4.3 2.8 1.8 1.1 1.4.8 1.4.8 1.8 1 1.5.8 2 1 2 1 .2.1 2.4 1.1 2.7 1.2 1.3.6 1.7.7 1.1.4 1.8.7 1.4.5 2.5.9h.1l1.4.5.3.1.8.3 1.4.5.2.1.7.2 1.8.6 2.6.8 2.6.7 2.3.6 1.5.4 4.4 1 2 .4.5.1.3.1 2.4.5h.2l.9.2.9.2 2.3.4 2 .3h.3l1.3.2 3.2.4a5.7 5.7 0 00-1.6 4.1V520l.1.7.1.4.4 1.1.3.5.2.3v75.8l.2.5c.2.2.4.2.5.2l.5-.2.2-.5v-74.5l1 .5v75.8l.1.4.4.1c.3 0 .7-.2.7-.5V525l1 .1v78.4l.2.5c.2.2.3.2.5.2.3 0 .5-.3.5-.7v-78.4h1.2v81.8c0 .4.2.7.5.7l.5-.2.2-.5v-81.8h1v75.4l.1.4.4.1c.3 0 .7-.2.7-.5v-75.4h1v80.3l.2.5.5.2c.3 0 .5-.3.5-.7v-80.3h1.2v85.4l.1.4.4.1c.3 0 .7-.2.7-.5v-85.4h.9v75.4c.1.4.4.5.7.5l.4-.1.1-.4v-75.4h1v79.5c0 .3.4.5.7.5l.4-.1.1-.4v-79.5h1.2v81.8c0 .4.2.7.5.7l.5-.2.2-.5v-81.8h1v75.4c0 .4.4.5.7.5l.4-.1.1-.4v-75.4h1v78.4l.2.5c.1.2.3.2.5.2l.5-.2.2-.5v-78.4h1v80.3c0 .4.1.7.5.7l.5-.2.2-.5v-80.3h1v84.4l.2.5.5.2c.3 0 .5-.3.5-.7v-84.4h1.1v75.4l.1.4.4.1c.3 0 .7-.2.7-.5v-75.4h1v79.5c0 .3.4.5.7.5l.4-.1.1-.4v-79.5h1v75.4c0 .4.4.5.7.5l.4-.1.1-.4v-75.4h1.2v78.4c0 .4.2.7.5.7l.5-.2.2-.5v-78.4h1v83c0 .3.3.5.7.5l.4-.1.1-.4v-83.3l.2-.1.4-.2h.1l.4-.2.1-.1V599c0 .3.2.7.5.7l.5-.2.2-.5v-75.8l.3-.4.3-.4.1-.1.2-.3.1-.2.1-.3.2-.7.1-.4.1-.5V507c0-1.5-.6-3-1.6-4.1l2.8-.4 2.2-.3.8-.1 2.1-.3h.3l.3-.1a57 57 0 001.7-.3h.2l1-.2h.1l2.1-.4 5.1-1.1 2.1-.5.7-.2 5.1-1.4 5.4-1.6 1.3-.4 1.3-.4.3-.1.6-.2 1.4-.5.2-.1 1.5-.5a74.4 74.4 0 009.6-4 12 12 0 001.6-.8l.2-.1.6-.3.8-.4.8-.4 1.8-.9 1.4-.7 1.1-.6 2.5-1.4.4-.3 2.4-1.4h.1l2.6-1.6 2.5-1.7 1.9-1.3.4-.3 1.4-1 .7-.5 2-1.5 1-.8 1.7-1.4 1.2-1 .5-.4 1.3-1.1 1-.9 2.6-2.5 1.4-1.4 1.1-1.2 1.9-2.1 1.3-1.5 1.2-1.5.2-.3.5-.7.5-.7 1.3-1.8 1-1.5.1-.1 1.1-1.7.5-.8.5-.8.8-1.4.5-1 .7-1.4.8-1.6.8-1.8.1-.2.7-1.6.6-1.4.8-2.2.5-1.5.2-.8.4-1.5.5-1.8V431.9l.4-1.7.3-1.5.1-.7v-.2l.2-1.3.2-1.5.1-.9.1-1.1v-.7l.1-1.5v-2.2c.6-.9.6-1.4.6-2zm-83.9 1.7c0 39.9-15.1 73-35.3 79.8 7.6-13.4 11.5-46.8 11.5-79.8s-3.9-66.6-11.5-80c20.1 6.8 35.3 40.1 35.3 80zm-44.7-79.6l.2-.3.2-.3.2-.2.4-.3.2-.2.2-.1.4-.1h.6l.5.3 1.1 1.1.2.2.9 1.4.4.8 1.1 2.4.3.7 1.4 4 .3.9a116 116 0 012.2 8.9l.3 1.6c3.5 17.9 4.9 36.3 4.9 58.7 0 22.3-1.7 42.9-4.9 58.5-3.2 15.5-7.6 22.5-9.3 22.5s-5.9-4.6-9.5-22.5c-3.5-17.9-4.7-36.3-4.7-58.5s1.7-43.1 4.7-58.7a84 84 0 011.9-7.9l.3-1.1c2-6 4-9.9 5.5-11.8zm-5.6-.4c-7.4 13.4-11.5 46.8-11.5 80s4.1 66.4 11.5 79.8c-19.9-6.8-35.3-39.9-35.3-79.8s15.4-73.2 35.3-80zm-114.3 80c0-29.4 23.7-55.4 59.2-69.6-26.9 15.7-44.3 41.1-44.3 69.6 0 28.6 17.4 53.8 44.3 69.5-35.5-14.2-59.2-40.1-59.2-69.5zm19.6 0c0-33.8 26.2-62.9 63.4-75.1a87.1 87.1 0 00-41.1 75.1 87 87 0 0041.1 74.9c-37.2-12.2-63.4-41.1-63.4-74.9zm27.3 0c0-37.4 23.5-69.1 55.4-78.4-16.6 13.5-28.1 43.6-28.1 78.4s11.5 64.7 28.1 78.3c-31.9-9.3-55.4-40.9-55.4-78.3zm94.4 78.3c16.6-13.5 28.2-43.4 28.2-78.3s-11.7-64.9-28.2-78.4c31.9 9.3 55.6 40.9 55.6 78.4s-23.6 69-55.6 78.3zm19.5-3.4c24.3-14.7 40.9-42.8 40.9-74.9S483.3 358 459 343.2c37 12.2 63.2 41.2 63.2 75.1S496 481 459 493.2zm23.8-5.4c26.7-15.7 44.1-41.1 44.1-69.5s-17.4-53.9-44.1-69.6c35.3 14.2 59 40.1 59 69.6s-23.7 55.3-59 69.5z" fill="#e17b22"/><path class="st3" d="M421.1 337.5h-1.9c.3-.3.6-.4.9-.4s.6.1 1 .4z" fill="#e17b22"/><path class="st4" d="M427.5 498.1c7.6-13.4 11.5-46.8 11.5-79.8s-3.9-66.6-11.5-80c20.1 6.8 35.3 40.1 35.3 80s-15.1 73-35.3 79.8z" fill="#d94432"/><path class="st3" d="M421.1 337.5h-1.9l.2-.2.2-.1.4-.1h.4l.2.1.5.3z" fill="#e17b22"/><path class="st4" d="M420.1 337.1c1.7 0 5.7 4.6 9.3 22.5 3.5 17.9 4.9 36.3 4.9 58.7 0 22.3-1.7 42.9-4.9 58.5-3.2 15.5-7.6 22.5-9.3 22.5s-5.9-4.6-9.5-22.5c-3.5-17.9-4.7-36.3-4.7-58.5s1.7-43.1 4.7-58.7 7.8-22.5 9.5-22.5z" fill="#d94432"/><path class="st4" d="M401 418.3c0 33.2 4.1 66.4 11.5 79.8-19.9-6.8-35.3-39.9-35.3-79.8s15.4-73.2 35.3-80c-7.4 13.4-11.5 46.8-11.5 80zM298.2 418.3c0-29.4 23.7-55.4 59.2-69.6-26.9 15.7-44.3 41.1-44.3 69.6 0 28.6 17.4 53.8 44.3 69.5-35.5-14.2-59.2-40.1-59.2-69.5z" fill="#d94432"/><path class="st4" d="M317.8 418.3c0-33.8 26.2-62.9 63.4-75.1a87.1 87.1 0 00-41.1 75.1 87 87 0 0041.1 74.9c-37.2-12.2-63.4-41.1-63.4-74.9z" fill="#d94432"/><path class="st4" d="M345.1 418.3c0-37.4 23.5-69.1 55.4-78.4-16.6 13.5-28.1 43.6-28.1 78.4s11.5 64.7 28.1 78.3c-31.9-9.3-55.4-40.9-55.4-78.3zM439.5 496.6c16.6-13.5 28.2-43.4 28.2-78.3s-11.7-64.9-28.2-78.4c31.9 9.3 55.6 40.9 55.6 78.4s-23.6 69-55.6 78.3z" fill="#d94432"/><path class="st4" d="M499.9 418.3a87.8 87.8 0 00-40.9-75.1c37 12.2 63.2 41.2 63.2 75.1S496 481 459 493.2a87.3 87.3 0 0040.9-74.9z" fill="#d94432"/><path class="st4" d="M482.8 487.8c26.7-15.7 44.1-41.1 44.1-69.5s-17.4-53.9-44.1-69.6c35.3 14.2 59 40.1 59 69.6s-23.7 55.3-59 69.5zM427.5 498.1c7.6-13.4 11.5-46.8 11.5-79.8s-3.9-66.6-11.5-80c20.1 6.8 35.3 40.1 35.3 80s-15.1 73-35.3 79.8zM463.8 498.9l5.1-1.4c-1.7.6-3.4 1-5.1 1.4zM485.9 491.7l4.6-2-4.6 2z" fill="#d94432"/></symbol></defs><path fill="url(#b)" d="M0 0h1679v1080H0z"/><path fill="url(#c)" opacity=".1" d="M0 0h1679v1080H0z"/><use transform="translate(1072.4) scale(.83814)" width="100%" height="100%" xlink:href="#d"/><g transform="translate(0 127.9)"><path class="st11" d="M1303.8 640.6s-2.9 1.4-1.5 3.6c2.8 4.3.2 7.8-1.6 8.3-4.3 1.6-14.1-5.5-11.2-14.9s3.5-10-1.6-16.8c-5-6.8-9.9-4.7-9.9-4.7-1.3 1.1-.1 1.2-.1 1.2 3.4-.8 6.9.5 8.8 3.4 4.5 6.2 4.4 8.6 3.7 10.4s-4.1 9.4-1.3 14.9c2.7 5.5 7.9 8.8 12.2 7.2s3.5-6.9 2.2-8.9c-.3-.6-1-1.1.6-2.8l.1-.1c1.3-1.2-.4-.8-.4-.8z" fill="#f3c755"/><path class="st12" d="M1303.8 640.6s-2.9 1.4-1.5 3.6c2.8 4.3.2 7.8-1.6 8.3-4.3 1.6-14.1-5.5-11.2-14.9s3.5-10-1.6-16.8c-5-6.8-9.9-4.7-9.9-4.7-1.3 1.1-.1 1.2-.1 1.2 3.4-.8 6.9.5 8.8 3.4 4.5 6.2 4.4 8.6 3.7 10.4s-4.1 9.4-1.3 14.9c2.7 5.5 7.9 8.8 12.2 7.2s3.5-6.9 2.2-8.9c-.3-.6-1-1.1.6-2.8l.1-.1c1.3-1.2-.4-.8-.4-.8z" fill="#010202" opacity=".1"/><path class="st13" d="M1300.8 638.2c-.7 1.8 4 3.2 4 3.2s2.8 3.1 3.5 1.4c.3-.8-.6-3.9-.6-3.9l-3.1-2.7c.1 0-3.4 1-3.8 2z" fill="#e9b214"/><path class="st11" d="M1304.4 641.2s-2.9 1.4-1.5 3.6c2.8 4.3.2 7.8-1.6 8.3-4.3 1.6-14.1-5.5-11.2-14.9s3.5-10-1.6-16.8-9.9-4.7-9.9-4.7c-1.3 1.1-.1 1.2-.1 1.2 3.4-.8 6.9.5 8.8 3.4 4.5 6.2 4.4 8.6 3.7 10.4s-4.1 9.4-1.3 14.9c2.7 5.5 7.9 8.8 12.2 7.2s3.5-6.9 2.2-8.9c-.3-.6-1-1.1.6-2.8l.1-.1c1.3-1.2-.4-.8-.4-.8z" fill="#f3c755"/><path class="st14" d="M1300.8 638.2c-.7 1.8 2.9 1.9 4 3.2s2.8 3.1 3.5 1.4c-1.1-.7-5.7-3.3-7.5-4.6z" fill="#e9b214" opacity=".1"/><radialGradient id="e" cx="-375.2" cy="3669.9" r="1" gradientTransform="matrix(-15.384 4.4705 4.4705 15.384 -20847 -54175)" gradientUnits="userSpaceOnUse"><stop stop-color="#EC991C" offset="0"/><stop stop-color="#E9B213" offset="1"/></radialGradient><path class="st15" d="M1323.8 606.7c4.2-1.2 6.7-5.7 5.5-9.9s-5.7-6.7-9.9-5.5-6.7 5.7-5.5 9.9 5.7 6.7 9.9 5.5z" fill="url(#e)"/><path class="st16" d="M1324.6 604.1c3-.9 4.7-4 3.8-6.9-.9-3-4-4.7-6.9-3.8-3 .9-4.7 4-3.8 6.9.8 3 3.9 4.7 6.9 3.8z" fill="#d94532"/><radialGradient id="f" cx="-368.9" cy="3539.4" r="1" gradientTransform="scale(-42.476 42.476) rotate(16.2 12179 2961.7)" gradientUnits="userSpaceOnUse"><stop stop-color="#EC991C" offset="0"/><stop stop-color="#E9B213" offset="1"/></radialGradient><path class="st17" d="M1323.6 643a21.3 21.3 0 0014.5-26.3 21.3 21.3 0 00-26.3-14.5 21.2 21.2 0 1011.8 40.8z" fill="url(#f)"/><path class="st18" d="M1323.6 643a21.3 21.3 0 0014.5-26.3 21.3 21.3 0 00-26.3-14.5 21.2 21.2 0 1011.8 40.8z" fill="url(#f)"/><path class="st12" d="M1335.4 611.4a21.2 21.2 0 01-22.9 31.8c5.4-1.9 17.4-8.8 18.8-20.6 1.2-8.7-5.6-17.6-10.3-21 2.9.5 5.7 1.7 8.2 3.4s4.6 3.8 6.2 6.4z" fill="#010202" opacity=".1"/><path class="st19" d="M1296.6 620.5a8 8 0 01-9-6.7 7.9 7.9 0 016.7-9.1 8 8 0 017.9 3.5 20 20 0 00-5.6 12.3z" fill="#e9b213"/><path class="st16" d="M1301.9 609.9a21.6 21.6 0 00-3.8 8.1 6 6 0 01-3-.2c-1-.4-1.8-1-2.5-1.8s-1-1.8-1.2-2.8c-.1-1 .1-2.1.5-3a5.5 5.5 0 014.9-3.2c1 0 2.1.2 3 .8.9.4 1.6 1.2 2.1 2.1z" fill="#d94532"/><path class="st20" d="M1302 641.1s2.6 3.3 3.4 1.6c.4-.7-.3-3.9-.3-3.9l-1.5-1.4c0 2.6-.6 3.7-1.6 3.7z" fill="#e9b214" opacity=".1"/><path class="st21" d="M1326 621.2s1.2-1.7 2.8-1.7c.4 0 .5.2.4.7 0 0-.3 2.1-.6 2.2-.2.1-2.5-.4-2.5-.4-.3-.2-.3-.5-.1-.8z" fill="#3b3a3a"/><path class="st22" d="M1327.7 619.8l1.2-.3c.4 0 .5.2.4.7a8 8 0 01-.6 2.2c0-1.5-.4-2.7-1-2.6z" fill="#e7b114" opacity=".2"/><path class="st23" d="M1326.9 621.1s1.2-1.2 2.1-1.3z" fill="#fff" opacity=".3"/><path class="st24" d="M1317.5 623.6s-3.4-5.5-.6-7.2 6 3.6 6 3.6-5.6-3.8-5.4 3.6zm10.5-6.4s-3.4-5.5-.6-7.2c2.7-1.7 6 3.6 6 3.6s-5.5-3.9-5.4 3.6z" fill="#010202" opacity=".6"/><path class="st25" d="M1315.5 635.2l-.1-.2c.1-.1 5.4-7.1 11.3-10.1h.2v.2l-11.3 10.1h-.1zm10.2-9.4a39 39 0 00-8.8 7.9zm-12.4 5.7c-.1 0-.1 0 0 0l-.1-.3a53.3 53.3 0 0113.3-7.2l-.1.2-13 7.3h-.1zm11.2-6.6a53.2 53.2 0 00-8.8 4.9zm6.4-2.3c-.1 0-.1 0 0 0l-.1-.3c4.6-3.5 12.4-4.5 12.5-4.5l.2.1-.1.2c-.1 0-7.8 1-12.3 4.4l-.2.1zm-.6-.8s-.1-.1 0 0l-.1-.3c4-4.2 10.7-7.3 10.8-7.4l.2.1v.2l-10.7 7.3-.2.1zm8.7-6.3c-1.9 1.1-4.9 2.8-7.3 5z" fill="#010101"/><radialGradient id="g" cx="-373.3" cy="3751" r="1" gradientTransform="matrix(-18.98 5.5156 3.2229 11.091 -17827 -38896)" gradientUnits="userSpaceOnUse"><stop stop-color="#EC991C" offset="0"/><stop stop-color="#E9B213" offset="1"/></radialGradient><path class="st26" d="M1343.4 641.4c-3.2-2.1-5.1.2-5.8 1.3-.7-.3-1.4-.7-2-1.2l-3.9-3.1a18 18 0 01-5.3 3.7l3.3 4.8s-2.3 1-1.9 2.3 1.9 2.7 4.6.4c2.7-2.2 6.1-2.1 9.1-2.3 2.9-.1 5.8-2 5.2-4-.5-1.5-1.5-2.4-3.3-1.9z" fill="url(#g)"/><path class="st12" d="M1327.7 649.2c.4 1.3 1.9 2.7 4.6.4 2.7-2.2 6.1-2.1 9.1-2.3 2.9-.1 5.8-2 5.2-4-3.5 3.7-4.6 2-11.7 4.3-3.8 1.2-5.1 3.9-7.2 1.6z" fill="#010202" opacity=".1"/><radialGradient id="a" cx="-374.2" cy="3728.4" r="1" gradientTransform="matrix(-17.118 4.9746 3.4953 12.028 -18110 -42332)" gradientUnits="userSpaceOnUse"><stop stop-color="#EC991C" offset="0"/><stop stop-color="#E9B213" offset="1"/></radialGradient><path class="st27" d="M1322.9 646.7l-1.4-3.4s-5 .7-8.7-.5c0 0 .2 6.7-1.2 8.1-1-.3-2.2.3-2.4 1.4a2 2 0 000 1.1l.3.7.6.5.7.2.8-.1.8-.5c.5.5 1.2.7 1.9.7s1.4-.3 1.9-.9c.3-.3.5-.6.6-1 .5.5 1.1.9 1.8.9s1.4-.2 1.9-.6.8-.9.9-1.6c.3.3.6.5 1 .6l1.2.2 1.2-.3 1-.7c.3-.3.5-.6.6-1l.2-1.2-.3-1.2-.7-1a3 3 0 00-1.2-.7l-1.5.3z" fill="url(#h)"/><path class="st28" d="M1346.1 643.1c-1.6-.9-4.2-.3-4.2-.3a4 4 0 011.8-1c1-.4 2.1.2 2.4 1.3z" fill="#fff" opacity=".2"/><path class="st12" d="M1322.4 652.1c2.4-.9 3.5-2 2.3-5.1 1.4.6 2.1 2.3 1.5 3.7s-2.3 2.1-3.6 1.5l-.2-.1zm-4.2 1.5c2-.7 2.8-1.6 1.9-4l.7.5.5.7c.1.3.2.6.1.9l-.2.8a2.3 2.3 0 01-3 1.1zm-4.5 1c1.7-.6 2.5-1.4 1.7-3.6 1 .4 1.5 1.6 1.1 2.6s-1.6 1.5-2.6 1.1l-.2-.1zm-3.3-.1c1.4-.5 2-1.1 1.3-2.9l.5.3c.1.1.3.3.3.5l.1.6-.1.6-.3.5c-.1.1-.3.3-.5.3l-.6.1-.6-.1zm8.2-11l1.4 3.4c-2.5.5-4.8 1.7-6.7 3.4 2.4-1.3 4.7-2.2 7.1-2.5 0 0 1.1-1.3 2.6-1.2l-1.5-3.4c-1 .3-2 .4-2.9.3z" fill="#010202" opacity=".1"/><path class="st28" d="M1327 641.9s3.1 3.7 3.1 5.3c0 0-.2-4.1-.9-5-.8-.9-2.2-.3-2.2-.3z" fill="#fff" opacity=".2"/><path class="st12" d="M1337.6 642.8c.7-1.1 2.6-3.5 5.8-1.3.1 0-3.8 2.5-5.8 1.3z" fill="#010202" opacity=".1"/><path class="st28" d="M1313.2 643.2s0 5.9-1.2 7.1c0 0 2.7-3.7 2.7-5.2.1-1.4-1.5-1.9-1.5-1.9zm12.1 5.4c-1.6-.9-2.7-.9-3.8 1.1l-.1-.8.2-.7.5-.6c.2-.2.4-.3.7-.3 1-.3 2.2.2 2.5 1.3zm-5.2 2.6c-1.2-.6-1.9-.7-2.7.8l-.1-.6.1-.6.3-.5.5-.3.6-.1.6.2c.2 0 .3.2.4.4l.3.5zm-4.7.6c-.9-.5-1.5-.5-2.1.6v-.4l.2-.4.3-.3.4-.2a1 1 0 011.2.7zm-3 .9c-1-1-1.7-1.2-2.9 0 0-.8.6-1.5 1.3-1.5.8 0 1.5.6 1.5 1.3z" fill="#fff" opacity=".2"/><path class="st25" d="M1331.7 630.3c-2.6 1.5-4.9-.7-5.9-2l-.8-.3c-.4-.2-.6-.7-.4-1.2.2-.4.7-.6 1.2-.4 0 0 1.8.8 3.5.3l-1.4-4.1c-.1-.4.1-.9.5-1.1s.9-.1 1.1.3c.7 1.1 1.4 2.5 1.8 3.6.7-.8 1.2-2 1.6-3.5.1-.5.6-.8 1-.7.5.1.8.6.7 1l-.3 1.2c.2 2.1.1 5.4-2.6 6.9z" fill="#010101"/><path class="st29" d="M1333.2 626.9l-.5-2.6a5 5 0 01-4.4 3.4l.5 1.9c0 .3.2.3.4.3l1.8-.9-.1-1.7.4 1.4 1.7-1.3c.2-.2.2-.3.2-.5z" fill="#fff"/></g><path class="st5" d="M1395.3 771.2l.2-1.4v-10.3a5.3 5.3 0 00-5.2-5.2h-4.4V751c0-1.5-1.2-2.7-2.7-2.7h-6.4V0h-3v748.3h-6.4a2.7 2.7 0 00-2.7 2.7v3.3h-4.1c-1.3 0-2.7.6-3.7 1.6s-1.6 2.3-1.6 3.6v10.4l.2 1.2c-49.9 6.3-87.8 36-87.8 71.9v1.9l.1 1.8v.6l.1 1 .1 1 .2 1.4.2 1.3.1.6.2 1 .3 1.5.3 1 .4 1.6.6 1.8.6 1.8.6 1.5 1 2.3.6 1.2.1.3.6 1 .4.9 1.7 2.9 1 1.6 2.5 3.5.9 1.2 1.1 1.4 1 1.2.7.8.5.5 1 1 4 3.9 1.4 1.2.8.7 1 .8 1.4 1 1.3 1 1.5 1.3 1.5 1 .2.2 1.5 1 1.7 1c1 .8 2.1 1.4 3.2 2 .7.5 1.3.9 2 1.2l1.8 1 1.5.8 2.7 1.4 1.1.5.5.2 1.6.8 1.9.9a90 90 0 009.7 3.7 79 79 0 005.2 1.6l1.7.5a119.4 119.4 0 0020.3 4.2l2.4.3h1.4c.6.2 1.3.2 1.9.3h1.5l2.3.3c.9 0 1.8 0 2.6.2h2.1c.7 0 1.4 0 2.1.2h8.8l1.7-.1h1l1.5-.1 6.6-.5 1.9-.2h.2l1.2-.1a47 47 0 003.7-.5l1.8-.3.4-.1 2.1-.3.5-.1a57 57 0 001.7-.3l5.9-1.2 4-1 7.9-2.3 1.7-.6 1.2-.4 6.3-2.4 2.1-1c2.7-1.1 5.3-2.3 7.9-3.7l1.2-.6.4-.2 1.5-.8c.8-.4 1.5-1 2.3-1.3l1.3-.8c2.3-1.4 4.5-3 6.6-4.5l1.2-1 3.7-3 1-.7a89 89 0 005.4-5.2l1.1-1.2.2-.2.7-.8 1-1.2 1.3-1.5 1.1-1.4.2-.3 1.1-1.5 1-1.5 1.1-1.8 1-1.6.9-1.7.9-1.7.6-1.3.4-.8.2-.5.4-1.1.6-1.5.6-1.7.6-1.7.6-2.2.3-1.3.3-1.5.2-1 .2-1.3.2-1.5.1-.7.1-1 .1-.6.1-1.8v-2c.5-35.2-37.2-65-87-71.4zm-29.6-20.2c0-1 .8-1.7 1.7-1.7h15.8c.9 0 1.7.8 1.7 1.7v3.3h-19.2zm-9.3 8.5a5 5 0 011.2-3c.8-.8 1.9-1.2 3-1.2h29.7c1.1 0 2.2.5 2.9 1.2.8.8 1.2 1.9 1.2 3v10.3l-.2 1.2a148.1 148.1 0 00-37.7 0l-.2-1.1v-10.4zm-84.5 83.5c0-25 20.1-47.1 50.2-59.1-22.8 13.3-37.6 34.9-37.6 59 0 24.4 14.7 45.8 37.6 59-30.1-12-50.2-34-50.2-59zm16.6 0c0-28.7 22.2-53.4 53.8-63.7a74 74 0 00-34.9 63.7 73.8 73.8 0 0034.9 63.6c-31.6-10.3-53.8-35-53.8-63.6zm23 0c0-31.8 19.9-58.7 47.1-66.6-14.1 11.5-23.8 37-23.8 66.6s9.8 55 23.8 66.5a68.3 68.3 0 01-47.1-66.5zm27.3 0c0-33.7 13.1-62.1 30-67.8-6.3 11.3-9.8 39.8-9.8 67.9s3.4 56.4 9.8 67.7c-16.9-5.7-30-34-30-67.7zm36.5 68.8c-1.4 0-5-4-8-19.1s-4-31-4-49.7 1.4-36.6 4-49.8 6.6-19.1 8-19.1 4.9 3.9 7.9 19 4.2 31 4.2 49.9-1.4 36.5-4.2 49.7c-2.7 13.2-6.5 19-7.9 19zm6.3-1c6.5-11.3 9.8-39.8 9.8-67.7 0-28-3.3-56.5-9.8-68 17.1 5.8 30 34 30 68s-12.9 61.9-30 67.7zm10.2-1.3c14.1-11.5 24-37 24-66.5s-9.9-55.1-24-66.6c27.1 7.9 47.2 34.7 47.2 66.6s-20.1 58.6-47.2 66.5zm16.5-3A74 74 0 001443 843a74.3 74.3 0 00-34.7-63.7c31.4 10.3 53.7 35 53.7 63.7s-22.3 53.3-53.7 63.6zm20.2-4.5c22.7-13.3 37.5-35 37.5-59s-14.8-45.7-37.5-59.1c30 12 50.1 34 50.1 59s-20.1 47-50.1 59z" fill="#e2981b"/><path class="st6" d="M1395.5 918.5v10.3a5 5 0 01-1.2 3.3v64.3l-.2.4-.4.2c-.3 0-.5-.2-.4-.6v-63.5l-1.2.6v70.6l-.1.3h-.3c-.3 0-.6 0-.6-.3v-70.4H1390.2v66.6l-.2.4-.4.2c-.2 0-.4-.3-.4-.6v-66.5h-1v64l-.1.3h-.3c-.3 0-.6 0-.6-.3v-64h-.9v67.4l-.1.3h-.3c-.3 0-.6 0-.6-.3v-67.4h-.8v64c0 .3-.3.4-.6.4l-.3-.1-.1-.3v-64h-1v71.5c0 .3-.1.6-.4.6-.2 0-.4 0-.4-.2l-.2-.4v-71.5h-.9v68l-.2.5-.4.2c-.3 0-.4-.3-.4-.6v-68.1h-.8v66.5l-.2.4-.4.2c-.2 0-.3 0-.4-.2l-.2-.4v-66.5h-.9v64l-.1.3h-.3c-.3 0-.6 0-.6-.3v-64h-.8v69.4l-.2.4-.4.2c-.3 0-.4-.3-.4-.6v-69.4h-1.1v67.4l-.1.3h-.3c-.3 0-.5 0-.6-.3v-67.4h-.8v64l-.1.3h-.3c-.3 0-.6 0-.6-.3v-64h-.9v72.5c0 .3-.3.4-.6.4l-.3-.1-.1-.3v-72.5h-1v68c0 .4-.1.7-.4.7l-.4-.2-.2-.4v-68.1h-.8v64c0 .3-.3.4-.6.4l-.3-.1-.1-.3v-64h-.9v69.4l-.2.4-.4.2c-.3 0-.4-.3-.4-.6v-69.4h-1v66.5c0 .3-.1.6-.4.6-.2 0-.4 0-.4-.2l-.2-.4v-66.5l-.9-.1v64c0 .4-.3.5-.6.5l-.3-.1-.1-.3v-64.4a3 3 0 01-.8-.4v63.2l-.2.4-.4.2-.4-.2-.2-.4v-64.3c-.7-1-1.1-2-1.1-3.2v-10.3a5 5 0 011.6-3.6h1.4l-.7.7c-.8.8-1.2 1.9-1.2 3v10.3c0 1 .4 2 1.2 2.9.8.7 1.8 1 2.8 1h30c1 0 2-.3 3-1.1.7-.7 1.1-1.8 1.1-2.8v-10.3a5 5 0 00-1.2-3l-.7-.6h.2l1.2-.1c.9 1 1.4 2.3 1.4 3.7z" fill="#e2981b"/><path class="st7" d="M1384.9 751v3.3h-19.2V751c0-1 .8-1.7 1.7-1.7h15.8c.9 0 1.7.8 1.7 1.7z" fill="#993139"/><g fill="#d94432"><path class="st8" d="M1408.3 906.6A74 74 0 001443 843a74.3 74.3 0 00-34.7-63.7c31.4 10.3 53.7 35 53.7 63.7s-22.3 53.3-53.7 63.6z"/><path class="st8" d="M1391.8 909.5c14.1-11.5 24-37 24-66.5s-9.9-55.1-24-66.6c27.1 7.9 47.2 34.7 47.2 66.6s-20.1 58.6-47.2 66.5z"/><path class="st8" d="M1381.6 910.8c6.5-11.3 9.8-39.8 9.8-67.7 0-28-3.3-56.5-9.8-68 17.1 5.8 30 34 30 68s-12.9 61.9-30 67.7z"/><path class="st8" d="M1375.3 911.8c-1.4 0-5-4-8-19.1s-4-31-4-49.7 1.4-36.6 4-49.8 6.6-19.1 8-19.1 4.9 3.9 7.9 19 4.2 31 4.2 49.9-1.4 36.5-4.2 49.7c-2.7 13.2-6.5 19-7.9 19z"/><path class="st8" d="M1368.8 775.2c-6.3 11.3-9.8 39.8-9.8 67.9s3.4 56.4 9.8 67.7c-16.9-5.7-30-34-30-67.7s13.1-62.2 30-68z"/><path class="st8" d="M1358.6 909.5c-27.1-8-47.1-34.7-47.1-66.5s19.9-58.7 47.1-66.6c-14.1 11.5-23.8 37-23.8 66.6s9.8 55 23.8 66.5z"/><path class="st8" d="M1342.3 906.6c-31.6-10.3-53.8-35-53.8-63.6s22.2-53.4 53.8-63.7a74 74 0 00-34.9 63.7 73.8 73.8 0 0034.9 63.6zM1428.5 783.9c30 12 50.1 34 50.1 59s-20.1 47-50.1 59c22.7-13.2 37.5-34.8 37.5-59s-14.8-45.6-37.5-59z"/><path class="st8" d="M1322.1 902c-30.1-12.1-50.2-34-50.2-59s20.1-47.1 50.2-59.1c-22.8 13.3-37.6 34.9-37.6 59 0 24.4 14.7 45.8 37.6 59z"/></g><path class="st9" d="M1394.5 759.5V770.5l-.1.2-.1.3a148.1 148.1 0 00-37.7 0l-.1-.3v-11.1a5 5 0 011.2-3c.8-.8 1.9-1.2 3-1.2h29.7c1.1 0 2.2.5 2.9 1.2.8.7 1.2 1.8 1.2 2.9z" fill="#993139"/><path class="st10" d="M1394.5 918.5v10.3c0 1-.4 2-1.1 2.8-1 .8-2 1.2-3 1.2h-30c-1 0-2-.4-2.8-1.1a4.3 4.3 0 01-1.2-3v-10.2a5 5 0 011.2-3l.7-.6c.6 0 1.3 0 1.9.2h1.5l2.3.3c.9 0 1.8 0 2.6.2h2.1c.7 0 1.4 0 2.1.2h8.8l1.7-.1h1l1.5-.1 6.6-.5 1.9-.2.7.6c1.1.8 1.5 1.9 1.5 3z" fill="#993139"/><use transform="translate(-228.7) scale(1.144)" width="100%" height="100%" xlink:href="#d"/></svg>