<svg width="34" height="34" fill="none" xmlns="http://www.w3.org/2000/svg">
  <path fill-rule="evenodd" clip-rule="evenodd" d="M12.886 33.49c9.11 2.273 18.335-3.27 20.605-12.376C35.763 12.004 30.218 2.782 21.11.51 12.004-1.763 2.783 3.782.51 12.889c-2.273 9.107 3.267 18.329 12.376 20.601zm7.871-23.202c2.356.811 4.078 2.027 3.74 4.29l-.001.001c-.245 1.656-1.163 2.458-2.382 2.74 1.674.872 2.525 2.208 1.714 4.524-1.006 2.875-3.398 3.118-6.58 2.516l-.772 3.094-1.865-.464.762-3.053a73.16 73.16 0 0 1-1.487-.385l-.765 3.066-1.863-.465.772-3.1-3.757-.948.926-2.139s1.375.368 1.356.34c.528.132.763-.212.855-.442l2.094-8.394c.023-.397-.114-.897-.87-1.085.03-.02-1.355-.337-1.355-.337l.497-1.993 3.762.932.763-3.063 1.864.465-.748 3.003c.5.114 1.004.23 1.494.352l.745-2.984 1.866.465-.765 3.064zM14.854 21.4c1.522.402 4.85 1.282 5.38-.844.54-2.173-2.686-2.897-4.26-3.25-.176-.04-.331-.075-.458-.106l-1.024 4.106.362.094zm1.438-6c1.27.34 4.038 1.079 4.52-.854.492-1.975-2.197-2.571-3.512-2.863-.148-.033-.28-.062-.386-.088l-.928 3.725.306.08z" fill="#F7931A"/>
</svg>
