<svg width="1680" height="1080" data-name="Layer 1" viewBox="0 0 1680 1082" xmlns="http://www.w3.org/2000/svg" xmlns:xlink="http://www.w3.org/1999/xlink"><defs><radialGradient id="a" cx="-2030" cy="2260" r="1" gradientTransform="matrix(-60 0 0 60 -120000 -135000)" gradientUnits="userSpaceOnUse"><stop stop-color="#cc3047" offset="0"/><stop stop-color="#d94432" offset="1"/></radialGradient><radialGradient id="k" cx="-2050" cy="2270" gradientTransform="matrix(-37 0 0 37 -74500 -83200)" xlink:href="#a"/><radialGradient id="j" cx="-2050" cy="2270" gradientTransform="matrix(-37 0 0 37 -75400 -83500)" xlink:href="#a"/><radialGradient id="c" cx="-2020" cy="2260" r="1" gradientTransform="matrix(-67 0 0 67 -134000 -150000)" gradientUnits="userSpaceOnUse"><stop stop-color="#ec991c" offset="0"/><stop stop-color="#e9b213" offset="1"/></radialGradient><radialGradient id="i" cx="-2020" cy="2260" gradientTransform="matrix(-65 0 0 65 -131000 -146000)" xlink:href="#c"/><radialGradient id="h" cx="-2030" cy="2260" gradientTransform="matrix(-58 0 0 58 -116000 -131000)" xlink:href="#c"/><radialGradient id="g" cx="-2020" cy="2250" r="1" gradientTransform="matrix(-88 0 0 88 -176000 -198000)" gradientUnits="userSpaceOnUse"><stop stop-color="#41a38e" offset="0"/><stop stop-color="#21bca5" offset="1"/></radialGradient><radialGradient id="f" cx="-2020" cy="2250" gradientTransform="matrix(-88 0 0 88 -177000 -197000)" xlink:href="#a"/><radialGradient id="e" cx="-2030" cy="2260" r="1" gradientTransform="matrix(-60 0 0 60 -120000 -135000)" gradientUnits="userSpaceOnUse" xlink:href="#a"/><radialGradient id="d" cx="-2020" cy="2260" r="1" gradientTransform="matrix(-67 0 0 67 -134000 -150000)" gradientUnits="userSpaceOnUse" xlink:href="#c"/><linearGradient id="m" x1="616" x2="-42.8" y1="1100" y2="44.3" gradientUnits="userSpaceOnUse"><stop stop-color="#e9b213" offset="0"/><stop stop-color="#e9b213" offset=".1"/><stop stop-color="#e9b213" offset=".2"/><stop stop-color="#e9b213" offset=".3"/><stop stop-color="#e9b213" offset=".4"/><stop stop-color="#1f2348" stop-opacity=".6" offset=".6"/><stop stop-color="#1f2348" stop-opacity=".5" offset=".7"/><stop stop-color="#1f2348" stop-opacity=".3" offset=".8"/><stop stop-color="#1f2348" stop-opacity="0" offset=".9"/><stop stop-color="#fff" offset="1"/></linearGradient><linearGradient id="l" x1="840" x2="840" y1="1080" y2="-2.4" gradientTransform="matrix(1 0 0 -1 0 1080)" gradientUnits="userSpaceOnUse"><stop stop-color="#fff" offset="0"/><stop stop-color="#fff" stop-opacity=".3" offset=".9"/><stop stop-color="#fff" stop-opacity="0" offset="1"/></linearGradient><symbol id="b"><path d="M667 1030l-24.5 49.9-51.5-116a92.8 92.8 0 00-73-54.6 80.3 80.3 0 01-63.4-47.8l-34.4-78.7a151 151 0 00-99.9-86.2 60.3 60.3 0 01-41.2-37.9l-41.8-115a164.8 164.8 0 00-122-106A66 66 0 0164.5 387l-27-122A71.8 71.8 0 00.1 216.4v-62L23.7 166A71.8 71.8 0 0162 215.1l27 122a66 66 0 0050.8 50.7 166.3 166.3 0 01122 106l41.8 115a60.4 60.4 0 0041.2 37.9 151 151 0 0199.9 86.2l34.4 78.7a80.3 80.3 0 0063.4 47.8 92.8 92.8 0 0173 54.6z" fill="url(#m)"/></symbol><style>.cls-5{fill:#fff;opacity:.3;isolation:isolate}</style></defs><path d="M0 0h1680v1082H0z" fill="#f4f4f4"/><circle cx="1360" cy="579" r="30" fill="url(#e)"/><path class="cls-5" d="M1360 549a30 30 0 000 60z" fill="#fff" opacity=".3" style="isolation:isolate"/><circle cx="1280" cy="809" r="18.5" fill="url(#k)"/><path class="cls-5" d="M1280 791a18.5 18.5 0 000 37z" fill="#fff" opacity=".3" style="isolation:isolate"/><circle cx="332" cy="519" r="18.5" fill="url(#j)"/><path class="cls-5" d="M331 501a18.5 18.5 0 000 37z" fill="#fff" opacity=".3" style="isolation:isolate"/><circle cx="1340" cy="775" r="33.5" fill="url(#d)"/><path class="cls-5" d="M1340 742a33.5 33.5 0 000 67z" fill="#fff" opacity=".3" style="isolation:isolate"/><circle cx="356" cy="550" r="32.5" fill="url(#i)"/><use transform="translate(987 -181)" width="100%" height="100%" xlink:href="#b"/><path class="cls-5" d="M355 518a32.5 32.5 0 000 65z" fill="#fff" opacity=".3" style="isolation:isolate"/><circle cx="1210" cy="239" r="29" fill="url(#h)"/><path class="cls-5" d="M1210 210a29 29 0 000 58z" fill="#fff" opacity=".3" style="isolation:isolate"/><circle cx="1380" cy="459" r="44" fill="url(#g)"/><use transform="translate(0 -26.3)" width="100%" height="100%" xlink:href="#b"/><path class="cls-5" d="M1380 415a44 44 0 000 88z" fill="#fff" opacity=".3" style="isolation:isolate"/><circle cx="526" cy="800" r="44" fill="url(#f)"/><path class="cls-5" d="M526 756a44 44 0 000 88z" fill="#fff" opacity=".3" style="isolation:isolate"/><use transform="matrix(.83 0 0 .83 474 -133)" width="100%" height="100%" xlink:href="#b"/><path d="M0 0h1680v1082H0z" fill="url(#l)"/></svg>