<svg viewBox="0 0 1152 1152" xmlns="http://www.w3.org/2000/svg"><defs><radialGradient id="b" cx="-66.9" cy="105.5" r="577.25" gradientTransform="matrix(0 1.5771 -1.9957 0 210.54 105.5)" gradientUnits="userSpaceOnUse"><stop stop-color="#80addd" offset="0"/><stop stop-color="#2c77c7" offset="1"/></radialGradient></defs><style>.st7{fill:#f8db55}.st8{fill:#f6c430}.st9{fill:#fff}</style><path fill="url(#b)" style="paint-order:markers fill stroke" d="M0 0h1152v1152H0z"/><g opacity=".2" style="opacity:.2"><radialGradient id="a" cx="-769.1" cy="1958.2" r="1" gradientTransform="matrix(0 894.58 1928.5 0 -3777200 688920)" gradientUnits="userSpaceOnUse"><stop stop-color="#1F2348" stop-opacity="0" offset="0"/><stop stop-color="#1F2348" stop-opacity="0" offset=".21"/><stop stop-color="#1F2348" stop-opacity=".36" offset="1"/></radialGradient><path d="m1114.6 7.55-3620.9 1792.1-244.66-412.66z" fill="url(#a)" style="fill:url(#a)"/><radialGradient id="f" cx="-769.55" cy="1960.6" r="1" gradientTransform="matrix(0 1791.9 272.31 0 -533010 1380800)" gradientUnits="userSpaceOnUse"><stop stop-color="#1F2348" stop-opacity="0" offset="0"/><stop stop-color="#1F2348" stop-opacity="0" offset=".21"/><stop stop-color="#1F2348" stop-opacity=".36" offset="1"/></radialGradient><path d="m1151.6 21.82-542.16 3561.3 539.73 36.9z" fill="url(#f)"/><radialGradient id="g" cx="-769.53" cy="1958.7" r="1" gradientTransform="matrix(0 1726.8 796.39 0 -1559600 1330600)" gradientUnits="userSpaceOnUse"><stop stop-color="#1F2348" stop-opacity="0" offset="0"/><stop stop-color="#1F2348" stop-opacity="0" offset=".21"/><stop stop-color="#1F2348" stop-opacity=".36" offset="1"/></radialGradient><path d="M61.1 3466.7 1140.8 17.9-459.4 3331.6z" fill="url(#g)"/><radialGradient id="c" cx="-769.48" cy="1958.4" r="1" gradientTransform="matrix(0 1552.2 1270.6 0 -2488400 1196000)" gradientUnits="userSpaceOnUse"><stop stop-color="#1F2348" stop-opacity="0" offset="0"/><stop stop-color="#1F2348" stop-opacity="0" offset=".21"/><stop stop-color="#1F2348" stop-opacity=".36" offset="1"/></radialGradient><path d="M-963.35 3112C-541.3 2470.09 1129.25 15.7 1129.25 15.7l-2548.8 2853.4z" fill="url(#c)"/><radialGradient id="d" cx="-768.25" cy="1958.2" r="1" gradientTransform="matrix(0 461.49 2070.5 0 -4055400 355000)" gradientUnits="userSpaceOnUse"><stop stop-color="#1F2348" stop-opacity="0" offset="0"/><stop stop-color="#1F2348" stop-opacity="0" offset=".21"/><stop stop-color="#1F2348" stop-opacity=".36" offset="1"/></radialGradient><path d="M1101.1 1.77-3051.3 472.7l116.04 451.26z" fill="url(#d)"/><radialGradient id="e" cx="-769.36" cy="1958.2" r="1" gradientTransform="matrix(0 1263.4 1658.3 0 -3247900 973250)" gradientUnits="userSpaceOnUse"><stop stop-color="#1F2348" stop-opacity="0" offset="0"/><stop stop-color="#1F2348" stop-opacity="0" offset=".21"/><stop stop-color="#1F2348" stop-opacity=".36" offset="1"/></radialGradient><path d="m1123.1 11.02-2974.2 2527.1-350.1-345.68z" fill="url(#e)"/></g><path class="st7" d="M722.3 1155.1h-72.7L299.7 878.2-30 617.3V560z" fill="#f8db55"/><path class="st8" d="M649.6 1155.1h-72.2L-30 674.8v-57.5l329.7 260.9z" fill="#f6c430"/><path class="st7" d="M1296.3 481.1h-72.7L873.7 204.2 544-56.7V-114z" fill="#f8db55"/><path class="st8" d="m1223.6 481.1-71.1.9L542.5-.5l1.5-56.2 329.7 260.9z" fill="#f6c430"/><g><path class="st8" d="M38.37 652.29c-11.67 0-21.13-4.45-21.13-9.95 0-5.49 9.46-9.95 21.13-9.95s21.13 4.45 21.13 9.95-9.46 9.95-21.13 9.95z" fill="#f6c430"/><circle class="st9" cx="38.76" cy="573.1" r="44.83" fill="#fff"/><path d="M64.38 570.86 53.46 551.4a4.37 4.37 0 0 0-3.78-2.25H27.84c-1.56 0-3 .85-3.78 2.25l-10.92 19.46a4.6 4.6 0 0 0 0 4.49l10.92 19.46a4.35 4.35 0 0 0 3.78 2.25h21.84c1.56 0 3-.85 3.78-2.25l10.92-19.46a4.6 4.6 0 0 0 0-4.49z" fill="none" stroke="#e9b213" stroke-linecap="round" stroke-linejoin="round" stroke-width="5.43" style="fill:none;stroke:#e9b213;stroke-width:5.4333;stroke-linecap:round;stroke-linejoin:round"/></g><g><path class="st9" d="M1095.6 327a45.5 45.5 0 1 0-45.78-45.52A45.7 45.7 0 0 0 1095.6 327z" fill="#fff"/><path d="M1090.4 257.5v5.91zm7.65 0v5.91zm-16.1 5.91h5.9zm4.87 16.82v17.88h14.03a8.93 8.93 0 1 0 0-17.88zm3.58 18.08v5.92zm7.65 0v5.92zm-11.22-34.66v16.58h13.38a8.22 8.22 0 0 0 5.86-2.43 8.31 8.31 0 0 0 0-11.72 8.32 8.32 0 0 0-5.86-2.43zm-4.88 34.45h5.9z" fill="none" stroke="#f7931a" stroke-linecap="round" stroke-linejoin="round" stroke-width="5.58"/><path class="st8" d="M1094.7 360.98c-11.67 0-21.13-4.45-21.13-9.95 0-5.49 9.46-9.95 21.13-9.95s21.13 4.45 21.13 9.95c0 5.49-9.46 9.95-21.13 9.95z" fill="#f6c430"/></g></svg>
