<svg fill="none" viewBox="0 0 375 570" xmlns="http://www.w3.org/2000/svg"><g fill="#fff"><path d="M172 411h-3l2-2h-1l-2 2h-1l1-2h-3l1-1h3v-1h-2l1-2-1-1v1l-1 1-1-2-1 1 1 2v1l-2-2v1l-1 1-1-1 2-3h-1l-1 2-1-2-1 1 1 2h-3l1 1h2l1 1h-2l1 2h-2l-1-2h-1l1 2h-2v1h2l-1 2 1 1 1-3h2l-1 2h2v2h-3l-1 1h3l-1 1 1 1 1-2 1 2h1l-2-3 1-1 1 2 2-2a21 21 0 000 1l-1 2 1 1v-1h1v-1l1 2 1-1-1-1h2v-1h-3l-1-2h3l-1-2h1a101 101 0 012 3v-1-1l-1-1h3v-1zm-8 0l1-1h1v1h-2zm-4-1h2l1 1h-2l-1-1zm3 2l-1 1h-2l1-1h2zm0-4l1 1-1 2v-2-1zm1 6l-1 1v-1-1l1 1zm3-1h-2l-1-1h2l1 1zM216 454h-4l2-5h-2v1l-2 4h-3l3-5h-6l2-2h6l-1-2h-4l2-4-2-1-1 2-1 2-2-4-1 2 2 4-1 2-3-4-1 2-2 2-1-2 3-5h-2l-2 3-2-3h-2l2 4h-5l1 2h5l2 3h-5l2 4h-3l-2-4h-2l2 4h-4v2h4l-2 3 1 2a10587 10587 0 006-5l-2 4h5l-2 3h-5l-1 2h5l-2 3 2 1 2-3 2 3h2l-3-5 1-3 3 5 3-5a40 40 0 001 3l-2 4 1 2v-1l1-1v-1l1-1 2 3 2-1-2-3h4v-1l1-1h-6l-2-3h6l-3-4h3a195 195 0 013 5l1-2-1-1-1-2h4v-2zm-14 0l1-3h3v1l-1 1v1h-3zm-8-3h3l1 3h-3l-1-3zm4 5l-1 2h-3l1-2h3zm2-8l2 2-2 3-2-3 2-2zm2 11l-2 3-1-3 1-2 2 2zm4-1h-3l-1-2h3a50 50 0 011 2zM93 357h-3l2-3h-2l-2 3h-2l2-3h-4l1-2h5l-1-1h-3l1-3-1-1-1 1v2l-2-3-1 1 2 3-1 2-2-3-1 1-1 2-1-1v-1l2-4h-2l-1 3-2-3-1 1 2 3h-4l1 1h4l1 2h-4l2 3h-3l-1-3h-2l2 3h-3v2h3l-2 2 1 2a10130 10130 0 005-4l-2 3h4l-1 2h-4l-1 1h4l-2 3 1 1 2-3 2 2h1l-2-3 1-2 2 3 2-3a30 30 0 001 2l-2 3 1 1v-1h1v-1l1-1 1 3 1-1-1-3h3l1-1h-5l-1-2h4l-2-3h2a145 145 0 012 4v-1l1-1-1-2v-1h3v-1zm-11 0l1-2h3l-1 1v1h-3zm-6-2h3l1 2h-3l-1-2zm4 4l-1 1h-3l1-1h3zm1-6l1 1-1 2v1l-1-2 1-2zm1 8l-1 2-1-2 1-2 1 2zm3-1h-2l-1-1h2a38 38 0 012 1h-1zM151 452h-2l1-2h-1l-1 2h-1l1-2h-2l1-1h2-2l1-2h-1v1l-1-1-1 1 1 1v1l-1-2-1 1v1l-1-1 1-2-1 1-1-1-1 1 1 1h-2 3v1h-2l1 2h-1l-1-2h-1l1 2h-1v1h1v2l1-2h1l-1 1h2v1h-2l-1 1h2l-1 1h1l1-1 1 1-1-2h1l1 1 1-1-1 2 1 1v-1-1h1v1h1l-1-1h2v-1h-2l-1-1h2l-1-1h1a74 74 0 011 1h1l-1-1h2v-1zm-6 0l1-1h1v1h-2zm-2-1h1v1h-1v-1h-1 1zm1 2h-2 2zm1-3v2l-1-1 1-1zm0 4v1l-1-1 1-1v1zm2-1h-1-1 2zM221 265h-2l1-1h-1v1h-1v-1h-2l1-1h2v-1h-2l1-1h-1v1l-1-2v3l-1-1-1 1h-1 1l1-2h-1l-1 1-1-1v1h-1v1h2v1h-2l1 1h-1l-1-1 1 1h-2v1h2l-1 1v1l1-2h1v2h1v1h-2 1v2l1-1 1 1h1l-1-2v-1l1 2 1-2a14 14 0 000 1v1h1l1 1v-1l-1-1h2-2v-1h-1 2l-1-2h2a67 67 0 011 2v-1l-1-1h2v-1zm-5 0h1-1zm-3 0h1-1zm1 1v1h-1v-1h1zm1-3l1 1-1 1-1-1 1-1zm1 4l-1 1-1-1 1-1 1 1zm1 0h-1v-1h1a18 18 0 010 1zM162 171h-2l1-2h-1l-1 2h-1l1-2h-2l1-1h2-2l1-2h-1v1l-1-1-1 1 1 1v1l-1-2-1 1v1a27 27 0 00-1-1l1-2-1 1-1-1-1 1 1 1h-2 3v1h-2l1 2h-1l-1-2h-1l1 2h-1v1h1v2a1943 1943 0 002-2l-1 1h2v1h-2l-1 1h2l-1 1h1l1-1 1 1-1-2h1l1 1 1-1-1 2 1 1v-1-1h1v1h1l-1-1h2v-1h-2l-1-1h2l-1-1h1l1 1h1l-1-1h2v-1zm-6 0l1-1h1v1h-2zm-2-1h1v1h-1l-1-1h1zm1 2h-2 2zm1-3v2l-1-1 1-1zm0 4v1l-1-1 1-1v1zm2-1h-1-1 2zM366 513h-2l1-3h-1l-2 3h-2l2-3h-3l1-2h4l-1-1h-3l2-2-1-1-1 1-1 1-1-2-1 1 2 3-1 1-2-3-1 2-1 1-1-1 2-4h-1l-2 3-1-3-1 1 1 2h-3l1 1h3l1 2h-3l1 3h-2l-1-3h-2l2 3h-3v1h3l-1 3v1l2-4h2l-1 3h3l-1 2h-3l-1 1h3l-1 2 1 1 2-2 1 2h1l-2-4 1-1 2 3 2-3a28 28 0 001 2l-2 2 1 2v-1-1l1-1 2 2 1-1-2-2h3l1-1h-4l-1-2h3l-2-3h2v1l2 3 1-1v-1l-1-2h2v-1zm-9 0l1-2h2v1h-1v1h-2zm-5-2h2l1 2h-2l-1-2zm3 3l-1 2h-2l1-2h2zm1-5l1 2-1 1-1-1 1-2zm1 8l-1 1-1-1v-1l1-1 1 2zm3-1h-2l-1-2h2l1 2zM301 468h-2l1-2h-1l-1 2h-1l1-2h-3l1-1h3v-1h-2l1-2h-1l-1 1v1l-1-2-1 1 1 1v2l-1-2-1 1-1 1v-1l1-3h-1l-1 2-1-2-1 1 1 1h-2l1 1h2l1 1h-3l1 2h-1l-1-2h-1l1 2h-2v1h2l-1 2 1 1 1-3h1l-1 2h3l-1 1h-2l-1 1h2v2l1-1 1 1h1l-1-2v-1l2 2 1-2a19 19 0 000 1l-1 2 1 1v-1l1-1 1 1h1l-1-2h2v-1h-3l-1-1h3l-1-2h1a92 92 0 011 2h1v-1l-1-1h2v-1zm-7 0l1-1h1v1h-2zm-3-1h1l1 1h-2v-1zm2 2l-1 1h-1v-1h2zm1-4v3l-1-1 1-2zm0 6v1l-1-1 1-1v-1 2zm2-1h-1l-1-1h2a23 23 0 011 1h-1zM338 395h-2l2-1h-2l-1 1v1h-1l1-2h-2v-2h3-2l1-2-1-1v1l-1 1-1-2v1l1 2-1 1-1-2-1 1v1l-1-1 1-2h-1v1l-1-2-1 1 1 2h-3 3l1 2h-2l1 2h-2l-1-2h-1l1 2h-2 2l-1 2 1 1 1-3h2l-1 2h2v1l-1 1h-2v1h2l-1 1 1 1 1-2v1l1 1h1l-2-3 1-1 1 2 1-2a20 20 0 001 1l-1 2v0h1v-1l1 2 1-1-1-2h2-3v-2h2l-1-2h1l1 1a89 89 0 011 2v-1l-1-2h2v-1zm-6 0v-1h2v1h-1v1h-1v-1zm-4-1h2v2h-1l-1-2zm2 2v2h-2l1-2h1zm1-3l1 1-1 1-1-1 1-1zm1 5l-1 1-1-1 1-1 1 1zm2 0h-2v-2h1l1 2zM382 368h-1l1-1h-1l-1 1v1h-1l1-2h-2v-1h3l-1-1h-1l1-1h-1l-1 1-1-1 1 2-1 1-1-2v1l-1 1v-1l1-2h-1v1l-1-1h-1l1 1h-2v1h2l1 1h-2l1 2h-1l-1-2h-1l1 2h-1 1l-1 1 1 1 1-2h1l-1 2h2l-1 1h-2 2l-1 2h1l1-1v1h1l-1-2v-1l1 2 1-2a14 14 0 001 1l-1 2h1v-1l1 1h1l-1-2h2-3v-1h2l-1-2h1a67 67 0 011 2v-1-1h1v-1zm-5 0h1v1h-1v-1zm-3 0h1l1 1h-1l-1-1zm2 1l-1 1h-1l1-1h1zm0-3l1 1-1 1v-1-1zm1 5h-1v-1h1v1zm2-1h-1l-1-1h1a18 18 0 011 1zM94 76h-4l2-4h-2v1l-2 3h-3l3-4h-6l2-2h6l-1-2h-4l2-3-2-1-1 2-1 1-2-4-1 2 2 4-1 2a14930 14930 0 01-4-2l-1 2-1-1v-1l2-5h1-3l-2 4-2-4-1 1 2 3h-5l1 2h5l1 3h-5l3 4h-3v-1l-2-3h-3l3 4h-4v1h4l-2 4 1 1 3-5h3l-3 4h5v1l-1 2h-5l-1 2h5l-2 3 1 1 3-4v1l2 3h2l-3-5 1-2 3 4 2-4a39 39 0 001 2l-2 4 1 2 1-1v-2l1-1v-1l2 4 2-1-2-3h4v-1l1-1h-6l-2-3h6l-3-4h3v1a185 185 0 013 4l1-1v-1h-1l-1-3h4v-2zm-14 0l1-2h4l-1 1v1l-1 1h-3v-1zm-7-2h3l1 2v1h-3v-1l-1-2zm4 4l-1 3h-3l1-3h3zm2-7l1 2-1 3-2-3 2-2zm1 11l-1 2-2-2v-1l1-2h1l1 3zm5-1h-4l-1-3h3a48 48 0 012 3zM422 82h-13l8-12h-7l-7 12h-9l8-12h-17l5-8h19v-1l-3-4-1-1h-12l7-11-5-3-4 6-3 5-7-12h-1l-3 5 8 13-4 7-9-13-4 7-4 7-1-1-3-6h-1v-1h1l9-16h-7l-6 11-7-11-5 3 7 10h-16v1l3 5h16l5 8h-17l8 13h-9l-7-12-1-1h-6l7 13h-13v6h14l-7 10 4 6 10-16h8l-7 13h16l-5 7v1h-15l-3 5h15l-7 11 5 3 7-11 6 10h8l-10-16 4-7 8 14 9-14v1a124 124 0 003 7l-7 12 3 6 2-3 2-4 2-3 2-3 6 11 5-3-6-11h13l3-5v-1h-19-1l-4-7h17l-8-14h8v1l1 1a585 585 0 019 14l3-5v-1l-1-2-5-8h13v-6zm-44 0l4-6v-1h10l-2 3-1 2-2 3h-10l1-1zm-25-7h9l1 1 4 6v1h-9l-1-1-4-6v-1zm14 14l-4 7h-10l5-7v-1h9v1zm5-25h1l4 7v1l-5 8-5-8 5-8zm5 36l-5 7-4-8c-1 0-1 0 0 0l4-7v-1 1l5 7v1zm15-4h-10l-5-7v-1l1 1h10a152 152 0 014 7zM56 200H43l8-13h-7v1l-7 11-1 1h-8l8-13H19l5-8h19l-3-5-1-1H27l7-11-5-2-4 5-3 5-8-12-3 5 8 13-4 7h-1l-8-13-4 7-4 7-1-1-3-5-1-1v-1l10-15v-1h-7l-6 11-7-11-5 3 7 11h-16l3 5h16l5 8h-17l8 13h-9l-7-12-1-1h-6l7 13h-13v6h14l-7 10 4 6 9-16h9l-8 13h17l-5 8h-15l-4 5h16l-7 11 5 3 7-11 6 10 1 1h6l-10-16 5-8 8 14 8-13h1a123 123 0 003 7l-7 12v1l3 5 2-3 2-3 2-4 2-3 6 11 5-3-6-11h13l3-5H24l-1-1-4-7h17l-8-14h8v1l1 1a585 585 0 019 15v-1l3-5-1-3-5-7v-1h13v-5zm-44 0l3-7h11l-2 2a1342 1342 0 01-3 5H11h1zm-25-7h10l4 7H-9l-4-7zm14 13l-4 7h-10l4-7H1zm5-25l1 1 4 7-5 8-5-7 5-9zm5 36l-5 7v0l-4-7v-1l4-7v-1 1l5 7v1zm15-4H16h-1l-4-7h10l5 7zM109 256h-2l1-1h-1v1h-1l1-1h-2v-1h2v-1h-2l1-1h-1v1l-1-2v1l1 1v1h-1l-1-1v1h-1v-1l1-1h-1l-1 1-1-1 1 1h-2v1h2l1 1h-2v1h-1v-1h-1l1 1h-2v1h2l-1 1v1l1-2h2l-1 2h2-1v1h-2 2l-1 1v1l1-2v1l1 1h1l-1-2v-1l1 2 1-2a15 15 0 001 1l-1 1v0h1v-1l1 2v-1l-1-1h2v-1h-2 2l-1-2h1a69 69 0 011 2v-1l-1-1h2v-1zm-5 0v-1h1v1h-1zm-3-1h1v1h-1v-1zm1 2v1h-1v-1h2-1zm1-3l1 1-1 1v-1-1zm1 4l-1 1v-1-1l1 1zm1 0h-1v-1h1v1zM223 562h-11l6-11h-5l-1 1-6 10h-7l7-11h-14l4-6h16v-1l-3-4h-11l6-9-4-3-3 5-3 4-6-10-3 4v1l6 10c1 0 1 0 0 0l-3 6-7-11-3 6-4 6v-1l-3-5h-1v-1h1l7-13h-5l-6 9-5-9-4 2 5 9h-13v1l3 4h13l4 7h-14l7 10h-8l-6-10h-6l7 10h-11v5h11l-5 9 2 5 9-14h7l-7 11h14v1l-4 6h-13l-2 5h12l-5 9 4 2 6-9 5 8 1 1h5l-8-14 3-6 7 12 7-12v1a104 104 0 003 6l-6 10 3 5 1-3 2-3 2-2 1-3 6 9 4-2-6-10h11l3-4h-16l-1-1-3-6h14l-7-11h7l1 2a493 493 0 017 11l3-4v-1l-1-1-4-7h11v-5zm-37 0l3-6h8l-1 2a813 813 0 01-2 4h-9 1zm-21-6h8l4 6h-8l-4-6zm12 11l-4 6h-8l4-6h8zm4-20l4 6-4 7-4-7 4-6zm4 30l-4 6v-1l-4-6 4-6v-1 1l4 6v1zm12-4h-8l-4-6h9a128 128 0 014 6h-1zM61 446h-5l3-4h-2l-3 4h-3l3-4h-6l2-3h6l-1-2h-4l2-4-2-1-1 2-1 2-3-4-1 1v1l3 4-2 2v1l-2-5-2 2-1 3h-1l-1-2v-1l3-5v-1h-2l-2 4-3-4-1 1 2 4h-6 1l1 2h5l2 3h-6l3 5h-3v-1l-3-4h-2l2 5h-4v2h4l-2 3 1 2 4-5h3l-3 4h6l-2 3h-5l-1 2h5l-2 4 2 1 2-4 2 3v1h3l-4-6 2-3 3 5 2-4a43 43 0 002 2l-3 4v1l1 2 1-2 1-1v-1l1-1 2 4 2-1-2-4h4l1-2h-6-1l-1-3h6l-3-5h3v1a207 207 0 013 5l1-2c1 0 1 0 0 0v-1l-2-3h5v-2zm-16 0l2-2h3v1a518 518 0 01-1 2h-4v-1zm-8-2h3l2 2v1h-4v-1l-1-2zm5 5l-2 2h-3l1-2 1-1h3v1zm2-9l1 3-1 2-1 1-1-3 2-3zm1 12l-1 3h-1l-1-3 1-2v-1l1 1 1 2zm5-1h-3l-2-2v-1 1h4l1 2zM304 174h-6l4-6h-4l-4 6h-4l4-6h-9l3-4h10v-1l-2-2h-7l4-6-3-1-1 3-2 2-4-6-1 3 3 6-2 4-4-7-2 4-2 3-2-3v-1l4-8h-3l-3 6-4-6-2 1 3 6h-8l2 3h8l2 4h-8l4 6h-4-1l-3-6h-4l4 6h-6v3h6l-3 6 2 3 5-9h4l-4 7h8l-2 4h-8l-1 3h7l-3 5 3 2 3-6 3 5 1 1h3l-5-9 2-3 4 7 4-7a62 62 0 002 4l-3 6h-1l2 3 1-2 1-1 1-2 1-2 3 6 3-2-4-5h7l1-3h1-10l-3-4h9l-4-7h4l1 1a298 298 0 014 7l2-2v-1l-1-1-2-4h-1 7v-3zm-22 0l2-3h5l-1 1-1 1v1h-5zm-12-3h4l2 3h-4-1l-1-3h-1 1zm6 6l-2 4h-5 1l2-4h4zm3-12l3 4-3 4-2-4 2-4zm2 18l-2 4-2-4v-1l2-3 2 4c1 0 1 0 0 0zm8-2h-5l-2-4h5l2 4zM194 286h-3l2-2h-1l-2 2h-1l1-2h-3l1-2h3v-1h-2l1-2h-1v1l-1 1-1-2-1 1 1 2v1a2512 2512 0 00-2-1l-1 1-1-1 2-3h-1l-1 2-1-2h-1l1 2h-3l1 1h2l1 2h-2l1 2h-2l-1-2h-1l1 2h-2v1h2l-1 2 1 1 1-3h2l-1 2h2v1h-3l-1 1h3l-1 2 1 1 1-2 1 1v1h1l-2-3 1-1 1 2 2-2a21 21 0 000 1l-1 2 1 1v-1l1-1 1 2 1-1-1-2h2v-1h-3l-1-1h3l-1-2h1a97 97 0 012 2v-1l-1-1h3v-1zm-8 0l1-1h1v1h-2zm-4-1h2l1 1h-2l-1-1zm3 2l-1 1h-2l1-1h2zm0-4l1 1-1 1v-1-1zm1 6l-1 1v-1-1-1l1 2zm3-1h-2l-1-1h2l1 1zM173 327h-2l1-2h-1l-1 2h-1l1-2h-2l1-1h2v-1h-2l1-1h-1v1l-1-1h-1l1 2v1l-1-2-1 1v1l-1-1 1-2-1 1-1-1h-1l1 1h-2v1h3v1h-2l1 2h-1l-1-2h-1l1 2h-1 1v2l1-2h1l-1 2h2v1h-2-1 2l-1 2h1l1-1 1 1-1-2 1-1 1 2 1-2a14 14 0 000 1l-1 2h1v-1h1v1h1l-1-2h2-2l-1-1h2l-1-2h1a67 67 0 011 2h1v-1l-1-1h2zm-6 0l1-1h1v1h-2zm-2-1h1v1h-1v-1h-1 1zm1 1v1h-2 1v-1h1zm1-3v2l-1-1 1-1zm0 5v0h-1v-1h1v1zm2-1h-1l-1-1h2a18 18 0 010 1zM48 299h-1l1-2h-1l-1 2h-1l1-2h-2v-1h2-1l1-1-1-1v1h-1l-1-1v1l1 1-1 1-1-2v1l-1 1v-1l1-2h-1v2l-1-2-1 1 1 1h-2l1 1h2-2l1 2h-1l-1-1v-1h-1l1 2h-1v1h1l-1 1 1 1 1-2h1l-1 1h2l-1 1h-1l-1 1h2l-1 1h1l1-1v1h1l-1-2 1 1 1-1a15 15 0 001 1l-1 1v1l1-1v-1l1 1h1l-1-1h1l1-1h-3v-1h2l-1-1h1a69 69 0 011 2v-1-1h1v-1zm-5 0l1-1h1l-1 1h-1zm-3-1h1l1 1h-1l-1-1zm2 2h-1v1h-1l1-1h1zm0-3l1 1-1 1v-1-1zm1 4l-1 1v-1-1l1 1zm2 0h-1l-1-1h1l1 1zM360 270h-2l2-2h-2l-1 2h-1l1-2h-2v-1h3v-1h-2l1-1-1-1v1l-1 1-1-2v1l1 2-1 1-1-2-1 1v1a37 37 0 00-1-1l1-3h-1v2l-1-2-1 1 1 1h-3l1 1h2l1 1h-2l1 2h-2l-1-2h-1l1 2h-2v1h2l-1 2 1 1 1-3h2l-1 2h2l-1 1h-2v1h2l-1 2h1l1-1v1h2l-2-2 1-1 1 2 1-2a19 19 0 001 1l-1 2v0h1v-1l1 1h1l-1-2h2v-1h-3v-1h2l-1-2h2a92 92 0 011 3v-1-1l-1-1h2v-1zm-6 0v-1h2a56 56 0 01-1 1h-1zm-4-1h2v1h-1l-1-1zm2 2v1h-2l1-1h1zm1-4l1 2-1 1-1-1 1-2zm1 6l-1 1-1-1 1-1 1 1zm2-1h-2v-1h1a23 23 0 011 1zM345 344h-1l1-2h-1v1l-1 1h-1l1-2h-2l1-1h1-1l1-1-1-1v1h-1l-1-1v1l1 1-1 1-1-2v1l-1 1v-1l1-2h-1v2l-1-2-1 1 1 1h-2l1 1h2-2l1 2h-1l-1-1v-1h-1l1 2h-1v1h1l-1 1 1 1 1-2h1l-1 1h2l-1 1h-1l-1 1h2l-1 1h1l1-1v1h1l-1-2h1v1l1-1a15 15 0 001 1l-1 1v1l1-1v-1l1 1h1l-1-1h1l1-1h-2-1v-1h2l-1-1h1a74 74 0 011 2v-1c1 0 1 0 0 0v-1h1v-1zm-5 0l1-1h1l-1 1h-1zm-3-1h1l1 1h-1l-1-1zm2 2l-1 1h-1l1-1h1zm1-3v1l-1 1v-1l1-1zm0 4v1h-1v-1-1l1 1zm2 0h-1l-1-1h1l1 1zM221 78h-2l1-2h-1l-1 2h-2l1-2h-2l1-1h3l-1-1h-2l1-2h-1v1h-1l-1-2-1 1h1l1 2-1 2a2512 2512 0 00-2-1l-1 1v-1-1l1-2h-1l-1 2-1-2h-1l1 2h-2v1h3l1 1h-3l1 3h-1v-1l-2-2h-1l2 3h-3 3l-1 2v1l2-3h1l-1 3h2v1h-3v1h2l-1 2h1l1-2 1 2h1l-1-3v-1l2 3 1-3a21 21 0 001 2l-2 2 1 1v-1h1v-1-1l1 2h1l-1-2h2l1-1h-3-1v-1h3l-2-3h2v1a97 97 0 011 2l1-1h-1v-2h2v-1zm-7 0v-1h2v1h-2zm-4-1h1l1 1h-2v-1zm2 2l-1 2h-1v-2h2zm1-4v2s1 0 0 0v1l-1-1 1-2zm0 6v2l-1-2 1-1v1zm3 0h-2v-2h-1 2v1l1 1zM294 529h-2l1-2h-1l-1 2h-1l1-2h-3l1-1h3v-1h-3l2-2h-1-1v1l-2-2v1l1 2v1l-1 1a2512 2512 0 00-2-2v2l-1-1v-1l2-2h-1l-2 1-1-1 1 2h-3l1 1h2l1 1h-3l2 2h-2l-1-2h-1l1 2h-2v1h2l-1 2 1 1 1-3h2l-2 3h3l-1 1h-2l-1 1h3l-1 2 2-2 1 2h1l-2-3 1-1 1 3 1-3h1a21 21 0 000 1l-1 3v1l1-1v-1l1-1 1 2h1l-2-2h3v-1h-3l-1-1h3l-1-3h1v1a97 97 0 012 2v-1l-1-2h2v-1zm-7 0l1-1h1v1h-2zm-4-1h2v1h-1l-1-1zm2 2v2h-2l1-2h1zm1-4l1 1v1l-1 1-1-1 1-2zm1 6l-1 1v0l-1-1 1-1 1 1zm2 0h-1l-1-2h2v2zM109 527h-7l4-7h-4v1l-4 6v1h-5l4-8h-9l2-4h12v-1l-2-2-1-1h-7l4-6-3-1-2 3-1 3-5-7v-1l-2 4 5 7-3 4-4-7-3 3-2 4-2-3-1-1 6-9h-4l-4 6-4-6-2 1 3 7h-9 1l1 3h9l3 4h-9l4 8h-5l-4-7-1-1h-3l4 8h-7v3h7l-3 6 2 3 5-9h5l-4 8h9l-2 4h-9l-2 3h9l-4 7 3 1 3-6h1l3 6h4l-6-9 3-4 5 8 4-8a70 70 0 003 4l-5 7 2 3 1-1 1-2 1-2 2-2 3 6 3-1-4-7h8l1-3h1-11-1l-2-4v-1h10l-5-7h5v1a336 336 0 015 8l2-3-1-2-2-4h-1 8v-4zm-25 0l2-3h6l-1 1a828 828 0 01-2 3h-5v-1zm-14-3h5l3 4h-6l-2-4zm8 7l-3 4h-5l2-4h6zm3-14l2 4v1l-2 4-3-4 3-5zm2 20l-2 5-3-5 2-4h1l2 4zm9-2h-6l-3-4h6l3 4zM304 354h-10l6-10h-5l-1 1-5 9h-7l6-10h-13l4-6h15l-3-4h-10l6-8-4-2-3 4-2 4-6-10-3 4v1l6 9-3 5v1l-6-10-4 5-3 5-3-5v-1l7-12h-5l-5 8-5-8-4 2 5 8h-12v1l3 3v1h12l3 6h-12l6 10h-7v-1l-6-9h-5l6 10h-10v4h10l-5 8 3 4 7-12h7l-6 10h12l-3 6h-12l-2 4h11l-5 8 4 3 5-9h1l4 8h6l-8-12 3-5 7 10 6-10a94 94 0 003 5l-6 10 3 4 1-2 2-3 1-2 2-3 5 8 3-2-5-8h10l3-4h-15v-1l-4-5h13l-6-10h7v1a446 446 0 017 11l2-4v-1l-1-1-3-6v-1h10v-4zm-34 0l3-5h8l-1 2-2 2-1 1h-7zm-19-5h7l3 5h1-8l-3-5zm11 10l-4 5h-7l3-5h8zm4-19l3 6-3 6-4-6 4-6zm3 27l-3 6-4-6v-1l3-5h1l3 6zm11-2h-7v-1l-4-5h8l4 5v1h-1z"/></g></svg>