<svg fill="none" version="1.1" viewBox="0 0 1680 1080" xmlns="http://www.w3.org/2000/svg">
<path d="m0 0h1680v1080h-1680z" fill="#f4f4f4"/>
<mask id="v" x="0" y="0" width="1680" height="1080" maskUnits="userSpaceOnUse">
<path d="M0 0h1680v1080H0z" fill="#F4F4F4"/>
</mask>
<g mask="url(#v)">
<path d="m1346 1013a87 87 0 0 1 74 -41h23a87 87 0 0 1 74 42l32 53c30 38 2 94-46 94h-144c-48 0-76-55-47-94z" fill="url(#p)"/>
<path d="m1357 899a87 87 0 0 1 73 -40h3a87 87 0 0 1 74 41l22 37c25 32 2 78-38 78h-119c-40 0-63-46-39-78z" fill="url(#l)"/>
<path d="m1375 809a67 67 0 0 1 113 1l16 27c19 23 2 58-28 58h-89c-30 0-47-34-29-58z" fill="url(#d)"/>
<path d="m1400 707a34 34 0 0 1 32 -22c14 0 27 9 32 22l14 37c13 27-7 59-37 59h-19c-30 0-50-32-37-59z" fill="url(#c)"/>
<path d="m1256 1002a72 72 0 0 1 61 -33h19a72 72 0 0 1 62 34l26 44c25 32 2 78-38 78h-119c-40 0-63-46-39-78z" fill="url(#b)"/>
<path d="m1265 908a72 72 0 0 1 61 -33h2c25 0 48 13 61 34l19 31c20 26 1 64-32 64h-98c-34 0-53-38-33-64z" fill="url(#u)"/>
<path d="m1280 834a55 55 0 0 1 47 -26 55 55 0 0 1 47 26l13 22c15 20 1 49-24 49h-73c-25 0-39-29-24-49z" fill="url(#t)"/>
<path d="m1301 749a28 28 0 0 1 26 -18c12 0 22 7 27 18l11 31c11 22-5 48-30 48h-16c-25 0-41-26-31-48z" fill="url(#s)"/>
<path d="m1503 904a99 99 0 0 1 83 -45h36a99 99 0 0 1 85 47l41 68c36 47 3 115-56 115h-176c-59 0-93-67-58-115z" fill="url(#r)"/>
<path d="m1515 766a99 99 0 0 1 84 -46h11a99 99 0 0 1 84 47l30 49c30 39 2 95-47 95h-145c-50 0-78-56-48-95z" fill="url(#q)"/>
<path d="m1536 659a81 81 0 0 1 138 1l20 33c22 29 1 71-36 71h-108c-36 0-58-42-36-71z" fill="url(#o)"/>
<path d="m1566 534a42 42 0 0 1 39 -26c17 0 33 11 39 27l17 45c16 33-8 72-45 72h-23c-37 0-61-39-46-72z" fill="url(#n)"/>
<path d="m1556 356c-1-5 5-9 9-5 22 21 57 21 79 0 3-4 10 0 9 5-8 30 10 60 39 68 5 2 5 9 0 11-29 8-47 38-39 68 1 5-6 9-9 5a56 56 0 0 0 -79 0c-4 4-10 0-9-5 7-30-10-60-39-68-5-2-5-9 0-11 29-8 46-38 39-68z" fill="url(#m)"/>
<path d="m1640 426-15-27c-1-2-3-3-5-3h-31a6 6 0 0 0 -5 3l-15 27a6 6 0 0 0 0 6l15 27a6 6 0 0 0 5 3h31c2 0 4-1 5-3l15-27a6 6 0 0 0 0 -6z" fill="#fff"/>
<path d="m-61 973a87 87 0 0 1 73 -40h57a87 87 0 0 1 75 41l49 80c38 50 2 122-60 122h-185c-62 0-98-72-61-122z" fill="url(#k)"/>
<path d="m-48 827a87 87 0 0 1 73 -40h31a87 87 0 0 1 74 41l37 59c31 42 2 101-50 101h-153c-52 0-81-59-50-101z" fill="url(#j)"/>
<path d="m-31 722a86 86 0 0 1 145 2l21 34c23 31 1 75-37 75h-114c-39 0-61-44-38-75z" fill="url(#i)"/>
<path d="m0 591a44 44 0 0 1 82 0l19 48c17 35-9 76-48 76h-24c-39 0-65-41-48-76z" fill="url(#h)"/>
<path d="m122 1002a87 87 0 0 1 74 -40h15a87 87 0 0 1 74 41l29 47c28 36 2 89-44 89h-134c-46 0-72-52-45-89z" fill="url(#g)"/>
<path d="m140 905a75 75 0 0 1 128 1l18 30c21 28 1 67-33 67h-100c-34 0-53-39-33-67z" fill="url(#f)"/>
<path d="m167 789a39 39 0 0 1 73 1l16 42c15 30-8 66-42 66h-21c-34 0-57-35-42-66z" fill="url(#e)"/>
<path d="m1165.1 18.562v1l1 3v2h-1l-1-3-1 1-1 2-1-1a1 1 0 0 1 0 -1l2-3h-2l-1 2-2-2h-1l2 3h-4l1 1h3l2 2h-4l2 3h-3l-1-3h-2l2 3h-3v1h3l-1 3v1l3-4h2l-2 3h4l-1 2h-4l-1 1h4l-2 3 1 1 2-3 1 2h2l-2-3 1-2 2 3 1-3h1v2l-1 3v1l1-1v-1h1v-1l2 2h1l-2-3h3l1-1h-5v-2h3l-1-3h1l1 1a180 180 0 0 1 2 3v-2a44 44 0 0 1 -1 -2h3v-1h-3l2-3h-2l-1 3h-2a90 90 0 0 1 1 -3h-4l2-2h4l-1-1h-3l2-3-1-1-1 2-1 1zm-1 5v1l1 1-1 2a44 44 0 0 0 -2 -2zm-434 1-1 2 2 3v1l-1 2-2-4-2 2-1 2a68 68 0 0 0 -1 -2v-1l3-4h-2l-2 3-2-3-1 1 1 3h-4l1 1h4l2 3h-5l2 4h-2l-2-4h-2l2 4h-4v1h4l-2 4 1 1 3-5h2l-2 4h5l-2 3h-4l-1 1h5l-2 4h1l2-3 2 3h2l-3-5 1-2 3 4 2-4a37 37 0 0 0 1 3 139 139 0 0 0 -2 3l1 2v-1l1-1 1-1v-1l2 3 1-1-1-3h3l1-1h-5v-1l-2-2h5l-2-4h2l1 1a176 176 0 0 1 2 4l1-2-2-3h4v-2h-4l2-3h-2l-2 3v1h-2a99 99 0 0 1 2 -4h-5l2-3h5l-1-1h-3l1-4h-1l-1 1-1 2zm429 2h2l1 2h-2zm7 0h2v1h-1v1h-2zm-6 3h2l-1 2h-2zm5 0h2a34 34 0 0 1 1 2h-2zm-1 1 1 2-1 1-1-1v-1zm-436 1 1 2-1 3-2-3zm295 2-1 2 2 3v1l-1 2-2-4-2 2-1 2a69 69 0 0 0 -1 -2v-1l3-4h-2l-2 3-2-3-1 1 1 3h-4l1 1h4l2 3h-5l2 4h-2l-2-4h-2l2 4h-4v1h4l-2 4 1 1 3-5h2l-2 4h5l-2 3h-4l-1 1h4l-1 4h1l2-3 2 3h2l-3-5 1-2 3 4 2-4 1 2v1l-2 3 1 2v-1l1-1 1-1v-1l2 3 1-1-1-3h3l1-1h-5v-1l-2-2h5l-2-4h2l1 1a174 174 0 0 1 2 4l1-2a48 48 0 0 1 -2 -3h4v-2h-4l2-3h-2l-2 3v1h-2l2-4h-5l2-3h5l-1-1h-3l1-4h-1l-1 1-1 2zm-301 1h3v1l1 2h-3l-1-2zm8 0h3v1l-1 1v1h-3v-1l1-1zm-7 4h3l-1 2v1h-3v-1zm6 0h3l1 2v1h-3zm-1 1 1 2v1l-1 2-2-2v-1zm293 1 1 2-1 3-2-3zm-6 3h3v1l1 2h-3l-1-2zm8 0h3v1l-1 1v1h-3v-1l1-1zm-7 4h3l-1 2v1h-3v-1zm6 0h3a45 45 0 0 1 1 3h-3zm-1 1 1 2v1l-1 2-2-2v-1zm-618 5-1 2 2 4-1 2-3-4-1 2-2 3v-1a77 77 0 0 0 -1 -1 1 1 0 0 1 0 -1l3-5h-2l-2 3-2-3-2 1 2 3h-5l1 2h5l2 3h-5a304 304 0 0 1 2 4h-3l-2-4h-2l2 4h-4v2h4l-2 3 1 2 3-5h3l-2 4h5l-2 3h-4l-2 2h5l-2 3 2 1 2-3 2 3h2l-3-5 1-3 3 5 3-4a41 41 0 0 0 1 2 155 155 0 0 0 -2 4l1 2v-1l1-1 1-1v-1l2 3 2-1-2-3h4l1-2h-6l-2-3h6l-3-4h3a199 199 0 0 1 3 5l1-2-1-1a63 63 0 0 1 -1 -2h4v-2h-4l2-4h-2l-2 4h-3a112 112 0 0 1 3 -4h-6a65 65 0 0 0 2 -3h6l-1-2h-4l2-3-2-1a298 298 0 0 0 -1 1l-1 2zm-3 8 2 2-2 3-1-2zm-6 4h3l1 2h-3zm9 0h3l-1 1v1h-3zm-8 4h3l-1 2h-3zm7 0h3l1 2h-3zm-2 1 2 2v1l-2 2-1-2v-1zm-278 13v1l1 3v2h-1l-1-3-1 1-1 2-1-1a1 1 0 0 1 0 -1l2-3h-2l-1 2-2-2h-1l2 3h-4l1 1h3l2 2h-4l2 3h-3l-1-3h-2l2 3h-3v1h3l-1 3v1l3-4h2l-2 3h4l-1 2h-4l-1 1h4l-2 3 1 1 2-3 1 2h2l-2-3 1-2 2 3 1-3h1a28 28 0 0 0 0 2l-1 3v1l1-1v-1h1v-1l2 2h1l-2-3h3l1-1h-5v-2h3l-1-3h1l1 1a135 135 0 0 1 2 3v-2a45 45 0 0 1 -1 -2h3v-1h-3l2-3h-2l-1 3h-2a77 77 0 0 1 1 -3h-4l2-2h4l-1-1h-3l2-3-1-1-1 2-1 1zm-1 5v1l1 1-1 2a44 44 0 0 0 -2 -2zm1395 1-1 1v1l-1 1v1l-2-3-1 1 1 3h-3l-1 1h5v1l2 2h-5l2 4h-2l-1-1-2-4-1 2a48 48 0 0 1 2 3h-4v2h4l-2 3h2l2-3v-1h2a98 98 0 0 1 -2 4h5l-2 3h-5l1 1h3l-1 4h1l1-1 1-2 2 4 1-2-2-3v-1l1-2 2 4 2-2 1-2a69 69 0 0 0 1 2v1l-3 4h2l2-3 2 3 1-1-1-3h4l-1-1h-4l-2-3h5l-2-4h2l2 4h2l-2-4h4v-1h-4l2-4-1-1-3 5h-2l2-4h-5l2-3h4l1-1h-5l2-4h-1l-2 3-2-3h-2l3 5-1 2-3-4-2 4-1-2v-1l2-3zm-1400 2h2l1 2h-2zm7 0h2v1h-1v1h-2zm-6 3h2l-1 2h-2zm5 0h2l1 2h-2zm-1 1 1 2-1 1-1-1v-1zm1184 0v1l1 3v2h-1l-1-3-1 1-1 2-1-1a1 1 0 0 1 0 -1l2-3h-2l-1 2-2-2h-1l2 3h-4l1 1h3l2 2h-4l2 3h-3l-1-3h-2l2 3h-3v1h3l-1 3v1l3-4h2l-2 3h4l-1 2h-4l-1 1h4l-2 3 1 1 2-3 1 2h2l-2-3 1-2 2 3 1-3h1v2l-1 3v1l1-1v-1h1v-1l2 2h1l-2-3h3l1-1h-5v-2h3l-1-3h1l1 1a180 180 0 0 1 2 3v-2a44 44 0 0 1 -1 -2h3v-1h-3l2-3h-2l-1 3h-2a90 90 0 0 1 1 -3h-4l2-2h4l-1-1h-3l2-3-1-1-1 2-1 1zm213 1 2 2v1l-2 2-1-2v-1zm-5 3h3l1 3h-3l-1-2zm8 0h3v1l-1 2h-3l1-2zm-217 1v1l1 1a44 44 0 0 0 -1 2l-2-2zm-5 3h2l1 2h-2zm7 0h2v1h-1v1h-2zm208 0h3v1l-1 1v1h-3v-1l1-1zm6 0h3l1 2v1h-3v-1zm-2 1 2 3-2 2-1-2zm-218 2h2l-1 2h-2zm5 0h2a34 34 0 0 1 1 2h-2zm-1 1 1 2-1 1-1-1v-1zm-358 9v1l1 3v2h-1l-1-3-1 1-1 2-1-1a1 1 0 0 1 0 -1l2-3h-2l-1 2-2-2h-1l2 3h-4l1 1h3l2 2h-4l2 3h-3l-1-3h-2l2 3h-3v1h3l-1 3v1l3-4h2l-2 3h4l-1 2h-4l-1 1h4l-2 3 1 1 2-3 1 2h2l-2-3 1-2a135 135 0 0 1 2 3l1-3h1a28 28 0 0 0 0 2 107 107 0 0 0 -1 3v1l1-1v-1h1v-1l2 2h1l-2-3h3l1-1h-5v-2h3l-1-3h1l1 1a135 135 0 0 1 2 3v-2a45 45 0 0 1 -1 -2h3v-1h-3l2-3h-2l-1 3h-2a77 77 0 0 1 1 -3h-4l2-2h4l-1-1h-3l2-3-1-1-1 2-1 1zm-1 5v1l1 1-1 2a44 44 0 0 0 -2 -2zm-5 3h2l1 2h-2zm7 0h2a4 4 0 0 1 0 1h-1v1h-2zm-6 3h2l-1 2h-2zm5 0h2l1 2h-2zm-1 1 1 2-1 1-1-1v-1zm-580 9v1l1 3v2h-1l-1-3-1 1-1 2-1-1a1 1 0 0 1 0 -1l2-3h-2l-1 2-2-2h-1l2 3h-4l1 1h3l2 2h-4l2 3h-3l-1-3h-2l2 3h-3v1h3l-1 3v1l3-4h2l-2 3h4l-1 2h-4l-1 1h4l-2 3 1 1 2-3 1 2h2l-2-3 1-2a135 135 0 0 1 2 3l1-3h1a28 28 0 0 0 0 2 107 107 0 0 0 -1 3v1l1-1v-1h1v-1l2 2h1l-2-3h3l1-1h-5v-2h3l-1-3h1l1 1a135 135 0 0 1 2 3v-2a45 45 0 0 1 -1 -2h3v-1h-3l2-3h-2l-1 3h-2a77 77 0 0 1 1 -3h-4l2-2h4l-1-1h-3l2-3-1-1-1 2-1 1zm-1 5v1l1 1-1 2a44 44 0 0 0 -2 -2zm1239 1-1 2-1 1-1 2-1 1-3-5-2 1 3 6h-6l-2 2v1h9l2 3h-8l4 7h-4v-1l-4-7-2 3 1 1a95 95 0 0 1 2 4h-6v3h6l-4 6h4v-1l3-5h4l-3 6h7l-2 4h-9l2 2h6l-3 6 2 1 1-3 2-2 3 6h1l1-3-3-6 1-3 4 6 2-3 2-4v1a116 116 0 0 0 2 3l-4 8h3l3-5 3 5 2-1-3-6h8l-2-2h-7l-2-4h7l-3-7h4v1l3 5 1 1h3l-4-7h6v-2h-6l3-6-2-2-4 8h-5l4-7h-7l2-3v-1h7l1-2h-7l3-6-2-1-3 5-3-5h-3l4 8-2 4-4-7-4 6a54 54 0 0 0 -1 -3l3-6zm-1244 2h2l1 2h-2zm7 0h2a4 4 0 0 1 0 1h-1v1h-2zm-6 3h2l-1 2h-2zm5 0h2l1 2h-2zm-1 1 1 2-1 1-1-1v-1zm1242 6 2 3v1l-2 3-2-3v-1zm-967 3v1l1 3v2h-1l-1-3-1 1-1 2-1-1a1 1 0 0 1 0 -1l2-3h-2l-1 2-2-2h-1l2 3h-4l1 1h3l2 2h-4l2 3h-3l-1-3h-2l2 3h-3v1h3l-1 3v1l3-4h2l-2 3h4l-1 2h-4l-1 1h4l-2 3 1 1 2-3 1 2h2l-2-3 1-2a135 135 0 0 1 2 3l1-3h1a28 28 0 0 0 0 2 107 107 0 0 0 -1 3v1l1-1v-1h1v-1l2 2h1l-2-3h3l1-1h-5v-2h3l-1-3h1l1 1a135 135 0 0 1 2 3v-2a45 45 0 0 1 -1 -2h3v-1h-3l2-3h-2l-1 3h-2a77 77 0 0 1 1 -3h-4l2-2h4l-1-1h-3l2-3-1-1-1 2-1 1zm958 2h5l2 4h-5v-1zm14 0h4l-2 4h-4zm-973 3v1l1 1-1 2a44 44 0 0 0 -2 -2zm-5 3h2l1 2h-2zm7 0h2a4 4 0 0 1 0 1h-1v1h-2zm959 0h5v1l-2 3h-5l1-1 1-1zm10 0h4v1l2 3h-4l-2-3zm-3 2 3 4-3 4v-1l-2-3zm-972 1h2l-1 2h-2zm5 0h2l1 2h-2zm-1 1 1 2-1 1-1-1v-1zm-439 16-1 3 3 6-1 3-4-6-2 3-2 4v-1l-2-2v-1l4-8h-3l-3 5-3-5-2 1 3 6h-8l2 2h7l2 4h-7l3 7h-4v-1l-3-5-1-1h-3l4 7h-6v2h6l-3 6 2 2 4-8h5l-4 7h7l-2 3v1h-7l-1 2h7l-3 6 2 1 3-5 3 5h3l-4-8 2-4 4 7 4-6a60 60 0 0 0 1 3 230 230 0 0 0 -3 6l1 3 1-2 1-1 1-2 1-1 3 5 2-1-3-6h6l2-2v-1h-9l-2-3h8l-4-7h4v1a293 293 0 0 1 4 7l2-3-1-1-2-4h6v-3h-6l4-6h-4v1l-3 5h-4a162 162 0 0 1 3 -6h-7l2-4h9l-2-2h-6l3-6-2-1-1 3-2 2-3-6zm-3 11v1l2 3-2 4-3-4zm1298 1v1l1 3v2h-1l-1-3-1 1-1 2-1-1a1 1 0 0 1 0 -1l2-3h-2l-1 2-2-2h-1l2 3h-4l1 1h3l2 2h-4l2 3h-3l-1-3h-2l2 3h-3v1h3l-1 3v1l3-4h2l-2 3h4l-1 2h-4l-1 1h4l-2 3 1 1 2-3 1 2h2l-2-3 1-2 2 3 1-3h1v2l-1 3v1l1-1v-1h1v-1l2 2h1l-2-3h3l1-1h-5v-2h3a509 509 0 0 0 -1 -3h1l1 1a180 180 0 0 1 2 3v-2l-1-2h3v-1h-3l2-3h-2l-1 3h-2a90 90 0 0 1 1 -3h-4l2-2h4l-1-1h-3l2-3-1-1-1 2-1 1zm-1307 5h4l2 3v1h-4v-1zm13 0h5l-1 1-1 1v2h-5v-1zm849 0-1 2 2 3v1l-1 2-2-4-2 2-1 2a68 68 0 0 0 -1 -2v-1l3-4h-2l-2 3-2-3-1 1 1 3h-4l1 1h4l2 3h-5l2 4h-2l-2-4h-2l2 4h-4v1h4l-2 4 1 1 3-5h2l-2 4h5l-2 3h-4l-1 1h4l-1 4h1l2-3 2 3h2l-3-5 1-2 3 4 2-4 1 2v1l-2 3 1 2v-1l1-1 1-1v-1l2 3 1-1-1-3h3l1-1h-5v-1l-2-2h5l-2-4h2l1 1a174 174 0 0 1 2 4l1-2-2-3h4v-2h-4l2-3h-2l-2 3v1h-2a98 98 0 0 1 2 -4h-5l2-3h5l-1-1h-3l1-4h-1l-1 1-1 2zm444 0v1l1 1-1 2-2-2zm-5 3h2l1 2h-2zm7 0h2v1h-1v1h-2zm-1306 3h4l-2 4h-4zm9 0h5v1a74 74 0 0 1 2 3h-5zm1291 0h2l-1 2h-2zm5 0h2a34 34 0 0 1 1 2h-2zm-447 1 1 2-1 3-2-3zm446 0 1 2-1 1-1-1v-1zm-1297 1 2 3v1l-2 3-2-3v-1zm845 2h3v1l1 2h-3l-1-2zm8 0h3v1l-1 1v1h-3v-1l1-1zm185 2-2 3 4 7v1l-2 3-4-7-3 4-2 4v-1l-2-3v-1l5-8v-1h-4l-3 6-4-6-3 2 4 6h-8l1 3h9l2 5h-9l5 7h-5l-4-7h-4l4 7h-7v3h7l-3 6 2 3 5-9h5l-4 8h8l-2 4h-9l-1 3h8l-3 6 2 2 4-6 3 5 1 1h3l-5-10 2-4 5 8 4-7a67 67 0 0 0 2 4l-4 7 2 3 1-2 1-2 1-2 1-1 4 6 3-2-4-6h7l2-3h-11l-2-4v-1h9l-5-7h5l1 1 4 8 2-3-1-2-2-4h7v-3h-7l4-8h-4v1l-4 6v1h-4l4-8h-9l2-4h11l-2-3h-7l4-6-3-2a689 689 0 0 0 -4 6zm-192 2h3l-1 2v1h-3v-1zm6 0h3a45 45 0 0 1 1 3h-3zm-1 1 1 2v1l-1 2-2-2v-1zm-272 1v1l1 3v2h-1l-1-3-1 1-1 2-1-1a1 1 0 0 1 0 -1l2-3h-2l-1 2-2-2h-1l2 3h-4l1 1h3l2 2h-4l2 3h-3l-1-3h-2l2 3h-3v1h3l-1 3v1l3-4h2l-2 3h4l-1 2h-4l-1 1h4l-2 3 1 1 2-3 1 2h2l-2-3 1-2a135 135 0 0 1 2 3l1-3h1a28 28 0 0 0 0 2 107 107 0 0 0 -1 3v1l1-1v-1h1v-1l2 2h1l-2-3h3l1-1h-5v-2h3l-1-3h1l1 1a135 135 0 0 1 2 3v-2a45 45 0 0 1 -1 -2h3v-1h-3l2-3h-2l-1 3h-2a77 77 0 0 1 1 -3h-4l2-2h4l-1-1h-3l2-3-1-1-1 2-1 1zm-1 5v1l1 1-1 2a44 44 0 0 0 -2 -2zm-5 3h2l1 2h-2zm7 0h2a4 4 0 0 1 0 1h-1v1h-2zm454 1 2 4v1l-2 4-3-4zm-460 2h2l-1 2h-2zm5 0h2l1 2h-2zm-1 1 1 2-1 1-1-1v-1zm445 4h6l2 4h-6zm16 0h5v1l-1 1-1 2h-5zm341 6-4 6h1l8 14v1l-5 7v1l-9-15-5 8-5 7-4-7v-1l10-18h-7l-7 12-8-12-6 3 8 12h-18l4 6h18l5 9h-19l9 15h-9l-1-1-8-13-1-1h-7l9 15h-15v6h15l-7 12 4 6 11-18h10l-9 15h18l-5 9h-18l-3 6h17l-7 12 5 4 8-13v1l7 11h8l-11-18 5-8 9 16 9-16v1a135 135 0 0 0 5 8 551 551 0 0 0 -9 13v1l4 6 2-4 2-3 2-4 3-4 7 12 5-3-7-12h15l3-6h-21l-1-1-5-8h19l-9-15h10l1 2a677 677 0 0 1 9 16h1l3-6v-1l-1-2-6-9v-1h15v-6h-15l9-14h-7l-1 1-8 13h-10l9-14h-19l5-9h22v-1l-3-5h-15l8-13-6-3a833 833 0 0 0 -4 6l-3 6zm-354 1h5l-2 4h-6zm10 0h6l2 4h-5zm-2 2 2 4-2 5v-1l-3-4zm337 24 5 8-5 9v1l-6-9zm-880 1-1 2 2 3v1l-1 2-2-4-2 2-1 2a67 67 0 0 0 -1 -2v-1l3-4h-2l-2 3-2-3-1 1 1 3h-4l1 1h4l2 3h-5l2 4h-2l-2-4h-2l2 4h-4v1h4l-2 4 1 1 3-5h2l-2 4h5l-2 3h-4l-1 1h5l-2 4h1l2-3 2 3h2l-3-5 1-2 3 4 2-4a37 37 0 0 0 1 3 139 139 0 0 0 -2 3l1 2v-1l1-1 1-1v-1l2 3 1-1-1-3h3l1-1h-5v-1l-2-2h5l-2-4h2l1 1a174 174 0 0 1 2 4l1-2-2-3h4v-2h-4l2-3h-2l-2 3v1h-2a99 99 0 0 1 2 -4h-5l2-3h5l-1-1h-3l1-4h-1l-1 1-1 2zm-2 7 1 2-1 3-2-3zm-6 3h3v1l1 2h-3l-1-2zm8 0h3v1l-1 1v1h-3v-1l1-1zm858 1h11v1l5 7v1h-10l-1-1-4-7zm33 0h11l-2 3-1 3-2 3h-11v-1l4-7zm-898 3h3l-1 2v1h-3v-1zm6 0h3a47 47 0 0 1 1 3h-3zm-1 1 1 2v1l-1 2-2-2v-1zm640 6-1 2 2 3v1l-1 2-2-4-2 2-1 2a68 68 0 0 0 -1 -2v-1l3-4h-2l-2 3-2-3-1 1 1 3h-4l1 1h4l2 3h-5l2 4h-2l-2-4h-2l2 4h-4v1h4l-2 4 1 1 3-5h2l-2 4h5l-2 3h-4l-1 1h4l-1 4h1l2-3 2 3h2l-3-5 1-2 3 4 2-4 1 2v1l-2 3 1 2v-1l1-1 1-1v-1l2 3 1-1-1-3h3l1-1h-5v-1l-2-2h5l-2-4h2l1 1a174 174 0 0 1 2 4l1-2-2-3h4v-2h-4l2-3h-2l-2 3v1h-2a98 98 0 0 1 2 -4h-5l2-3h5l-1-1h-3l1-4h-1l-1 1-1 2zm225 5h11l-5 8h-10zm23 0h10l1 1 5 7v1h-11l-1-1zm-250 2 1 2-1 3-2-3zm-963 1-1 2 2 4-1 2-3-4-1 2-2 3v-1a75 75 0 0 0 -1 -1 1 1 0 0 1 0 -1l3-5h-2l-2 3-2-3-2 1 2 3h-5l1 2h5l2 3h-5a304 304 0 0 1 2 4h-3l-2-4h-2l2 4h-4v2h4l-2 3 1 2 3-5h3l-2 4h5l-2 3h-4l-2 2h5l-2 3 2 1 2-3 2 3h2l-3-5 1-3 3 5 3-4a41 41 0 0 0 1 2 157 157 0 0 0 -2 4l1 2v-1l1-1 1-1v-1l2 3 2-1-2-3h4l1-2h-6l-2-3h6l-3-4h3a199 199 0 0 1 3 5l1-2-1-1a63 63 0 0 1 -1 -2h4v-2h-4l2-4h-2l-2 4h-3l3-4h-6a65 65 0 0 0 2 -3h6l-1-2h-4l2-3-2-1-1 1-1 2zm1207 0 5 9v1l-5 8-5-9v-1zm-250 2h3v1l1 2h-3l-1-2zm8 0h3v1l-1 1v1h-3v-1l1-1zm-7 4h3l-1 2v1h-3v-1zm6 0h3a45 45 0 0 1 1 3h-3zm-1 1 1 2v1l-1 2-2-2v-1zm-966 1 2 2-2 3-1-2zm-6 4h3l1 2h-3zm9 0h3l-1 1v1h-3zm-8 4h3l-1 2h-3zm7 0h3l1 2h-3zm-2 1 2 2v1l-2 2-1-2v-1zm-211 37-3 5v1l7 12v1l-4 6-8-13-4 7-4 7-1-1-3-5-1-1v-1l10-15h-7l-6 10-7-11-5 3 7 11h-16l3 5h16l5 8h-16l7 13h-9l-7-12h-7l8 12h-13v6h13l-6 10 3 6 10-16h9l-8 13h16l-5 7v1h-15l-3 5h15l-6 11 4 3 7-11 6 10h7l-10-16 5-7 8 14 8-13a123 123 0 0 0 4 7 462 462 0 0 0 -7 12h-1l4 6 2-3 2-4 1-3 2-3 7 11 5-3-7-11h13l3-5v-1h-19l-5-7h17l-8-14h8v1l1 1a583 583 0 0 1 9 14l3-5-1-3-5-7v-1h13v-5h-13l8-13h-7v1l-7 11-1 1h-8l8-13h-17l5-8h19l-3-5h-13l7-11-5-3a830 830 0 0 0 -3 5l-4 6zm288 16-2 4 5 8-3 4v1l-5-9-3 5-3 4-2-4v-1l6-10h-4l-5 7-4-8-3 2 4 7h-10l1 1 1 3h10l3 5h-10l5 9h-5l-1-1-4-7-1-1h-4l5 9h-8v3h8l-4 7 2 4 7-11h5l-5 9h10l-2 5h-10l-2 4h9l-4 7 3 2 5-8v1l4 6h4l-6-10 3-5 5 9 5-9v1a81 81 0 0 0 2 4 308 308 0 0 0 -4 8l2 4 1-2 1-2 1-2 2-3 4 8 3-2-4-7h7l1-1 2-3h-13l-2-5h10l-5-9h6v1a382 382 0 0 1 6 10v-1l2-3-1-2-3-5h8v-4h-8l5-8h-5l-4 8h-6a218 218 0 0 1 5 -8h-10l3-5h12l-2-4h-8l4-7-3-2a527 527 0 0 0 -2 4l-2 3zm644 6-1 2 2 3v1l-1 2-2-4-2 2-1 2a68 68 0 0 0 -1 -2v-1l3-4h-2l-2 3-2-3-1 1 1 3h-4l1 1h4l2 3h-5l2 4h-2l-2-4h-2l2 4h-4v1h4l-2 4 1 1 3-5h2l-2 4h5l-2 3h-4l-1 1h4l-1 4h1l2-3 2 3h2l-3-5 1-2 3 4 2-4 1 2v1l-2 3 1 2v-1l1-1 1-1v-1l2 3 1-1-1-3h3l1-1h-5v-1l-2-2h5l-2-4h2l1 1a174 174 0 0 1 2 4l1-2-2-3h4v-2h-4l2-3h-2l-2 3v1h-2a98 98 0 0 1 2 -4h-5l2-3h5l-1-1h-3l1-4h-1l-1 1-1 2zm517 0-1 1v1l-1 1v1l-2-3-1 1 1 3h-3l-1 1h5v1l2 2h-5l2 4h-2l-1-1-2-4-1 2a48 48 0 0 1 2 3h-4v2h4l-2 3h2l2-3v-1h2a98 98 0 0 1 -2 4h5l-2 3h-5l1 1h3l-1 4h1l1-1 1-2 2 4 1-2-2-3v-1l1-2 2 4 2-2 1-2a68 68 0 0 0 1 2v1l-3 4h2l2-3 2 3 1-1-1-3h4l-1-1h-4l-2-3h5l-2-4h2l2 4h2l-2-4h4v-1h-4l2-4-1-1-3 5h-2l2-4h-5l2-3h4l1-1h-5l2-4h-1l-2 3-2-3h-2l3 5-1 2-3-4-2 4-1-2v-1l2-3zm-1457 1v1l5 7-5 8-5-7zm744 4-1 2 2 3v1l-1 2-2-4-2 2-1 2a67 67 0 0 0 -1 -2v-1l3-4h-2l-2 3-2-3-1 1 1 3h-4l1 1h4l2 3h-5l2 4h-2l-2-4h-2l2 4h-4v1h4l-2 4 1 1 3-5h2l-2 4h5l-2 3h-4l-1 1h5l-2 4h1l2-3 2 3h2l-3-5 1-2 3 4 2-4a37 37 0 0 0 1 3 139 139 0 0 0 -2 3l1 2v-1l1-1 1-1v-1l2 3 1-1-1-3h3l1-1h-5v-1l-2-2h5l-2-4h2l1 1a174 174 0 0 1 2 4l1-2-2-3h4v-2h-4l2-3h-2l-2 3v1h-2a99 99 0 0 1 2 -4h-5l2-3h5l-1-1h-3l1-4h-1l-1 1-1 2zm194 2 1 2-1 3-2-3zm521 0 2 2v1l-2 2-1-2v-1zm-1275 1v1l1 3v2h-1l-1-3-1 1-1 2-1-1a1 1 0 0 1 0 -1l2-3h-2l-1 2-2-2h-1l2 3h-4l1 1h3l2 2h-4l2 3h-3l-1-3h-2l2 3h-3v1h3l-1 3v1l3-4h2l-2 3h4l-1 2h-4l-1 1h4l-2 3 1 1 2-3 1 2h2l-2-3 1-2a135 135 0 0 1 2 3l1-3h1a28 28 0 0 0 0 2 107 107 0 0 0 -1 3v1l1-1v-1h1v-1l2 2h1l-2-3h3l1-1h-5v-2h3l-1-3h1l1 1a135 135 0 0 1 2 3v-2a45 45 0 0 1 -1 -2h3v-1h-3l2-3h-2l-1 3h-2a77 77 0 0 1 1 -3h-4l2-2h4l-1-1h-3l2-3-1-1-1 2-1 1zm107 1v1l3 4v1l-3 5-3-5zm641 1h3v1l1 2h-3l-1-2zm8 0h3v1l-1 1v1h-3v-1l1-1zm514 0h3l1 3h-3l-1-2zm8 0h3v1l-1 2h-3l1-2zm-720 2 1 2-1 3-2-3zm-761 1h9l5 7h-10zm28 0h10l-1 2a1307 1307 0 0 1 -3 5h-10zm174 0v1l1 1-1 2a44 44 0 0 0 -2 -2zm750 1h3l-1 2v1h-3v-1zm6 0h3a45 45 0 0 1 1 3h-3zm516 0h3v1l-1 1v1h-3v-1l1-1zm6 0h3l1 2v1h-3v-1zm-725 1h3v1l1 2h-3l-1-2zm8 0h3v1l-1 1v1h-3v-1l1-1zm194 0 1 2v1l-1 2-2-2v-1zm521 0 2 3-2 2-1-2zm-1281 1h2l1 2h-2zm7 0h2a4 4 0 0 1 0 1h-1v1h-2zm94 1h6l2 4v1h-5l-1-1zm18 0h6l-1 1-1 2-1 2h-6v-1zm-118 2h2l-1 2h-2zm5 0h2l1 2h-2zm553 0h3l-1 2v1h-3v-1zm6 0h3a47 47 0 0 1 1 3h-3zm-560 1 1 2-1 1-1-1v-1zm559 0 1 2v1l-1 2-2-2v-1zm-460 5h5l-2 5h-6zm12 0h6v1a100 100 0 0 1 3 4h-6zm-309 1h10l-4 7h-10zm20 0h10l4 7h-10zm286 1 3 5v1l-3 4-3-5zm-291 2 5 7-1 1-4 7-5-7v-1zm476 8-1 2 2 3v1l-1 2-2-4-2 2-1 2a67 67 0 0 0 -1 -2v-1l3-4h-2l-2 3-2-3-1 1 1 3h-4l1 1h4l2 3h-5l2 4h-2l-2-4h-2l2 4h-4v1h4l-2 4 1 1 3-5h2l-2 4h5l-2 3h-4l-1 1h5l-2 4h1l2-3 2 3h2l-3-5 1-2 3 4 2-4a37 37 0 0 0 1 3 139 139 0 0 0 -2 3l1 2v-1l1-1 1-1v-1l2 3 1-1-1-3h3l1-1h-5v-1l-2-2h5l-2-4h2l1 1a174 174 0 0 1 2 4l1-2-2-3h4v-2h-4l2-3h-2l-2 3v1h-2a99 99 0 0 1 2 -4h-5l2-3h5l-1-1h-3l1-4h-1l-1 1-1 2zm-2 7 1 2-1 3-2-3zm-6 3h3v1l1 2h-3l-1-2zm8 0h3v1l-1 1v1h-3v-1l1-1zm-7 4h3l-1 2v1h-3v-1zm6 0h3a47 47 0 0 1 1 3h-3zm689 0-4 6h1l8 14v1l-5 7v1l-9-15-5 8-5 7-4-7v-1l10-18h-7l-7 12-8-12-6 3 8 12h-18l4 6h18l5 9h-19l9 15h-9l-1-1-8-13-1-1h-7l9 15h-15v6h15l-7 12 4 6 11-18h10l-9 15h18l-5 9h-18l-3 6h17l-7 12 5 4 8-13v1l7 11h8l-11-18 5-8 9 16 9-16v1a135 135 0 0 0 5 8 551 551 0 0 0 -9 13v1l4 6 2-4 2-3 2-4 3-4 7 12 5-3-7-12h15l3-6h-21l-1-1-5-8h19l-9-15h10l1 2a677 677 0 0 1 9 16h1l3-6v-1l-1-2-6-9v-1h15v-6h-15l9-14h-7l-1 1-8 13h-10l9-14h-19l5-9h22v-1l-3-5h-15l8-13-6-3a833 833 0 0 0 -4 6l-3 6zm-690 1 1 2v1l-1 2-2-2v-1zm681 26 5 8-5 9v1l-6-9zm-22 12h11v1l5 7v1h-10l-1-1-4-7zm33 0h11l-2 3-1 3-2 3h-11v-1l4-7zm-28 15h11l-5 8h-10zm23 0h10l1 1 5 7v1h-11l-1-1zm-6 3 5 9v1l-5 8-5-9v-1zm-115 6-1 2 2 3v1l-1 2-2-4-2 2-1 2a68 68 0 0 0 -1 -2v-1l3-4h-2l-2 3-2-3-1 1 1 3h-4l1 1h4l2 3h-5l2 4h-2l-2-4h-2l2 4h-4v1h4l-2 4 1 1 3-5h2l-2 4h5l-2 3h-4l-1 1h4l-1 4h1l2-3 2 3h2l-3-5 1-2 3 4 2-4 1 2v1l-2 3 1 2v-1l1-1 1-1v-1l2 3 1-1-1-3h3l1-1h-5v-1l-2-2h5l-2-4h2l1 1a174 174 0 0 1 2 4l1-2-2-3h4v-2h-4l2-3h-2l-2 3v1h-2a98 98 0 0 1 2 -4h-5l2-3h5l-1-1h-3l1-4h-1l-1 1-1 2zm-2 7 1 2-1 3-2-3zm-6 3h3v1l1 2h-3l-1-2zm8 0h3v1l-1 1v1h-3v-1l1-1zm351 1-1 1v1h-1v1l-2-2h-1l2 3h-3l-1 1h5l1 2h-4a509 509 0 0 0 2 3h-2l-1-1-2-3v2a44 44 0 0 1 1 2h-3v1h3l-2 3h2l1-3h2a90 90 0 0 1 -1 3h4l-2 2h-4l1 1h3l-2 3 1 1 1-2 1-1 2 3v-1l-1-3v-2h1l1 3 1-1 1-2 1 1v1l-2 3h2l1-2 2 2h1l-2-3h4l-1-1h-3l-2-2h4l-2-3h3l1 3h2l-2-3h3v-1h-3l1-3v-1l-3 4h-2l2-3h-4l1-2h4l1-1h-4l2-3-1-1-2 3-1-2h-2l2 3-1 2-2-3-1 3h-1v-2l1-3zm-358 3h3l-1 2v1h-3v-1zm6 0h3a45 45 0 0 1 1 3h-3zm-1 1 1 2v1l-1 2-2-2v-1zm354 2 1 1v1l-1 1-1-2zm-4 2h2l1 2h-2zm7 0h2l-1 2h-2zm-6 3h2l-1 2h-2v-1h1zm5 0h2l1 2h-2zm-2 1 2 2-2 2v-1l-1-1zm-1074 16v1l1 3v2h-1l-1-3-1 1-1 2-1-1a1 1 0 0 1 0 -1l2-3h-2l-1 2-2-2h-1l2 3h-4l1 1h3l2 2h-4l2 3h-3l-1-3h-2l2 3h-3v1h3l-1 3v1l3-4h2l-2 3h4l-1 2h-4l-1 1h4l-2 3 1 1 2-3 1 2h2l-2-3 1-2a135 135 0 0 1 2 3l1-3h1a28 28 0 0 0 0 2 107 107 0 0 0 -1 3v1l1-1v-1h1v-1l2 2h1l-2-3h3l1-1h-5v-2h3l-1-3h1l1 1a135 135 0 0 1 2 3v-2a45 45 0 0 1 -1 -2h3v-1h-3l2-3h-2l-1 3h-2a77 77 0 0 1 1 -3h-4l2-2h4l-1-1h-3l2-3-1-1-1 2-1 1zm-1 5v1l1 1-1 2a44 44 0 0 0 -2 -2zm-5 3h2l1 2h-2zm7 0h2a4 4 0 0 1 0 1h-1v1h-2zm-52 3-5 9 12 21v1l-7 11-13-22-7 12-7 11-1-1-5-9-1-2v-1l15-25v-1h-10l-11 18-11-18-8 4 11 18h-26v1l5 8h26l8 14h-27l13 21h-14l-1-1-12-20h-11l12 21h-21v9h22l-11 18 6 9 16-27h14l-13 22h27l-7 12-1 1h-25l-5 9h25l-11 18 9 4 10-18 1 1 10 16 1 1h10l-16-27 7-11 14 22 13-22a204 204 0 0 0 7 12 763 763 0 0 0 -12 20l-1 1 6 9 3-5 3-6 3-5 3-6 11 18 8-4-11-18h20l2-1 4-8 1-1h-33l-7-12v-1h28l-13-21h14l1 3a965 965 0 0 1 14 23h1l5-9v-1l-3-3-7-13-1-1h22v-9h-21l12-21h-10l-1 1-12 20h-14l13-21h-28l8-13h32v-1l-5-8h-22l11-18-8-5-5 9-6 9zm46 0h2l-1 2h-2zm5 0h2l1 2h-2zm-1 1 1 2-1 1-1-1v-1zm857 36-1 2 2 3v1l-1 2-2-4-2 2-1 2a68 68 0 0 0 -1 -2v-1l3-4h-2l-2 3-2-3-1 1 1 3h-4l1 1h4l2 3h-5l2 4h-2l-2-4h-2l2 4h-4v1h4l-2 4 1 1 3-5h2l-2 4h5l-2 3h-4l-1 1h4l-1 4h1l2-3 2 3h2l-3-5 1-2 3 4 2-4 1 2v1l-2 3 1 2v-1l1-1 1-1v-1l2 3 1-1-1-3h3l1-1h-5v-1l-2-2h5l-2-4h2l1 1a174 174 0 0 1 2 4l1-2-2-3h4v-2h-4l2-3h-2l-2 3v1h-2a98 98 0 0 1 2 -4h-5l2-3h5l-1-1h-3l1-4h-1l-1 1-1 2zm-920 2 8 12v1l-8 13h-1l-7-13zm918 5 1 2-1 3-2-3zm-6 3h3v1l1 2h-3l-1-2zm8 0h3v1l-1 1v1h-3v-1l1-1zm-7 4h3l-1 2v1h-3v-1zm6 0h3a45 45 0 0 1 1 3h-3zm-1 1 1 2v1l-1 2-2-2v-1zm-950 5h15l1 1 7 11v1h-15l-1-1-6-11zm48 0h16l-3 5-2 4-3 4h-16v-1l7-11zm-40 22h15l-7 12h-15zm32 0h15l2 1a251 251 0 0 1 7 11h-17zm287 3-1 2 2 3v1l-1 2-2-4-2 2-1 2a67 67 0 0 0 -1 -2v-1l3-4h-2l-2 3-2-3-1 1 1 3h-4l1 1h4l2 3h-5l2 4h-2l-2-4h-2l2 4h-4v1h4l-2 4 1 1 3-5h2l-2 4h5l-2 3h-4l-1 1h5l-2 4h1l2-3 2 3h2l-3-5 1-2 3 4 2-4a37 37 0 0 0 1 3 139 139 0 0 0 -2 3l1 2v-1l1-1 1-1v-1l2 3 1-1-1-3h3l1-1h-5v-1l-2-2h5l-2-4h2l1 1a174 174 0 0 1 2 4l1-2-2-3h4v-2h-4l2-3h-2l-2 3v1h-2a99 99 0 0 1 2 -4h-5l2-3h5l-1-1h-3l1-4h-1l-1 1-1 2zm-296 1 1 1 7 12v1l-7 13-1-1-7-12v-1l7-12zm294 6 1 2-1 3-2-3zm-6 3h3v1l1 2h-3l-1-2zm8 0h3v1l-1 1v1h-3v-1l1-1zm-7 4h3l-1 2v1h-3v-1zm6 0h3a47 47 0 0 1 1 3h-3zm950 0-4 6h1l8 14v1l-5 7v1l-9-15-5 8-5 7-4-7v-1l10-18h-7l-7 12-8-12-6 3 8 12h-18l4 6h18l5 9h-19l9 15h-9l-1-1-8-13-1-1h-7l9 15h-15v6h15l-7 12 4 6 11-18h10l-9 15h18l-5 9h-18l-3 6h17l-7 12 5 4 8-13v1l7 11h8l-11-18 5-8 9 16 9-16v1a135 135 0 0 0 5 8 551 551 0 0 0 -9 13v1l4 6 2-4 2-3 2-4 3-4 7 12 5-3-7-12h15l3-6h-21l-1-1-5-8h19l-9-15h10l1 2a677 677 0 0 1 9 16h1l3-6v-1l-1-2-6-9v-1h15v-6h-15l9-14h-7l-1 1-8 13h-10l9-14h-19l5-9h22v-1l-3-5h-15l8-13-6-3a833 833 0 0 0 -4 6l-3 6zm-951 1 1 2v1l-1 2-2-2v-1zm666 15v1l1 3v2h-1l-1-3-1 1-1 2-1-1a1 1 0 0 1 0 -1l2-3h-2l-1 2-2-2h-1l2 3h-4l1 1h3l2 2h-4l2 3h-3l-1-3h-2l2 3h-3v1h3l-1 3v1l3-4h2l-2 3h4l-1 2h-4l-1 1h4l-2 3 1 1 2-3 1 2h2l-2-3 1-2 2 3 1-3h1v2l-1 3v1l1-1v-1h1v-1l2 2h1l-2-3h3l1-1h-5v-2h3a509 509 0 0 0 -1 -3h1l1 1a180 180 0 0 1 2 3v-2l-1-2h3v-1h-3l2-3h-2l-1 3h-2a90 90 0 0 1 1 -3h-4l2-2h4l-1-1h-3l2-3-1-1-1 2-1 1zm-1 5v1l1 1-1 2-2-2zm-5 3h2l1 2h-2zm7 0h2v1h-1v1h-2zm-6 3h2l-1 2h-2zm5 0h2a34 34 0 0 1 1 2h-2zm276 0 5 8-5 9v1l-6-9zm-277 1 1 2-1 1-1-1v-1zm-141 3-1 2 2 3v1l-1 2-2-4-2 2-1 2a68 68 0 0 0 -1 -2v-1l3-4h-2l-2 3-2-3-1 1 1 3h-4l1 1h4l2 3h-5l2 4h-2l-2-4h-2l2 4h-4v1h4l-2 4 1 1 3-5h2l-2 4h5l-2 3h-4l-1 1h4l-1 4h1l2-3 2 3h2l-3-5 1-2 3 4 2-4 1 2v1l-2 3 1 2v-1l1-1 1-1v-1l2 3 1-1-1-3h3l1-1h-5v-1l-2-2h5l-2-4h2l1 1a174 174 0 0 1 2 4l1-2-2-3h4v-2h-4l2-3h-2l-2 3v1h-2a98 98 0 0 1 2 -4h-5l2-3h5l-1-1h-3l1-4h-1l-1 1-1 2zm-2 7 1 2-1 3-2-3zm398 1h11v1l5 7v1h-10l-1-1-4-7zm33 0h11l-2 3-1 3-2 3h-11v-1l4-7zm-437 2h3v1l1 2h-3l-1-2zm8 0h3v1l-1 1v1h-3v-1l1-1zm-7 4h3l-1 2v1h-3v-1zm6 0h3a45 45 0 0 1 1 3h-3zm-1 1 1 2v1l-1 2-2-2v-1zm403 8h11l-5 8h-10zm23 0h10l1 1 5 7v1h-11l-1-1zm-6 3 5 9v1l-5 8-5-9v-1zm-1323 42v1l1 3v2h-1l-1-3-1 1-1 2-1-1a1 1 0 0 1 0 -1l2-3h-2l-1 2-2-2h-1l2 3h-4l1 1h3l2 2h-4l2 3h-3l-1-3h-2l2 3h-3v1h3l-1 3v1l3-4h2l-2 3h4l-1 2h-4l-1 1h4l-2 3 1 1 2-3 1 2h2l-2-3 1-2a135 135 0 0 1 2 3l1-3h1a28 28 0 0 0 0 2 107 107 0 0 0 -1 3v1l1-1v-1h1v-1l2 2h1l-2-3h3l1-1h-5v-2h3l-1-3h1l1 1a135 135 0 0 1 2 3v-2a45 45 0 0 1 -1 -2h3v-1h-3l2-3h-2l-1 3h-2a77 77 0 0 1 1 -3h-4l2-2h4l-1-1h-3l2-3-1-1-1 2-1 1zm-1 5v1l1 1-1 2a44 44 0 0 0 -2 -2zm-5 3h2l1 2h-2zm7 0h2a4 4 0 0 1 0 1h-1v1h-2zm-6 3h2l-1 2h-2zm5 0h2l1 2h-2zm-1 1 1 2-1 1-1-1v-1zm164 8v1l1 3v2h-1l-1-3-1 1-1 2-1-1a1 1 0 0 1 0 -1l2-3h-2l-1 2-2-2h-1l2 3h-4l1 1h3l2 2h-4l2 3h-3l-1-3h-2l2 3h-3v1h3l-1 3v1l3-4h2l-2 3h4l-1 2h-4l-1 1h4l-2 3 1 1 2-3 1 2h2l-2-3 1-2a135 135 0 0 1 2 3l1-3h1a28 28 0 0 0 0 2 107 107 0 0 0 -1 3v1l1-1v-1h1v-1l2 2h1l-2-3h3l1-1h-5v-2h3l-1-3h1l1 1a135 135 0 0 1 2 3v-2a45 45 0 0 1 -1 -2h3v-1h-3l2-3h-2l-1 3h-2a77 77 0 0 1 1 -3h-4l2-2h4l-1-1h-3l2-3-1-1-1 2-1 1zm-1 5v1l1 1-1 2a44 44 0 0 0 -2 -2zm-5 3h2l1 2h-2zm7 0h2a4 4 0 0 1 0 1h-1v1h-2zm-6 3h2l-1 2h-2zm5 0h2l1 2h-2zm-1 1 1 2-1 1-1-1v-1zm61 28-2 3 4 8-2 4v1l-5-9-3 5-2 4h-1l-2-4v-1l6-9h-4l-4 6-4-7-3 2 4 7h-10l2 3h10l3 5h-10l4 8h-5l-5-8h-4l5 8h-8v3h8l-4 7 2 3 6-10h6l-5 8h10l-3 5h-9l-2 3h9l-4 7 3 2 4-7 4 6h4l-6-9 3-5 5 9 5-9v1a75 75 0 0 0 2 4 279 279 0 0 0 -4 7v1l2 3 1-2 1-2 1-2 1-2 4 7 3-2-4-7h8l2-3h-12l-3-5h11l-5-8h5l1 1a357 357 0 0 1 5 9l2-4-1-1-3-5h8v-4h-8l5-7h-4l-5 7v1h-5a202 202 0 0 1 5 -8h-11l3-5h12l-2-3h-8l4-7-3-2a512 512 0 0 0 -2 3l-2 4zm214 2-6 11 15 24v2l-8 12-1 1-16-26-8 14-8 13-1-1-7-11-1-2v-1h1l18-30v-1h-13l-13 21-13-22-10 6 13 21h-30v1l6 9 1 1h30l9 16h-32l15 25h-16l-2-1-14-23-1-1h-13l16 25h-26v11h26l-13 21 7 11 19-32h18l-16 26h32v1l-9 14h-30l-6 11h30l-13 21 10 6 13-22v1c5 6 8 13 12 19l2 1h12l-19-32 8-13 16 27 16-27 1 1a240 240 0 0 0 7 14l-14 23-1 1 7 11 4-6 4-7 3-6 4-7 13 22 9-6-13-21h25l1-1 6-9v-1h-37l-1-1-9-14v-1h33l-16-26h16l1 1 2 3a1142 1142 0 0 1 17 28v-1l6-10v-1l-2-4-10-15v-1h26v-11h-25l15-25h-13l-1 1-14 23-1 1h-16l15-25h-33l9-16h38l-5-10h-26l13-22-10-5-6 10-7 11-14-25zm-219 12v1l3 4-3 5-3-5zm-12 7h6l2 5h-5zm17 0h7l-1 2-1 1-1 2h-6v-1zm-14 8h6l-3 4v1h-6zm12 0h6l3 5h-7zm-3 2 3 5-3 4-3-4v-1zm-328 17-3 5v1l7 12v1l-4 6-8-13-4 7-4 7-1-1-3-5-1-1v-1l10-15h-7l-6 10-7-11-5 3 7 11h-16l3 5h16l5 8h-16l7 13h-9l-7-12h-7l8 12h-13v6h13l-6 10 3 6 10-16h9l-8 13h16l-5 7v1h-15l-3 5h15l-6 11 4 3 7-11 6 10h7l-10-16 5-7 8 14 8-13a123 123 0 0 0 4 7 462 462 0 0 0 -7 12h-1l4 6 2-3 2-4 1-3 2-3 7 11 5-3-7-11h13l3-5v-1h-19l-5-7h17l-8-14h8v1l1 1a583 583 0 0 1 9 14l3-5-1-3-5-7v-1h13v-5h-13l8-13h-7v1l-7 11-1 1h-8l8-13h-17l5-8h19l-3-5h-13l7-11-5-3a830 830 0 0 0 -3 5l-4 6zm532 0v1l9 14v1l-10 15v1l-9-16zm-38 22h18l1 1 8 13v1h-18l-1-1-8-13zm57 0h19l-3 5-3 5-3 5h-20l1-1 8-13zm-559 1v1l5 7-5 8-5-7zm806 2-2 3 4 8-2 4v1l-5-9-3 5-2 4h-1l-2-4v-1l6-9h-4l-4 6-4-7-3 2 4 7h-10l2 3h10l3 5h-10l4 8h-5l-5-8h-4l5 8h-8v3h8l-4 7 2 3 6-10h6l-5 8h10l-3 5h-9l-2 3h9l-4 7 3 2 4-7 4 6h4l-6-9 3-5 5 9 5-9v1a75 75 0 0 0 2 4 279 279 0 0 0 -4 7v1l2 3 1-2 1-2 1-2 1-2 4 7 3-2-4-7h8l2-3h-12l-3-5h11l-5-8h5l1 1a340 340 0 0 1 5 9l2-4-1-1-3-5h8v-4h-8l5-7h-4l-5 7v1h-5l5-8h-11l3-5h12l-2-3h-8l4-7-3-2a933 933 0 0 0 -2 3l-2 4zm426.86 5.4375l-6 11 15 24v2l-8 12-1 1-16-26-8 14-8 13-1-1-7-11-1-2v-1h1l18-30v-1h-13l-13 21-13-22-10 6 13 21h-30v1l6 9 1 1h30l9 16h-32l15 25h-16l-2-1-14-23-1-1h-13l16 25h-26v11h26l-13 21 7 11 19-32h18l-16 26h32v1l-9 14h-30l-6 11h30l-13 21 10 6 13-22v1c5 6 8 13 12 19l2 1h12l-19-32 8-13 16 27 16-27 1 1a240 240 0 0 0 7 14l-14 23-1 1 7 11 4-6 4-7 3-6 4-7 13 22 9-6-13-21h25l1-1 6-9v-1h-37l-1-1-9-14v-1h33l-16-26h16l1 1 2 3a1142 1142 0 0 1 17 28v-1l6-10v-1l-2-4-10-15v-1h26v-11h-25l15-25h-13l-1 1-14 23-1 1h-16l15-25h-33l9-16h38l-5-10h-26l13-22-10-5-6 10-7 11c-5-8-9-17-15-25zm-1251.9 4.5625h9l5 7h-10zm28 0h10l-1 2a1307 1307 0 0 1 -3 5h-10zm792 4v1l3 4-3 5-3-5zm-12 7h6l2 5h-5zm17 0h7l-1 2-1 1-1 2h-6v-1zm-821 2h10l-4 7h-10zm20 0h10l4 7h-10zm506 0h18l-8 14h-19zm38 0h19l1 1a297 297 0 0 1 9 14h-19l-1-1zm-549 3 5 7-1 1-4 7-5-7v-1zm539 3 9 14v2l-8 14-1 1v-1l-9-15v-1zm253 0h6l-3 4v1h-6zm12 0h6a90 90 0 0 1 3 5h-7zm-3 2 3 5-3 4-3-4v-1zm416.86 20.438v1l9 14v1l-10 15v1l-9-16zm-38 22h18l1 1 8 13v1h-18l-1-1-8-13zm57 0h19l-3 5a881 881 0 0 1 -6 10h-20l1-1 8-13zm-1374.9 21.562-6 11 15 24v2l-8 12-1 1-16-26-8 14-8 13-1-1-7-11-1-2v-1h1l18-30v-1h-13l-13 21-13-22-10 6 13 21h-30v1l6 9 1 1h30l9 16h-32l15 25h-16l-2-1-14-23-1-1h-13l16 25h-21.895v11h21.895l-13 21 7 11 19-32h18l-16 26h32v1l-9 14h-30l-6 11h30l-13 21 10 6 13-22v1c5 6 8 13 12 19l2 1h12l-19-32 8-13 16 27 16-27 1 1a239 239 0 0 0 7 14l-14 23-1 1 7 11 4-6 4-7 3-6 4-7 13 22 9-6-13-21h25l1-1 6-9v-1h-37l-1-1-9-14v-1h33l-16-26h16l1 1 2 3a1165 1165 0 0 1 17 28v-1l6-10v-1l-2-4-10-15v-1h26v-11h-25l15-25h-13l-1 1-14 23-1 1h-16l15-25h-33l9-16h38l-5-10h-26l13-22-10-5-6 10-7 11-14-25zm1326.9 4.4375h18l-8 14h-19zm38 0h19l1 1a291 291 0 0 1 9 14h-19l-1-1zm-10 6 9 14v2l-8 14-1 1v-1l-9-15v-1zm-1369.9 35.562v1l9 14v1l-10 15v1l-9-16zm1506 7-4 6h1l8 14v1l-5 7v1l-9-15-5 8-5 7-4-7v-1l10-18h-7l-7 12-8-12-6 3 8 12h-18l4 6h18l5 9h-19l9 15h-9l-1-1-8-13-1-1h-7l9 15h-15v6h15l-7 12 4 6 11-18h10l-9 15h18l-5 9h-18l-3 6h17l-7 12 5 4 8-13v1l7 11h8l-11-18 5-8 9 16 9-16v1a139 139 0 0 0 5 8 554 554 0 0 0 -9 13v1l4 6 2-4 2-3 2-4 3-4 7 12 5-3-7-12h15l3-6h-21l-1-1-5-8h19l-9-15h10l1 2a656 656 0 0 1 9 16h1l3-6v-1l-1-2-6-9v-1h15v-6h-15l9-14h-7l-1 1-8 13h-10l9-14h-19l5-9h22v-1l-3-5h-15l8-13-6-3a719 719 0 0 0 -4 6l-3 6zm-1544 15h18l1 1 8 13v1h-18l-1-1-8-13zm57 0h19l-3 5-3 5a2055 2055 0 0 1 -3 5h-20l1-1 8-13zm-135 8v11h4.1055v-11zm1613 4 5 8-5 9v1l-6-9zm-22 12h11v1l5 7v1h-10l-1-1-4-7zm33 0h11l-2 3-1 3-2 3h-11v-1l4-7zm-1537 2h18l-8 14h-19zm38 0h19l1 1 9 13v1h-19l-1-1zm-10 6 9 14v2l-8 14-1 1v-1l-9-15v-1zm1481 7h11l-5 8h-10zm23 0h11l5 8v1h-11l-1-1zm-6 3 5 9v1l-5 8-5-9v-1z" fill="#fff"/>
</g>
<defs>
<radialGradient id="p" cx="0" cy="0" r="1" gradientTransform="matrix(-379.65 0 0 -188.59 1622 1161)" gradientUnits="userSpaceOnUse">
<stop stop-color="#41A38E" offset="0"/>
<stop stop-color="#21BCA5" offset="1"/>
</radialGradient>
<radialGradient id="l" cx="0" cy="0" r="1" gradientTransform="matrix(-314.59 0 0 -156.47 1589 1015)" gradientUnits="userSpaceOnUse">
<stop stop-color="#41A38E" offset="0"/>
<stop stop-color="#21BCA5" offset="1"/>
</radialGradient>
<radialGradient id="d" cx="0" cy="0" r="1" gradientTransform="matrix(-234.7 0 0 -116.94 1549 895)" gradientUnits="userSpaceOnUse">
<stop stop-color="#41A38E" offset="0"/>
<stop stop-color="#21BCA5" offset="1"/>
</radialGradient>
<radialGradient id="c" cx="0" cy="0" r="1" gradientTransform="matrix(-149.06 0 0 -117.76 1506 803)" gradientUnits="userSpaceOnUse">
<stop stop-color="#41A38E" offset="0"/>
<stop stop-color="#21BCA5" offset="1"/>
</radialGradient>
<radialGradient id="b" cx="0" cy="0" r="1" gradientTransform="matrix(-314.24 0 0 -156.1 1484 1125)" gradientUnits="userSpaceOnUse">
<stop stop-color="#41A38E" offset="0"/>
<stop stop-color="#21BCA5" offset="1"/>
</radialGradient>
<radialGradient id="u" cx="0" cy="0" r="1" gradientTransform="matrix(-260.39 0 0 -129.52 1457 1004)" gradientUnits="userSpaceOnUse">
<stop stop-color="#41A38E" offset="0"/>
<stop stop-color="#21BCA5" offset="1"/>
</radialGradient>
<radialGradient id="t" cx="0" cy="0" r="1" gradientTransform="matrix(-194.27 0 0 -96.796 1424 905)" gradientUnits="userSpaceOnUse">
<stop stop-color="#41A38E" offset="0"/>
<stop stop-color="#21BCA5" offset="1"/>
</radialGradient>
<radialGradient id="s" cx="0" cy="0" r="1" gradientTransform="matrix(-123.38 0 0 -97.477 1389 828)" gradientUnits="userSpaceOnUse">
<stop stop-color="#41A38E" offset="0"/>
<stop stop-color="#21BCA5" offset="1"/>
</radialGradient>
<radialGradient id="r" cx="0" cy="0" r="1" gradientTransform="matrix(-463.63 0 0 -230.31 1837 1089)" gradientUnits="userSpaceOnUse">
<stop stop-color="#41A38E" offset="0"/>
<stop stop-color="#21BCA5" offset="1"/>
</radialGradient>
<radialGradient id="q" cx="0" cy="0" r="1" gradientTransform="matrix(-384.18 0 0 -191.08 1797 911)" gradientUnits="userSpaceOnUse">
<stop stop-color="#41A38E" offset="0"/>
<stop stop-color="#21BCA5" offset="1"/>
</radialGradient>
<radialGradient id="o" cx="0" cy="0" r="1" gradientTransform="matrix(-286.63 0 0 -142.81 1748 764)" gradientUnits="userSpaceOnUse">
<stop stop-color="#41A38E" offset="0"/>
<stop stop-color="#21BCA5" offset="1"/>
</radialGradient>
<radialGradient id="n" cx="0" cy="0" r="1" gradientTransform="matrix(-182.03 0 0 -143.82 1696 652)" gradientUnits="userSpaceOnUse">
<stop stop-color="#41A38E" offset="0"/>
<stop stop-color="#21BCA5" offset="1"/>
</radialGradient>
<radialGradient id="m" cx="0" cy="0" r="1" gradientTransform="matrix(-158.71 91.632 -105.81 -183.26 1736.7 475.86)" gradientUnits="userSpaceOnUse">
<stop stop-color="#EC991C" offset="0"/>
<stop stop-color="#E9B213" offset="1"/>
</radialGradient>
<radialGradient id="k" cx="0" cy="0" r="1" gradientTransform="matrix(-488.65 0 0 -242.73 286 1176)" gradientUnits="userSpaceOnUse">
<stop stop-color="#41A38E" offset="0"/>
<stop stop-color="#21BCA5" offset="1"/>
</radialGradient>
<radialGradient id="j" cx="0" cy="0" r="1" gradientTransform="matrix(-404.91 0 0 -201.39 244 988)" gradientUnits="userSpaceOnUse">
<stop stop-color="#41A38E" offset="0"/>
<stop stop-color="#21BCA5" offset="1"/>
</radialGradient>
<radialGradient id="i" cx="0" cy="0" r="1" gradientTransform="matrix(-302.09 0 0 -150.52 192 833)" gradientUnits="userSpaceOnUse">
<stop stop-color="#41A38E" offset="0"/>
<stop stop-color="#21BCA5" offset="1"/>
</radialGradient>
<radialGradient id="h" cx="0" cy="0" r="1" gradientTransform="matrix(-191.86 0 0 -151.58 137 715)" gradientUnits="userSpaceOnUse">
<stop stop-color="#41A38E" offset="0"/>
<stop stop-color="#21BCA5" offset="1"/>
</radialGradient>
<radialGradient id="g" cx="0" cy="0" r="1" gradientTransform="matrix(-356.02 0 0 -177.08 382 1139)" gradientUnits="userSpaceOnUse">
<stop stop-color="#41A38E" offset="0"/>
<stop stop-color="#21BCA5" offset="1"/>
</radialGradient>
<radialGradient id="f" cx="0" cy="0" r="1" gradientTransform="matrix(-265.62 0 0 -132.34 337 1003)" gradientUnits="userSpaceOnUse">
<stop stop-color="#41A38E" offset="0"/>
<stop stop-color="#21BCA5" offset="1"/>
</radialGradient>
<radialGradient id="e" cx="0" cy="0" r="1" gradientTransform="matrix(-168.69 0 0 -133.27 288 898)" gradientUnits="userSpaceOnUse">
<stop stop-color="#41A38E" offset="0"/>
<stop stop-color="#21BCA5" offset="1"/>
</radialGradient>
</defs>
</svg>
