<svg viewBox="0 0 1680 1080" xmlns="http://www.w3.org/2000/svg" xmlns:xlink="http://www.w3.org/1999/xlink"><defs><radialGradient id="ab" cx="-2020" cy="2260" r="1" gradientTransform="matrix(-67 0 0 67 -134000 -150000)" gradientUnits="userSpaceOnUse"><stop stop-color="#ec991c" offset="0"/><stop stop-color="#e9b213" offset="1"/></radialGradient><radialGradient id="z" cx="900.2" cy="458.6" r="69.3" gradientTransform="matrix(-1.153 -3.106 1.025 -.3806 1468 3459)" gradientUnits="userSpaceOnUse" xlink:href="#ab"/><radialGradient id="y" cx="871.1" cy="443.6" r="69.3" gradientTransform="matrix(.3966 -1.823 1.767 .3844 -258 1886)" gradientUnits="userSpaceOnUse"><stop stop-color="#cc3047" offset="0"/><stop stop-color="#d94432" offset="1"/></radialGradient><radialGradient id="x" cx="871.1" cy="443.6" r="69.3" gradientTransform="matrix(.3966 -1.823 1.767 .3844 -258 1886)" gradientUnits="userSpaceOnUse"><stop stop-color="#41a38e" offset="0"/><stop stop-color="#21bca5" offset="1"/></radialGradient><radialGradient id="w" cx="871.1" cy="443.6" r="69.3" gradientTransform="matrix(.3966 -1.823 1.767 .3844 -258 1886)" gradientUnits="userSpaceOnUse"><stop stop-color="#265dd7" offset="0"/><stop stop-color="#0582ca" offset="1"/></radialGradient><radialGradient id="v" cx="871.1" cy="443.6" r="69.3" gradientTransform="matrix(.3966 -1.823 1.767 .3844 -258 1886)" gradientUnits="userSpaceOnUse"><stop stop-color="#4d4c96" offset="0"/><stop stop-color="#5f4b8b" offset="1"/></radialGradient><radialGradient id="u" cx="871.1" cy="443.6" r="69.3" gradientTransform="matrix(.3966 -1.823 1.767 .3844 -258 1886)" gradientUnits="userSpaceOnUse"><stop stop-color="#e0516b" offset="0"/><stop stop-color="#fa7268" offset="1"/></radialGradient><radialGradient id="t" cx="871.1" cy="443.6" r="69.3" gradientTransform="matrix(.3966 -1.823 1.767 .3844 -258 1886)" gradientUnits="userSpaceOnUse"><stop stop-color="#70b069" offset="0"/><stop stop-color="#88b04b" offset="1"/></radialGradient><radialGradient id="s" cx="871.1" cy="443.6" r="69.3" gradientTransform="matrix(.9574 -3.116 2.952 .9072 -1273 2781)" gradientUnits="userSpaceOnUse"><stop stop-color="#70b069" offset="0"/><stop stop-color="#0582ca" offset="1"/></radialGradient><radialGradient id="r" cx="871.1" cy="443.6" r="69.3" gradientTransform="matrix(1.399 -2.159 3.034 1.966 -1693 1478)" gradientUnits="userSpaceOnUse"><stop stop-color="#5f4b8b" offset="0"/><stop stop-color="#fa7268" offset="1"/></radialGradient><radialGradient id="q" cx="871.1" cy="443.6" r="69.3" gradientTransform="matrix(.7591 -4.217 2.283 .4109 -802.7 3960)" gradientUnits="userSpaceOnUse"><stop stop-color="#e9b213" offset="0"/><stop stop-color="#d94432" offset="1"/></radialGradient><radialGradient id="p" cx="871.1" cy="443.6" r="69.3" gradientTransform="matrix(1.329 -3.19 2.42 1.008 -1360 2801)" gradientUnits="userSpaceOnUse"><stop stop-color="#0582ca" offset="0"/><stop stop-color="#d94432" offset="1"/></radialGradient><radialGradient id="o" cx="871.1" cy="443.6" r="69.3" gradientTransform="matrix(1.149 -3.393 2.483 .8406 -1231 3052)" gradientUnits="userSpaceOnUse"><stop stop-color="#88b04b" offset="0"/><stop stop-color="#e9b213" offset="1"/></radialGradient><symbol id="m"><path d="M825 453.4c-24 1-68.4-20.8-69.3-77.6-.3-25 20-104 69.3-104m0 181.7c24 1 68.4-20.8 69.3-77.7.3-24.9-20-104-69.3-104" fill="url(#z)"/><path d="M825 453.4c-24 1-68.4-20.8-69.3-77.6-.3-25 20-104 69.3-104" fill="#fff" opacity=".3"/></symbol><symbol id="k"><path d="M825 453.4c-24 1-68.4-20.8-69.3-77.6-.3-25 20-104 69.3-104m0 181.7c24 1 68.4-20.8 69.3-77.7.3-24.9-20-104-69.3-104" fill="url(#x)"/><path d="M825 453.4c-24 1-68.4-20.8-69.3-77.6-.3-25 20-104 69.3-104" fill="#fff" opacity=".3"/></symbol><symbol id="a"><path d="M825 453.4c-24 1-68.4-20.8-69.3-77.6-.3-25 20-104 69.3-104m0 181.7c24 1 68.4-20.8 69.3-77.7.3-24.9-20-104-69.3-104" fill="url(#o)"/><path d="M825 453.4c-24 1-68.4-20.8-69.3-77.6-.3-25 20-104 69.3-104" fill="#fff" opacity=".3"/></symbol><symbol id="g"><path d="M825 453.4c-24 1-68.4-20.8-69.3-77.6-.3-25 20-104 69.3-104m0 181.7c24 1 68.4-20.8 69.3-77.7.3-24.9-20-104-69.3-104" fill="url(#t)"/><path d="M825 453.4c-24 1-68.4-20.8-69.3-77.6-.3-25 20-104 69.3-104" fill="#fff" opacity=".3"/></symbol><symbol id="i"><path d="M825 453.4c-24 1-68.4-20.8-69.3-77.6-.3-25 20-104 69.3-104m0 181.7c24 1 68.4-20.8 69.3-77.7.3-24.9-20-104-69.3-104" fill="url(#v)"/><path d="M825 453.4c-24 1-68.4-20.8-69.3-77.6-.3-25 20-104 69.3-104" fill="#fff" opacity=".3"/></symbol><symbol id="n"><path d="M825 453.4c-24 1-68.4-20.8-69.3-77.6-.3-25 20-104 69.3-104m0 181.7c24 1 68.4-20.8 69.3-77.7.3-24.9-20-104-69.3-104" fill="url(#y)"/><path d="M825 453.4c-24 1-68.4-20.8-69.3-77.6-.3-25 20-104 69.3-104" fill="#fff" opacity=".3"/></symbol><symbol id="b"><path d="M825 453.4c-24 1-68.4-20.8-69.3-77.6-.3-25 20-104 69.3-104m0 181.7c24 1 68.4-20.8 69.3-77.7.3-24.9-20-104-69.3-104" fill="url(#p)"/><path d="M825 453.4c-24 1-68.4-20.8-69.3-77.6-.3-25 20-104 69.3-104" fill="#fff" opacity=".3"/></symbol><symbol id="j"><path d="M825 453.4c-24 1-68.4-20.8-69.3-77.6-.3-25 20-104 69.3-104m0 181.7c24 1 68.4-20.8 69.3-77.7.3-24.9-20-104-69.3-104" fill="url(#w)"/><path d="M825 453.4c-24 1-68.4-20.8-69.3-77.6-.3-25 20-104 69.3-104" fill="#fff" opacity=".3"/></symbol><symbol id="h"><path d="M825 453.4c-24 1-68.4-20.8-69.3-77.6-.3-25 20-104 69.3-104m0 181.7c24 1 68.4-20.8 69.3-77.7.3-24.9-20-104-69.3-104" fill="url(#u)"/><path d="M825 453.4c-24 1-68.4-20.8-69.3-77.6-.3-25 20-104 69.3-104" fill="#fff" opacity=".3"/></symbol><symbol id="d"><path d="M825 453.4c-24 1-68.4-20.8-69.3-77.6-.3-25 20-104 69.3-104m0 181.7c24 1 68.4-20.8 69.3-77.7.3-24.9-20-104-69.3-104" fill="url(#q)"/><path d="M825 453.4c-24 1-68.4-20.8-69.3-77.6-.3-25 20-104 69.3-104" fill="#fff" opacity=".3"/></symbol><symbol id="f"><path d="M825 453.4c-24 1-68.4-20.8-69.3-77.6-.3-25 20-104 69.3-104m0 181.7c24 1 68.4-20.8 69.3-77.7.3-24.9-20-104-69.3-104" fill="url(#s)"/><path d="M825 453.4c-24 1-68.4-20.8-69.3-77.6-.3-25 20-104 69.3-104" fill="#fff" opacity=".3"/></symbol><symbol id="e"><path d="M825 453.4c-24 1-68.4-20.8-69.3-77.6-.3-25 20-104 69.3-104m0 181.7c24 1 68.4-20.8 69.3-77.7.3-24.9-20-104-69.3-104" fill="url(#r)"/><path d="M825 453.4c-24 1-68.4-20.8-69.3-77.6-.3-25 20-104 69.3-104" fill="#fff" opacity=".3"/></symbol><linearGradient id="aa" x1="840" x2="840" y1="1080" y2="-2.4" gradientTransform="matrix(1 0 0 -1 0 1078)" gradientUnits="userSpaceOnUse"><stop stop-color="#fff" offset="0"/><stop stop-color="#fff" stop-opacity=".3" offset=".9"/><stop stop-color="#fff" stop-opacity="0" offset="1"/></linearGradient><style></style></defs><path d="M0-2h1680v1082H0z" fill="#f4f4f4"/><use transform="matrix(1.152 -.1339 .1339 1.152 -384.3 747.3)" width="100%" height="100%" xlink:href="#a"/><use transform="rotate(-10.9 3925.3 -1935.3) scale(1.2874)" width="100%" height="100%" xlink:href="#m"/><use transform="translate(-685.3 544) scale(1.389)" width="100%" height="100%" xlink:href="#k"/><use transform="rotate(29 336.4 -982.2)" width="100%" height="100%" xlink:href="#g"/><use transform="rotate(-22.7 710.2 -1739.6) scale(1.0139)" width="100%" height="100%" xlink:href="#i"/><use transform="matrix(1.62 -.08226 .08226 1.62 -1083 434)" width="100%" height="100%" xlink:href="#j"/><use transform="matrix(1.214 -.2703 .2703 1.214 312.4 477.1)" width="100%" height="100%" opacity=".9" xlink:href="#n"/><use transform="rotate(-15.6 934.8 3842.2) scale(1.3152)" width="100%" height="100%" xlink:href="#b"/><use transform="matrix(1.332 .5415 -.5415 1.332 378.3 84.9)" width="100%" height="100%" xlink:href="#j"/><use transform="matrix(1.57 .4064 -.4064 1.57 -1031 79.3)" width="100%" height="100%" xlink:href="#h"/><use transform="scale(.854) rotate(23 721.3 2980.9)" width="100%" height="100%" xlink:href="#d"/><use transform="matrix(.9717 .1067 -.1067 .9717 79.8 432)" width="100%" height="100%" opacity=".5" xlink:href="#f"/><use transform="rotate(1.6 3526.6 6857.2) scale(.86332)" width="100%" height="100%" xlink:href="#e"/><use transform="translate(449.3 -125.5) scale(1.002)" width="100%" height="100%" xlink:href="#m"/><use transform="rotate(-19.1 722.2 -1886.1) scale(.796)" width="100%" height="100%" xlink:href="#k"/><use transform="translate(-53.3 78.3) scale(.6668)" width="100%" height="100%" xlink:href="#a"/><use transform="rotate(-13.6 3321.5 -491.3) scale(1.3817)" width="100%" height="100%" xlink:href="#g"/><use transform="matrix(.4523 -.3328 .3328 .4523 555.2 217.9)" width="100%" height="100%" xlink:href="#i"/><use transform="scale(.8257) rotate(32.4 1304.5 1746)" width="100%" height="100%" xlink:href="#n"/><use transform="scale(.6248) rotate(34 1112.7 529.1)" width="100%" height="100%" xlink:href="#b"/><use transform="matrix(.2722 -.1697 .1697 .2722 84.5 217.2)" width="100%" height="100%" xlink:href="#h"/><use transform="matrix(.8674 -.2724 .2724 .8674 298.8 682.8)" width="100%" height="100%" xlink:href="#d"/><use transform="scale(.6948) rotate(-19.6 338.7 2066)" width="100%" height="100%" xlink:href="#f"/><use transform="rotate(13.3 -997.7 -879.4) scale(.9404)" width="100%" height="100%" xlink:href="#e"/><path d="M0-2h1680v1082H0z" fill="url(#aa)"/></svg>