<svg xmlns="http://www.w3.org/2000/svg" xmlns:xlink="http://www.w3.org/1999/xlink" height="1080" width="750" version="1.1" data-name="Layer 1" id="Layer_1"><defs id="defs14775"><radialGradient id="radialGradient40996" cx="-1975.2" cy="2229" r="1" gradientTransform="matrix(106.23 0 0 -100.39 210920 224099)" gradientUnits="userSpaceOnUse"><stop offset="0" stop-color="#0588ca" id="stop40992" stop-opacity="1"/><stop offset="1" stop-color="#e9b213" id="stop40994"/></radialGradient><radialGradient gradientUnits="userSpaceOnUse" gradientTransform="matrix(41.08 0 0 -125.91 80269 281679)" r="1" cy="2231.4" cx="-1945.5" id="radial-gradient-8"><stop id="stop14696" stop-color="#260133" offset="0"/><stop id="stop14698" stop-color="#1f2348" offset="1"/></radialGradient><radialGradient gradientUnits="userSpaceOnUse" gradientTransform="matrix(107.76 0 0 -103.09 213229 230437)" r="1" cy="2229.3" cx="-1975.5" id="radial-gradient-9"><stop id="stop14706" stop-color="#fc8702" offset="0"/><stop id="stop14708" stop-color="#e9b213" offset="1"/></radialGradient><radialGradient gradientUnits="userSpaceOnUse" gradientTransform="matrix(184 0 0 -176.02 365010 394251)" r="1" cy="2234" cx="-1983.2" id="radial-gradient-12"><stop id="stop14714" stop-color="#e9b213" offset="0"/><stop id="stop14716" stop-color="#e9b213" offset="1"/></radialGradient><radialGradient gradientUnits="userSpaceOnUse" gradientTransform="matrix(95.5 0 0 -87.34 188984 195370)" r="1" cy="2227.3" cx="-1973.1" id="radial-gradient-27"><stop id="stop14742" stop-color="#d94432" offset="0"/><stop id="stop14744" stop-color="#e9b213" offset="1"/></radialGradient><radialGradient gradientUnits="userSpaceOnUse" gradientTransform="matrix(106.23 0 0 -100.39 210920 224099)" r="1" cy="2229" cx="-1975.2" id="radial-gradient-33"><stop id="stop14754" stop-color="#0582ca" offset="0"/><stop id="stop14756" stop-color="#e9b213" offset="1"/></radialGradient><radialGradient r="1" cy="2225.4" cx="-1969.4" gradientTransform="matrix(81 0 0 -76.55 160569 171192)" id="radialGradient36953" xlink:href="#radialGradient40996"/><radialGradient r="1" cy="2234" cx="-1983.2" gradientTransform="matrix(184 0 0 -176.02 366371 394215)" gradientUnits="userSpaceOnUse" id="radialGradient49509" xlink:href="#radial-gradient-12"/><radialGradient r="1" cy="2160.9" cx="-1937.2" gradientTransform="matrix(35.1 0 0 -14.58 69541 32476)" id="radialGradient49511" xlink:href="#radial-gradient-12"/><radialGradient r="1" cy="2233.1" cx="-1955.8" gradientTransform="matrix(52.23 0 0 -155.05 103332 347156)" id="radialGradient50505" xlink:href="#radial-gradient-8"/><radialGradient r="1" cy="2231.4" cx="-1979.5" gradientTransform="matrix(137.02 0 0 -126.95 272393 284055)" id="radialGradient50509" xlink:href="#radial-gradient-9"/><radialGradient r="1" cy="2130.1" cx="-1917.7" gradientTransform="matrix(26.14 0 0 -10.51 51344 23160)" id="radialGradient50511" xlink:href="#radial-gradient-9"/><radialGradient r="1" cy="2229.7" cx="-1939.2" gradientTransform="matrix(36.4 0 0 -106.66 71158 238778)" id="radialGradient50855" xlink:href="#radial-gradient-8"/><radialGradient r="1" cy="2227.3" cx="-1973.1" gradientTransform="matrix(95.5 0 0 -87.34 188984 195370)" gradientUnits="userSpaceOnUse" id="radialGradient50859" xlink:href="#radial-gradient-27"/><radialGradient r="1" cy="2080.1" cx="-1884.5" gradientTransform="matrix(18.22 0 0 -7.23 34925 15888)" id="radialGradient50861" xlink:href="#radial-gradient-27"/><radialGradient r="1" cy="2225.4" cx="-1969.4" gradientTransform="matrix(81 0 0 -76.55 159606 170917)" id="radialGradient51776" xlink:href="#radialGradient40996"/><radialGradient r="1" cy="2057.4" cx="-1865" gradientTransform="matrix(15.45 0 0 -6.34 28939 13607)" id="radialGradient51778" xlink:href="#radial-gradient-33"/><linearGradient id="linearGradient31786" x1="375.9" y1="469.5" x2="375.9" y2="343.6" gradientTransform="matrix(1 0 0 -1 0 1080)" gradientUnits="userSpaceOnUse"><stop offset="0" stop-color="#b4b4b4" stop-opacity="1" id="stop31782"/><stop offset="1" stop-color="#282828" id="stop31784" stop-opacity="1"/></linearGradient><linearGradient gradientUnits="userSpaceOnUse" gradientTransform="matrix(1 0 0 -1 0 1080)" y2="343.6" x2="375.9" y1="469.5" x1="375.9" id="linear-gradient"><stop id="stop14701" stop-opacity="0" stop-color="#fff" offset="0"/><stop id="stop14703" stop-color="#fff" offset="1"/></linearGradient><linearGradient gradientUnits="userSpaceOnUse" gradientTransform="matrix(.44643 0 0 -1 0 1080)" y2="-.4" x2="840" y1="1079.6" x1="840" id="linear-gradient-12"><stop id="stop14768" stop-color="#fff" offset="0"/><stop id="stop14770" stop-opacity=".3" stop-color="#fff" offset=".9"/><stop id="stop14772" stop-opacity="0" stop-color="#fff" offset="1"/></linearGradient><linearGradient y2="991.4" x2="1601.3" y1="1080.6" x1="1601.3" gradientTransform="translate(-44)" id="linearGradient49513" xlink:href="#linearGradient31786"/><linearGradient y2="156.6" x2="1204.7" y1="311.6" x1="1204.7" id="linearGradient50507" xlink:href="#linear-gradient"/><linearGradient y2="126.6" x2="584.8" y1="233.2" x1="584.8" id="linearGradient50857" xlink:href="#linear-gradient"/><linearGradient y2="818.4" x2="1094.4" y1="931.6" x1="1072.8" gradientTransform="translate(-963 -276)" gradientUnits="userSpaceOnUse" id="linearGradient51774" xlink:href="#linearGradient31786"/><symbol id="g51438"><path d="M129 567c15 60-67 45-6 93" id="path14917" display="inline" opacity=".3" fill="none" stroke="url(#linearGradient51774)" stroke-width="2.5"/><path d="M89 529c0 21 25 38 40 38 14 0 41-17 41-38s-19-39-41-39-40 18-40 39z" id="path14921" fill="url(#radialGradient51776)"/><path style="isolation:isolate" class="cls-3" d="M129 490c23 0 41 18 41 39s-27 38-41 38z" id="path14923" opacity=".2" fill="#fff"/><path d="M137 571h-16l8-6z" id="path14925" fill="url(#radialGradient51778)"/><path style="isolation:isolate" class="cls-3" d="M136 571h1l-8-6v6z" id="path14927" opacity=".2" fill="#fff"/></symbol><style id="style14679">.cls-3{fill:#fff;opacity:.3;isolation:isolate}</style></defs><path id="rect14807" display="inline" fill="#f4f4f4" stroke-width=".7" d="M0 0h750v1080H0z"/><g transform="translate(-916 24)" id="g21936"><path d="M1469 893c0 49 56 88 92 88 31 0 92-39 92-88s-42-88-92-88c-51 0-92 39-92 88z" id="path14825" fill="url(#radialGradient49509)"/><path class="cls-3" d="M1561 805c51 0 92 40 92 88s-61 88-92 88z" id="path14827" style="isolation:isolate" opacity=".3" fill="#fff"/><path d="M1578 990l-1 1h-33l-1-1 17-13a1 1 0 011 0z" id="path14829" fill="url(#radialGradient49511)"/><path class="cls-3" d="M1577 991l1-1-17-13a1 1 0 00-1 0v14z" id="path14831" style="isolation:isolate" opacity=".3" fill="#fff"/><path d="M1561 991c10 42 2 69-12 89" id="path14847" display="inline" fill="none" stroke="url(#linearGradient49513)" stroke-width="2.5"/></g><g transform="translate(-934 -42)" id="g19461" opacity=".8"><path d="M1228 768c24 100-114 75-10 155" id="path14929" fill="none" stroke="url(#radialGradient50505)" stroke-width="2.5"/><path d="M1228 768c24 100-114 75-10 155" id="path14931" fill="none" stroke="url(#linearGradient50507)" stroke-width="2.5"/><path d="M1159 704c0 35 42 64 69 64 23 0 68-28 68-64 0-35-31-63-68-63-38 0-69 28-69 63z" id="path14933" fill="url(#radialGradient50509)"/><path style="isolation:isolate" class="cls-3" d="M1228 641c38 0 68 29 68 63 0 35-45 64-68 64z" id="path14935" opacity=".3" fill="#fff"/><path d="M1240 774v1h-25v-1l12-9a1 1 0 011 0z" id="path14937" fill="url(#radialGradient50511)"/><path style="isolation:isolate" class="cls-3" d="M1240 775v-1l-12-9a1 1 0 00-1 0v10z" id="path14939" opacity=".3" fill="#fff"/></g><g transform="matrix(1.33656 0 0 1.33656 -223 -639)" id="g20096" display="inline" opacity=".8"><path d="M601 846c17 69-79 52-7 107" id="path14881" fill="none" stroke="url(#radialGradient50855)" stroke-width="2.5"/><path d="M601 846c17 69-79 52-7 107" id="path14883" fill="none" stroke="url(#linearGradient50857)" stroke-width="2.5"/><path d="M553 803c0 24 30 43 48 43 16 0 48-19 48-43s-22-44-48-44c-27 0-48 20-48 44z" id="path14885" fill="url(#radialGradient50859)"/><path style="isolation:isolate" class="cls-3" d="M601 759c26 0 48 20 48 44s-32 43-48 43z" id="path14887" opacity=".3" fill="#fff"/><path d="M610 851h-18s-1 0 0 0l8-7a1 1 0 011 0z" id="path14889" fill="url(#radialGradient50861)"/><path style="isolation:isolate" class="cls-3" d="M609 851h1l-9-7v7z" id="path14891" opacity=".3" fill="#fff"/></g><use height="100%" width="100%" y="0" x="0" transform="translate(-33 29) scale(1.46049)" id="use51683" xlink:href="#g51438" opacity=".8"/><use height="100%" width="100%" y="0" x="0" transform="matrix(1.35304 0 0 1.35304 45 -459)" id="use51787" xlink:href="#g51438" opacity=".7"/><use transform="translate(281 -482) scale(1.13815)" height="100%" width="100%" y="0" x="0" xlink:href="#g51438" id="use51831" opacity=".6"/><path id="rect14941" display="inline" opacity=".6" fill="url(#linear-gradient-12)" stroke-width=".7" d="M0 0h750v1080H0z"/></svg>