<svg data-name="Layer 1" viewBox="0 0 1680 1080" xmlns="http://www.w3.org/2000/svg" xmlns:xlink="http://www.w3.org/1999/xlink"><defs><radialGradient id="h" cx="-2027.2" cy="2259.9" r="1" gradientTransform="matrix(-60 0 0 60 -120242 -134986)" gradientUnits="userSpaceOnUse"><stop stop-color="#cc3047" offset="0"/><stop stop-color="#d94432" offset="1"/></radialGradient><radialGradient id="at" cx="-2047.9" cy="2272" gradientTransform="matrix(-37 0 0 37 -74473 -83234)" xlink:href="#h"/><radialGradient id="al" cx="-2047.9" cy="2272" gradientTransform="matrix(-37 0 0 37 -75422 -83498)" xlink:href="#h"/><radialGradient id="j" cx="-2023.8" cy="2257.9" r="1" gradientTransform="matrix(-67 0 0 67 -134216 -150471)" gradientUnits="userSpaceOnUse"><stop stop-color="#ec991c" offset="0"/><stop stop-color="#e9b213" offset="1"/></radialGradient><radialGradient id="ae" cx="-2024.7" cy="2258.4" gradientTransform="matrix(-65 0 0 65 -131216 -146189)" xlink:href="#j"/><radialGradient id="ad" cx="-2028.4" cy="2260.6" gradientTransform="matrix(-58 0 0 58 -116409 -130846)" xlink:href="#j"/><radialGradient id="ac" cx="-2016.7" cy="2253.8" gradientTransform="matrix(-88 0 0 88 -176896 -197462)" xlink:href="#h"/><radialGradient id="a" cx="-1945.5" cy="2231.4" r="1" gradientTransform="matrix(41.08 0 0 -125.91 80269 281680)" gradientUnits="userSpaceOnUse"><stop stop-color="#260133" offset="0"/><stop stop-color="#1f2348" offset="1"/></radialGradient><radialGradient id="e" cx="-1975.5" cy="2229.3" r="1" gradientTransform="matrix(107.76 0 0 -103.09 213230 230440)" gradientUnits="userSpaceOnUse"><stop stop-color="#fc8702" offset="0"/><stop stop-color="#e9b213" offset="1"/></radialGradient><radialGradient id="bb" cx="-1897" cy="2104.6" r="1" gradientTransform="matrix(20.56 0 0 -8.54 39383 18575)" xlink:href="#e"/><radialGradient id="ba" cx="200.6" cy="1042.9" r="13.4" xlink:href="#a"/><radialGradient id="c" cx="-1983.2" cy="2234" r="1" gradientTransform="matrix(184 0 0 -176.02 365010 394251)" gradientUnits="userSpaceOnUse"><stop stop-color="#e9b213" offset="0"/><stop stop-color="#e9b213" offset="1"/></radialGradient><radialGradient id="az" cx="-1937.2" cy="2160.9" r="1" gradientTransform="matrix(35.1 0 0 -14.58 69585 32476)" xlink:href="#c"/><radialGradient id="ay" cx="-1939.6" cy="2230.2" r="1" gradientTransform="matrix(36.68 0 0 -112.44 72632 251090)" xlink:href="#a"/><radialGradient id="g" cx="-1973.3" cy="2228" r="1" gradientTransform="matrix(96.24 0 0 -92.06 191370 205330)" gradientUnits="userSpaceOnUse"><stop stop-color="#0ca6fe" offset="0"/><stop stop-color="#e9b213" offset="1"/></radialGradient><radialGradient id="ax" cx="-1885.4" cy="2088.3" r="1" gradientTransform="matrix(18.36 0 0 -7.62 36119 16132)" xlink:href="#g"/><radialGradient id="aw" cx="1598.6" cy="1027.8" r="19.2" xlink:href="#a"/><radialGradient id="av" cx="1504" cy="799" r="184.3" xlink:href="#c"/><radialGradient id="au" cx="-1942" cy="2167.7" r="1" gradientTransform="matrix(38.34 0 0 -15.92 76050 35504)" xlink:href="#c"/><radialGradient id="as" cx="-1948.4" cy="2231.9" r="1" gradientTransform="matrix(43.77 0 0 -134.15 85512 299790)" xlink:href="#a"/><radialGradient id="ar" cx="-1976.6" cy="2230" r="1" gradientTransform="matrix(114.82 0 0 -109.85 227180 245190)" xlink:href="#c"/><radialGradient id="aq" cx="-1903" cy="2113" r="1" gradientTransform="matrix(21.9 0 0 -9.1 41947 19449)" xlink:href="#c"/><radialGradient id="ap" cx="-1939.8" cy="2230.4" r="1" gradientTransform="matrix(36.81 0 0 -114.36 71865 255530)" xlink:href="#a"/><radialGradient id="ao" cx="-1973.4" cy="2228.2" r="1" gradientTransform="matrix(96.56 0 0 -93.64 191000 208990)" xlink:href="#g"/><radialGradient id="an" cx="-1885.8" cy="2090.9" r="1" gradientTransform="matrix(18.42 0 0 -7.75 35230 16554)" xlink:href="#g"/><radialGradient id="r" cx="-1939.2" cy="2229.7" r="1" gradientTransform="matrix(36.4 0 0 -106.66 71158 238780)" xlink:href="#a"/><radialGradient id="d" cx="-1973.1" cy="2227.3" r="1" gradientTransform="matrix(95.5 0 0 -87.34 188980 195370)" gradientUnits="userSpaceOnUse"><stop stop-color="#d94432" offset="0"/><stop stop-color="#e9b213" offset="1"/></radialGradient><radialGradient id="q" cx="-1884.6" cy="2080" r="1" gradientTransform="matrix(18.22 0 0 -7.23 34925 15888)" xlink:href="#d"/><radialGradient id="am" cx="-1951.1" cy="2232" r="1" gradientTransform="matrix(46.46 0 0 -135.25 91932 302490)" xlink:href="#a"/><radialGradient id="ak" cx="-1977.6" cy="2230.1" r="1" gradientTransform="matrix(121.88 0 0 -110.75 242310 247440)" xlink:href="#d"/><radialGradient id="aj" cx="-1908.2" cy="2114" r="1" gradientTransform="matrix(23.25 0 0 -9.17 45690 19856)" xlink:href="#d"/><radialGradient id="ai" cx="-1944.8" cy="2231.1" r="1" gradientTransform="matrix(40.49 0 0 -122.61 79855 274000)" xlink:href="#a"/><radialGradient id="f" cx="-1975.2" cy="2229" r="1" gradientTransform="matrix(106.23 0 0 -100.39 210920 224100)" gradientUnits="userSpaceOnUse"><stop stop-color="#0582ca" offset="0"/><stop stop-color="#e9b213" offset="1"/></radialGradient><radialGradient id="ah" cx="-1895.6" cy="2100.9" r="1" gradientTransform="matrix(20.27 0 0 -8.31 39551 17788)" xlink:href="#f"/><radialGradient id="ag" cx="-1929.4" cy="2228.2" r="1" gradientTransform="matrix(30.87 0 0 -93.49 60634 209240)" xlink:href="#a"/><radialGradient id="af" cx="-1969.4" cy="2225.4" r="1" gradientTransform="matrix(81 0 0 -76.55 160569 171192)" xlink:href="#f"/><radialGradient id="p" cx="-1865" cy="2057.4" r="1" gradientTransform="matrix(15.45 0 0 -6.34 29902 13883)" xlink:href="#f"/><radialGradient id="o" cx="-1955.8" cy="2233.1" r="1" gradientTransform="matrix(52.23 0 0 -155.05 103330 347160)" xlink:href="#a"/><radialGradient id="n" cx="-1979.4" cy="2231.4" r="1" gradientTransform="matrix(137.02 0 0 -126.95 272390 284050)" xlink:href="#e"/><radialGradient id="m" cx="-1917.7" cy="2130.1" r="1" gradientTransform="matrix(26.14 0 0 -10.51 51344 23160)" xlink:href="#e"/><radialGradient id="ab" cx="-1973.1" cy="2227.3" r="1" gradientTransform="matrix(95.5 0 0 -87.34 188980 195370)" gradientUnits="userSpaceOnUse" xlink:href="#d"/><radialGradient id="aa" cx="-1983.2" cy="2234" r="1" gradientTransform="matrix(184 0 0 -176.02 366370 394210)" gradientUnits="userSpaceOnUse" xlink:href="#c"/><radialGradient id="z" cx="-1937.2" cy="2160.9" r="1" gradientTransform="matrix(35.1 0 0 -14.58 69541 32476)" xlink:href="#c"/><radialGradient id="y" cx="-1969.4" cy="2225.4" r="1" gradientTransform="matrix(81 0 0 -76.55 160569 171192)" gradientUnits="userSpaceOnUse"><stop stop-color="#0588ca" offset="0"/><stop stop-color="#e9b213" offset="1"/></radialGradient><linearGradient id="s" x1="375.9" x2="375.9" y1="469.5" y2="343.6" gradientTransform="matrix(1 0 0 -1 0 1080)" gradientUnits="userSpaceOnUse"><stop stop-color="#b4b4b4" offset="0"/><stop stop-color="#282828" offset="1"/></linearGradient><linearGradient id="b" x1="375.9" x2="375.9" y1="469.5" y2="343.6" gradientTransform="matrix(1 0 0 -1 0 1080)" gradientUnits="userSpaceOnUse"><stop stop-color="#fff" stop-opacity="0" offset="0"/><stop stop-color="#fff" offset="1"/></linearGradient><linearGradient id="bk" x1="201.8" x2="201.8" y1="1080.4" y2="1017" xlink:href="#b"/><linearGradient id="bj" x1="1499.1" x2="1499.1" y1="866.5" y2="754.1" xlink:href="#b"/><linearGradient id="bi" x1="1601.3" x2="1601.3" y1="1080.6" y2="991.4" xlink:href="#b"/><linearGradient id="bh" x1="255.3" x2="255.3" y1="848.7" y2="714.6" xlink:href="#b"/><linearGradient id="bg" x1="486.2" x2="486.2" y1="736.9" y2="622.6" xlink:href="#b"/><linearGradient id="t" x1="584.9" x2="584.9" y1="233.2" y2="126.6" xlink:href="#b"/><linearGradient id="bf" x1="1313.6" x2="1313.6" y1="608.8" y2="473.6" xlink:href="#b"/><linearGradient id="be" x1="1128.4" x2="1128.4" y1="755.2" y2="632.6" xlink:href="#b"/><linearGradient id="bl" x1="1079" x2="1079" y1="237" y2="143.5" xlink:href="#b"/><linearGradient id="v" x1="1204.7" x2="1204.7" y1="311.6" y2="156.6" xlink:href="#b"/><linearGradient id="u" x1="840" x2="840" y1="1079.6" y2="-.4" gradientTransform="matrix(1 0 0 -1 0 1080)" gradientUnits="userSpaceOnUse"><stop stop-color="#fff" offset="0"/><stop stop-color="#fff" stop-opacity=".3" offset=".9"/><stop stop-color="#fff" stop-opacity="0" offset="1"/></linearGradient><linearGradient id="bd" x1="1601.3" x2="1601.3" y1="1080.6" y2="991.4" gradientTransform="translate(-44)" xlink:href="#s"/><linearGradient id="bc" x1="1072.8" x2="1094.4" y1="931.6" y2="818.4" gradientUnits="userSpaceOnUse" xlink:href="#s"/><symbol id="k"><path d="M1228 768c24 100-114 75-10 155" fill="none" stroke="url(#o)" stroke-width="2.5"/><path d="M1228 768c24 100-114 75-10 155" fill="none" stroke="url(#v)" stroke-width="2.5"/><path d="M1159 704c0 35 42 64 69 64 23 0 68-28 68-64s-31-63-68-63-69 28-69 63z" fill="url(#n)"/><path class="cls-3" d="M1228 641c37 0 68 29 68 63s-45 64-68 64z" fill="#fff" opacity=".3" style="isolation:isolate"/><path d="M1240 774v1h-25v-1l12-9a1 1 0 011 0z" fill="url(#m)"/><path class="cls-3" d="M1240 775v-1l-12-9a1 1 0 00-1 0v10z" fill="#fff" opacity=".3" style="isolation:isolate"/></symbol><symbol id="x"><path d="M601 846c17 69-79 52-7 107" fill="none" stroke="url(#r)" stroke-width="2.5"/><path d="M601 846c17 69-79 52-7 107" fill="none" stroke="url(#t)" stroke-width="2.5"/><path d="M553 803c0 24 30 43 48 43 16 0 48-19 48-43s-22-44-48-44-48 20-48 44z" fill="url(#d)"/><path class="cls-3" d="M601 759c26 0 48 20 48 44s-32 43-48 43z" fill="#fff" opacity=".3" style="isolation:isolate"/><path d="M610 851h-18s-1 0 0 0l8-7a1 1 0 011 0z" fill="url(#q)"/><path class="cls-3" d="M609 851h1l-9-7v7z" fill="#fff" opacity=".3" style="isolation:isolate"/></symbol><symbol id="i"><use width="100%" height="100%" xlink:href="#l"/></symbol><symbol id="w"><path d="M1469 893c0 49 56 88 92 88 31 0 92-39 92-88s-42-88-92-88-92 39-92 88z" fill="url(#c)"/><path class="cls-3" d="M1561 805c51 0 92 40 92 88s-61 88-92 88z" fill="#fff" opacity=".3" style="isolation:isolate"/><path d="M1578 990l-1 1h-33l-1-1 17-13a1 1 0 011 0z" fill="url(#az)"/><path class="cls-3" d="M1577 991l1-1-17-13a1 1 0 00-1 0v14z" fill="#fff" opacity=".3" style="isolation:isolate"/><path d="M1561 991c10 42 2 69-12 89" fill="none" stroke="url(#bd)" stroke-width="2.5"/></symbol><symbol id="l"><path d="M1093 843c14 60-68 45-6 93" fill="none" opacity=".5" stroke="url(#ag)" stroke-width="2.5"/><path d="M1052 804c0 21 25 39 41 39 14 0 40-18 40-39s-18-38-40-38-41 17-41 38z" fill="url(#af)"/><path class="cls-3" d="M1093 766c22 0 40 17 40 38s-27 39-40 39z" fill="#fff" opacity=".3" style="isolation:isolate"/><path d="M1100 846v1h-15v-1l7-5a1 1 0 011 0z" fill="url(#p)"/><path class="cls-3" d="M1100 847v-1l-7-5a1 1 0 00-1 0v6z" fill="#fff" opacity=".3" style="isolation:isolate"/></symbol><style>.cls-3{fill:#fff;opacity:.3;isolation:isolate}</style></defs><path fill="#f4f4f4" d="M0 0h1680v1080H0z"/><use transform="translate(0 -1)" width="100%" height="100%" opacity=".7" xlink:href="#k"/><use transform="translate(-546 4) scale(.80138)" width="100%" height="100%" opacity=".4" xlink:href="#k"/><use transform="translate(-813 -457) scale(.90422)" width="100%" height="100%" opacity=".1" xlink:href="#k"/><use transform="translate(0 -1)" width="100%" height="100%" opacity=".6" xlink:href="#i"/><use transform="translate(-798 -671) scale(1.2149)" width="100%" height="100%" opacity=".2" xlink:href="#i"/><use transform="translate(-351 -812) scale(1.3454)" width="100%" height="100%" opacity=".1" xlink:href="#i"/><use transform="translate(220 -787) scale(1.1842)" width="100%" height="100%" opacity=".1" xlink:href="#i"/><use transform="translate(0 -1)" width="100%" height="100%" opacity=".7" xlink:href="#x"/><use transform="translate(616 -588) scale(1.2558)" width="100%" height="100%" opacity=".3" xlink:href="#x"/><use transform="translate(-1264 28)" width="100%" height="100%" opacity=".9" xlink:href="#w"/><use transform="translate(54 -1)" width="100%" height="100%" opacity=".9" xlink:href="#w"/><path fill="url(#u)" opacity=".6" d="M0 0h1680v1080H0z"/><use width="100%" height="100%" opacity=".3" xlink:href="#l"/></svg>