<svg version="1.1" id="Layer_1" xmlns="http://www.w3.org/2000/svg" xmlns:xlink="http://www.w3.org/1999/xlink" x="0" y="0" viewBox="0 0 414 896" xml:space="preserve"><style>.st0{fill:none}.st1{fill:#1e2448}.st4{fill:#f3c755}.st5{opacity:.1;fill:#010202;enable-background:new}.st9{fill:#d94532}.st18{fill:#010101}.st21{opacity:.2;fill:#fff;enable-background:new}</style><pattern y="896" width="64" height="64" patternUnits="userSpaceOnUse" id="SVGID_2_" viewBox="0 -64 64 64" overflow="visible"><path class="st0" d="M0-64h64V0H0z"/><path class="st0" d="M0-64h64V0H0z"/><path class="st1" d="M51.4-36.3c.1.1.3.2.4.3.1.1.2.2.2.4 0 .1.1.3 0 .4a20.8 20.8 0 01-8.4 8.3C40.1-25 36.1-24 32-24s-8.1-1-11.6-2.9-6.3-4.6-8.2-7.9c-.1-.1-.1-.3-.2-.4v-.4c0-.1.1-.3.2-.4s.2-.2.4-.3c.3-.1.6-.2.9-.1.3.1.6.3.8.5 1.7 2.9 4.2 5.3 7.3 7 3.1 1.7 6.7 2.6 10.3 2.6s7.2-.9 10.3-2.6c3.1-1.7 5.7-4.1 7.3-7 .1-.2.3-.3.5-.4.2-.1.4-.1.6-.2l.8.2z"/><path class="st1" d="M46-37.3c.1.1.3.2.3.3s.2.3.2.4v.4c0 .1-.1.3-.2.4-1.6 2.1-3.8 3.8-6.3 5-2.4 1.2-5.2 1.8-8 1.8s-5.6-.6-8.1-1.8-4.7-2.9-6.3-5c-.1-.1-.2-.3-.2-.4v-.4c0-.1.1-.3.2-.4l.3-.3c.1-.1.3-.1.4-.2h.5c.2 0 .3.1.4.2l.3.3c1.4 1.8 3.3 3.2 5.4 4.2 2.1 1 4.5 1.5 6.9 1.6 2.4 0 4.8-.5 7-1.5 2.1-1 4-2.5 5.4-4.2.1-.2.2-.3.4-.4.2-.1.4-.2.6-.2l.8.2z"/><path class="st1" d="M24.4-39.3c.9 1 2.1 1.8 3.4 2.3s2.7.8 4.2.8c1.4 0 2.9-.3 4.2-.8s2.5-1.3 3.4-2.3c.2-.2.5-.3.8-.4.3 0 .6.1.9.3l.3.3c.1.1.1.3.1.4s0 .3-.1.4c-.1.1-.2.3-.3.4-1.2 1.2-2.6 2.2-4.2 2.9-1.6.7-3.4 1-5.2 1s-3.6-.3-5.2-1-3.1-1.6-4.2-2.9c-.2-.2-.3-.5-.3-.8s.2-.6.4-.7c.1-.1.2-.2.4-.2.1-.1.3-.1.5-.1.4 0 .7.2.9.4zM14.2 0h3.3a23.1 23.1 0 01-3.1-3.9c-.2-.2-.4-.4-.8-.5-.3-.1-.6-.1-.9.1-.1.1-.3.2-.4.3-.1.1-.2.2-.2.4 0 .1-.1.3 0 .4 0 .1.1.3.2.4.5 1 1.1 1.9 1.9 2.8zM52-3.7c-.1-.1-.1-.3-.2-.4-.1-.1-.2-.2-.4-.3l-.6-.1c-.2 0-.4.1-.6.2-.2.1-.4.2-.5.4-.8 1.4-1.9 2.7-3.1 3.9h3.3c.7-.9 1.4-1.8 2-2.8.1-.1.1-.3.2-.4-.1-.2-.1-.3-.1-.5zM21.7 0H27c-.7-.2-1.3-.5-1.9-.7-2.1-1-4-2.5-5.4-4.2l-.3-.3c-.1-.1-.3-.1-.4-.2h-.5c-.2 0-.3.1-.4.2-.1.1-.3.2-.3.3-.1.1-.2.2-.2.4v.4c0 .1.1.3.2.4 1 1.4 2.3 2.7 3.9 3.7zM46.6-4.2v-.4c0-.1-.1-.3-.2-.4-.1-.1-.2-.2-.4-.3l-.7-.2c-.2 0-.4.1-.5.2-.2.1-.3.2-.4.4A14.1 14.1 0 0139-.7c-.6.3-1.2.5-1.8.7h5.1c1.6-1 3-2.3 4.1-3.8.1-.1.1-.2.2-.4zM24.4-7.3c.9 1 2.1 1.8 3.4 2.3s2.7.8 4.2.8c1.4 0 2.9-.3 4.2-.8s2.5-1.3 3.4-2.3c.2-.2.5-.3.8-.4.3 0 .6.1.9.3l.3.3c.1.1.1.3.1.4 0 .1 0 .3-.1.4-.1.1-.2.3-.3.4-1.2 1.2-2.6 2.2-4.2 2.9-1.6.7-3.4 1-5.2 1s-3.6-.3-5.2-1-3.1-1.6-4.2-2.9c-.2-.2-.3-.5-.3-.8s.2-.6.4-.7c.1-.1.2-.2.4-.2.1-.1.3-.1.5-.1.4 0 .7.2.9.4zM64-8v-2.3c-3.6 0-7.2-.9-10.3-2.6-3.1-1.7-5.7-4.1-7.3-7-.2-.2-.4-.4-.8-.5-.3-.1-.6-.1-.9.1-.1.1-.3.2-.4.3-.1.1-.2.2-.2.4 0 .1-.1.3 0 .4 0 .1.1.3.2.4 1.9 3.3 4.8 6 8.2 7.9C55.9-9 59.9-8 64-8z"/><path class="st1" d="M64-13v-2.2c-2.4 0-4.8-.5-6.9-1.5-2.1-1-4-2.5-5.4-4.2l-.3-.3c-.1-.1-.3-.1-.4-.2h-.5c-.2 0-.3.1-.4.2-.1.1-.3.2-.3.3-.1.1-.2.2-.2.4v.4c0 .1.1.3.2.4 1.6 2.1 3.8 3.8 6.3 5 2.3 1.1 5.1 1.7 7.9 1.7zM64-18v-2.1c-1.4 0-2.9-.3-4.2-.8s-2.5-1.3-3.4-2.3c-.2-.2-.5-.4-.9-.4-.2 0-.3 0-.5.1-.2 0-.3.1-.4.2-.2.2-.4.5-.4.7 0 .3.1.6.3.8 1.2 1.2 2.6 2.2 4.2 2.9 1.8.6 3.5.9 5.3.9zM64-40v-2.3c-3.6 0-7.2-.9-10.3-2.6-3.1-1.7-5.7-4.1-7.3-7-.2-.2-.4-.4-.8-.5-.3-.1-.6-.1-.9.1-.1.1-.3.2-.4.3-.1.1-.2.2-.2.4 0 .1-.1.3 0 .4 0 .1.1.3.2.4 1.9 3.3 4.8 6 8.2 7.9C55.9-41 59.9-40 64-40z"/><path class="st1" d="M64-45v-2.2c-2.4 0-4.8-.5-6.9-1.5-2.1-1-4-2.5-5.4-4.2l-.3-.3c-.1-.1-.3-.1-.4-.2h-.5c-.2 0-.3.1-.4.2-.1.1-.3.2-.3.3-.1.1-.2.2-.2.4v.4c0 .1.1.3.2.4 1.6 2.1 3.8 3.8 6.3 5 2.3 1.1 5.1 1.7 7.9 1.7zM64-50v-2.1c-1.4 0-2.9-.3-4.2-.8s-2.5-1.3-3.4-2.3c-.2-.2-.5-.4-.9-.4-.2 0-.3 0-.5.1-.2 0-.3.1-.4.2-.2.2-.4.5-.4.7 0 .3.1.6.3.8 1.2 1.2 2.6 2.2 4.2 2.9 1.8.6 3.5.9 5.3.9zM49.9-64h-3.3a19.7 19.7 0 01-4.3 3.1c-3.1 1.7-6.7 2.6-10.3 2.6s-7.2-.9-10.3-2.6c-1.6-.9-3-1.9-4.3-3.1h-3.3c1.7 2 3.8 3.8 6.3 5.1C23.9-57 27.9-56 32-56s8.1-1 11.6-2.9c2.4-1.3 4.6-3.1 6.3-5.1z"/><path class="st1" d="M42.3-64h-5.1A16.87 16.87 0 0127-64h-5.2c.7.5 1.4.9 2.2 1.2 2.4 1.2 5.2 1.8 8 1.8s5.6-.6 8.1-1.8c.8-.3 1.5-.7 2.2-1.2zM20-19.7c-.1-.1-.1-.3-.2-.4-.1-.1-.2-.2-.4-.3l-.6-.1c-.2 0-.4.1-.6.2-.2.1-.4.2-.5.4-1.7 2.9-4.2 5.3-7.3 7-3.2 1.7-6.8 2.6-10.4 2.6V-8c4.1 0 8.1-1 11.6-2.9s6.3-4.6 8.2-7.9c.1-.1.1-.3.2-.4v-.5z"/><path class="st1" d="M14.6-20.2v-.4c0-.1-.1-.3-.2-.4-.1-.1-.2-.2-.4-.3l-.7-.2c-.2 0-.4.1-.5.2-.2.1-.3.2-.4.4-1.4 1.7-3.3 3.2-5.4 4.2-2.2 1-4.5 1.5-7 1.5v2.2c2.8 0 5.6-.6 8.1-1.8s4.7-2.9 6.3-5c.1-.1.1-.2.2-.4zM9.8-22.7c0-.2-.1-.3-.1-.4l-.3-.3c-.2-.2-.5-.3-.9-.2-.3 0-.6.1-.8.4-.9 1-2.1 1.8-3.4 2.3s-2.8.8-4.2.8v2.1c1.8 0 3.6-.3 5.2-1s3.1-1.6 4.2-2.9c.1-.1.2-.2.3-.4v-.4zM20-51.7c-.1-.1-.1-.3-.2-.4-.1-.1-.2-.2-.4-.3l-.6-.1c-.2 0-.4.1-.6.2-.2.1-.4.2-.5.4-1.7 2.9-4.2 5.3-7.3 7-3.2 1.7-6.8 2.6-10.4 2.6v2.3c4.1 0 8.1-1 11.6-2.9s6.3-4.6 8.2-7.9c.1-.1.1-.3.2-.4v-.5z"/><path class="st1" d="M14.6-52.2v-.4c0-.1-.1-.3-.2-.4-.1-.1-.2-.2-.4-.3l-.7-.2c-.2 0-.4.1-.5.2-.2.1-.3.2-.4.4-1.4 1.7-3.3 3.2-5.4 4.2-2.2 1-4.5 1.5-7 1.5v2.2c2.8 0 5.6-.6 8.1-1.8s4.7-2.9 6.3-5c.1-.1.1-.2.2-.4zM9.8-54.7c0-.2-.1-.3-.1-.4-.1-.1-.2-.2-.4-.3-.2-.2-.5-.3-.9-.3-.3 0-.6.1-.8.4-.9 1-2.1 1.8-3.4 2.3s-2.8.8-4.2.8v2.2c1.8 0 3.6-.3 5.2-1s3.1-1.6 4.2-2.9c.2-.1.3-.2.3-.3.1-.2.1-.3.1-.5z"/></pattern><radialGradient id="SVGID_1_" cx="1" cy="-1" r="1" gradientTransform="matrix(-414 0 0 -896 829 1)" gradientUnits="userSpaceOnUse"><stop offset="0" stop-color="#cd3048"/><stop offset="1" stop-color="#d94532"/></radialGradient><path fill="url(#SVGID_1_)" d="M0 0h414v896H0z"/><defs><path id="SVGID_3_" d="M0 0h414v896H0z"/></defs><clipPath id="SVGID_4_"><use xlink:href="#SVGID_3_" overflow="visible"/></clipPath><pattern id="SVGID_5_" xlink:href="#SVGID_2_" patternTransform="matrix(1.4552 0 0 -1.4621 3443.76 -20459.6)"/><path opacity=".1" clip-path="url(#SVGID_4_)" fill="url(#SVGID_5_)" d="M-188.5 0H414v1303.9h-602.5z"/><g><path class="st4" d="M361.1 871.6l.2.1c3 1.9 2.2 2.9 2 3.9-1.1 3.5-.2 11.6 6.8 12.3 7 .7 13.4-6.3 15.2-15.4 2-9.2-6-19.1-7.8-21.5-1.7-2.4-2.8-5.9 1.4-16.8 1.7-5 6.3-8.3 11.7-8.5 0 0 1.7-.6-.6-1.7 0 0-8.1-1.2-12.8 10.8-4.9 12.1-3.7 12.7 4.2 25.5 8 12.8-3.7 27.1-10.7 26.4-2.9 0-8.1-4.2-5.6-11.6 1.2-3.8-3.6-4.7-3.6-4.7s-2.8-.1-.4 1.2z"/><path class="st5" d="M361.1 871.6l.2.1c3 1.9 2.2 2.9 2 3.9-1.1 3.5-.2 11.6 6.8 12.3 7 .7 13.4-6.3 15.2-15.4 2-9.2-6-19.1-7.8-21.5-1.7-2.4-2.8-5.9 1.4-16.8 1.7-5 6.3-8.3 11.7-8.5 0 0 1.7-.6-.6-1.7 0 0-8.1-1.2-12.8 10.8-4.9 12.1-3.7 12.7 4.2 25.5 8 12.8-3.7 27.1-10.7 26.4-2.9 0-8.1-4.2-5.6-11.6 1.2-3.8-3.6-4.7-3.6-4.7s-2.8-.1-.4 1.2z"/><path d="M358.4 864l-3.5 5.2s-.1 4.9.6 6c1.7 2.2 4.6-3.4 4.6-3.4s6.4-3.9 4.7-6.3c-1-1.3-6.5-1.4-6.4-1.5z" fill="#e9b214"/><path class="st4" d="M360.4 872.7l.2.1c3 1.9 2.2 2.9 2 3.9-1.1 3.5-.2 11.6 6.8 12.3 7 .7 13.4-6.3 15.2-15.4 2-9.2-6-19.1-7.8-21.5-1.7-2.4-2.8-5.9 1.4-16.8 1.7-5 6.3-8.3 11.7-8.5 0 0 1.7-.6-.6-1.7 0 0-7.9-1.2-12.8 10.8-4.9 12.1-3.7 12.7 4.2 25.5 8 12.8-3.7 27.1-10.7 26.4-2.9 0-8.1-4.2-5.6-11.6 1.2-3.8-3.6-4.7-3.6-4.7s-2.8-.1-.4 1.2z"/><path d="M355.5 875.3c1.7 2.2 3.5-1.1 4.6-3.4 1.1-2.4 6.4-3.9 4.7-6.3-2.1 2.5-7.9 8.2-9.3 9.7z" opacity=".14" fill="#e9b214"/><radialGradient id="SVGID_6_" cx="-312.51" cy="-2769.82" r="1.53" gradientTransform="matrix(16.016 .3673 .3673 -16.016 6328.81 -43419.04)" gradientUnits="userSpaceOnUse"><stop offset="0" stop-color="#ec991c"/><stop offset="1" stop-color="#e9b213"/></radialGradient><path d="M330.9 815.9c.1-6.7-5.3-12.4-12-12.5-6.7-.1-12.4 5.3-12.5 12-.1 6.7 5.3 12.4 12 12.5 6.7.2 12.4-5.3 12.5-12z" fill="url(#SVGID_6_)"/><path class="st9" d="M324.9 816.1c.2-4.6-3.5-8.6-8.3-8.7-4.6-.2-8.6 3.5-8.7 8.3-.2 4.6 3.5 8.6 8.3 8.7 4.8.2 8.7-3.6 8.7-8.3z"/><radialGradient id="SVGID_7_" cx="-345.24" cy="-2642.29" r="1.53" gradientTransform="matrix(42.4655 .9739 .9739 -42.4655 17534.8 -110989.29)" gradientUnits="userSpaceOnUse"><stop offset="0" stop-color="#ec991c"/><stop offset="1" stop-color="#e9b213"/></radialGradient><path d="M366.2 849.8c.3-17.8-13.8-32.8-31.8-33.2-17.8-.3-32.8 13.8-33.2 31.8-.3 17.8 13.8 32.8 31.8 33.2a32.5 32.5 0 0033.2-31.8z" fill="url(#SVGID_7_)"/><radialGradient id="SVGID_8_" cx="-345.24" cy="-2642.29" r="1.53" gradientTransform="matrix(42.4655 .9739 .9739 -42.4655 17534.8 -110989.29)" gradientUnits="userSpaceOnUse"><stop offset="0" stop-color="#ec991c"/><stop offset="1" stop-color="#e9b213"/></radialGradient><path d="M366.2 849.8c.3-17.8-13.8-32.8-31.8-33.2-17.8-.3-32.8 13.8-33.2 31.8-.3 17.8 13.8 32.8 31.8 33.2a32.5 32.5 0 0033.2-31.8z" fill="url(#SVGID_8_)"/><path class="st5" d="M309.8 827.6c3-3.5 6.7-6.4 10.8-8.3-5.6 6.9-12.2 22.7-7 35.1 6.7 16.9 27.2 22.4 35.9 23.1-7.5 3.9-16.3 4.8-24.5 2.4a32.44 32.44 0 01-21.8-40.4c1.3-4.5 3.5-8.4 6.6-11.9z"/><path d="M351 821.7c1.5-4.4 5.4-7.8 10.3-8.3 6.7-.8 12.8 4 13.5 10.8.7 6.6-4.1 12.6-10.7 13.4-2.5-6.7-7.1-12.3-13.1-15.9z" fill="#e9b213"/><path class="st9" d="M354.4 820.2c1.1-1.2 2.6-2 4.1-2.4s3.1-.3 4.6.2c1.6.5 2.9 1.4 3.9 2.6.9 1.2 1.7 2.7 1.9 4.2.1 1.6 0 3.2-.7 4.6-.7 1.5-1.7 2.7-3 3.6-1.2.8-2.8 1.4-4.4 1.5-2.2-4.2-5.2-7.6-8.8-10.5.5-1.4 1.2-2.9 2.4-3.8z"/><path d="M360.4 865.4l-1.7 2.7s.2 5 1.1 5.9c1.9 2.2 4.4-3.7 4.4-3.7-1.5.4-2.8-1-3.8-4.9z" opacity=".15" fill="#e9b214"/><path d="M321 851.5s-3.2 1.6-3.5 1.6c-.5 0-1.8-3-1.8-3-.3-.7-.3-1 .3-1.2 2.4-.6 4.8 1.4 4.8 1.4.5.3.6.8.2 1.2z" fill="#3b3a3a"/><path d="M317.4 853.1c-.7-.9-1.3-1.9-1.8-3-.3-.7-.3-1 .3-1.2.6-.2 1.3 0 1.9 0-.9.1-1 2-.4 4.2z" opacity=".2" fill="#e7b114"/><path d="M315.9 849.4c1.4-.2 3.6 1.1 3.6 1.1l-3.6-1.1z" opacity=".3" fill="#fff"/><path d="M325 847.3s2.6-9.1 7.5-7.7 1.9 10.9 1.9 10.9c-2.6-11-9.4-3.2-9.4-3.2zm-18.1-5.4s2.8-9.1 7.5-7.7c4.8 1.4 1.9 10.9 1.9 10.9-2.8-11.1-9.4-3.2-9.4-3.2z" opacity=".6" fill="#010202"/><path class="st18" d="M341.8 866.9l-20.7-10.5c0-.1 0-.1-.1-.3.1 0 .1 0 .3-.1 9.9 2.1 20.5 10.4 20.7 10.5 0 0 0 .1-.1.3l-.1.1zm-2.6-1.7c-3.3-2.3-9.8-6.4-16.1-8.2l16.1 8.2zm4.4-4.6l-22.1-5.7c-.1 0-.2-.1-.2-.3 0-.1.1-.2.3-.2 10.1.6 22.1 5.5 22.2 5.6 0 .1.1.3 0 .5.1 0 .1 0 0 0s-.1 0-.2.1zm-4.1-1.7c-3.7-1.2-9.4-3.1-14.9-3.8l14.9 3.8zm-25.7-4.7c-8-3.3-19.8-1.7-19.9-1.7-.1 0-.2-.1-.2-.3 0-.1.1-.2.3-.2s12.1-1.6 20.3 1.7c0 .1.1.3 0 .5.1 0 .1 0 0 0-.1.1-.3.1-.5 0zm.6-1.4l-18.7-6.6s0-.1-.1-.3c0-.1.1-.2.3-.2.2.1 11.3 2.1 18.9 6.7 0 .1.1.3 0 .5.1-.2 0 0 0 0s-.2 0-.4-.1zm-2.2-1.3c-4.4-2.3-9.5-3.6-12.8-4.5l12.8 4.5z"/><radialGradient id="SVGID_9_" cx="-322.56" cy="-2851.38" r="1.53" gradientTransform="matrix(19.7601 .4532 .2648 -11.5464 7427.88 -31881.77)" gradientUnits="userSpaceOnUse"><stop offset="0" stop-color="#ec991c"/><stop offset="1" stop-color="#e9b213"/></radialGradient><path d="M299 891.1c-.1 3.2 4.9 4.9 9.3 3.9 4.5-.9 9.5-2.4 14.4-.2 4.9 2.3 6.6-.3 6.6-2.4s-3.7-2.7-3.7-2.7l3-8.4c-3.3-.5-6.5-1.8-9.3-3.4l-4.5 6.1c-.7 1-1.6 1.8-2.5 2.6-1.5-1.4-5.2-4-9.1.4-3 0-4.1 1.7-4.2 4.1z" fill="url(#SVGID_9_)"/><path class="st5" d="M318.1 892.8c-11.4-.6-12.4 2.3-19-1.8-.1 3.2 4.9 4.9 9.3 3.9 4.5-.9 9.5-2.4 14.4-.2 4.9 2.3 6.6-.3 6.6-2.4-2.2 4.3-5.2.8-11.3.5z"/><radialGradient id="SVGID_10_" cx="-317.31" cy="-2829.01" r="1.53" gradientTransform="matrix(17.8218 .4088 .2872 -12.5223 6798.8 -34400.24)" gradientUnits="userSpaceOnUse"><stop offset="0" stop-color="#ec991c"/><stop offset="1" stop-color="#e9b213"/></radialGradient><path d="M333.2 886.9c-.6.3-1.2.9-1.5 1.5a6.04 6.04 0 00-.6 3.7c.2.6.5 1.1.8 1.7.3.6.7.9 1.3 1.2a6.04 6.04 0 003.7.6c.6-.2 1.1-.5 1.7-.8.6-.3.9-.7 1.2-1.3.4 1 1.1 1.6 2 2a4.11 4.11 0 005.3-1.9c.3.6.7.9 1.3 1.2 1 .7 2.1.9 3.2.6 1-.3 2-.8 2.5-1.8.4.2.9.4 1.4.4.5 0 .8 0 1.2-.2.3-.1.7-.3 1-.6s.5-.6.7-1c.1-.3.1-.8.2-1.2 0-.6-.1-1.1-.4-1.6-.7-1.5-2.7-2-4.1-1.1-2.6-1.5-5-11.5-5-11.5-5 3.2-12.7 4.2-12.7 4.2l-.7 5.6c-.8.2-1.6.4-2.5.3z" fill="url(#SVGID_10_)"/><path class="st21" d="M302.8 887.7c1.1 0 2.1.2 3.1.8 0 0-4.1.1-6.1 2.1 0-1.8 1.4-3.1 3-2.9z"/><path class="st5" d="M338.1 894.8c-1.7 1.4-4.5 1-5.9-.8s-1.1-4.6.8-6.1c-.6 5.1 1.5 6.3 5.4 6.6 0 .2-.2.2-.3.3zm7.1.3c-1.4 1.2-3.5.9-4.9-.4-.2-.3-.5-.7-.6-1.1-.3-.4-.2-.9-.2-1.4.1-.3.2-.9.5-1.2.2-.4.4-.7.8-1-.4 3.9 1.1 4.9 4.4 5.1zm6.7 0c-1.3 1-3.3.7-4.3-.6s-.7-3.3.6-4.3c-.3 3.6 1.2 4.4 3.9 4.7l-.2.2zm5-1.8c-.3.2-.6.3-.8.4-.3.1-.6.2-.9.1-.3.1-.7-.1-.9-.2-.2-.1-.4-.4-.6-.6-.2-.3-.3-.6-.4-.8-.1-.3-.2-.6-.1-.9-.1-.3.1-.7.2-.9.1-.2.4-.4.6-.6-.3 2.9.8 3.6 3.1 3.8l-.2-.3zM336.2 881l-.9 5.6c2.2-.7 4.3.8 4.3.8 3.7-.5 7.4-.1 11.5.9-3.5-1.8-7.4-2.6-11.2-2.4l.7-5.6c-1.3.5-2.8.8-4.4.7z"/><path class="st21" d="M324.4 882.6c-.7 1.6.6 7.7.6 7.7-.6-2.4 2.5-9.1 2.5-9.1s-2.3-.3-3.1 1.4z"/><path class="st5" d="M303.1 887.1c3.9-4.5 7.6-1.7 9.1-.4-2.5 2.6-9.2.5-9.1.4z"/><path class="st21" d="M347 881.2c.6 2.2 6 6.6 6 6.6-2.2-1.3-4.6-10-4.6-10s-2.1 1.3-1.4 3.4zm-11.1 6.4c.4-.1.8 0 1.2.2.4.2.7.4 1 .7.2.3.5.5.6 1s.2.9.2 1.2c-2.4-2.5-4-2.1-6.1-.1-.1-1.8 1.5-3 3.1-3zm5.4 4.4c.1-.3.2-.5.2-.9.1-.3.2-.5.4-.7.3-.2.5-.5.8-.5.3-.1.6-.2.9-.1.3.1.7.1.9.2.2.3.4.4.6.6.2.3.3.6.4.8.1.3.2.6.1.9-1.8-1.9-2.8-1.5-4.3-.1v-.2zm8.8-2.1c.3.1.5 0 .7.1l.6.3c.2.1.4.4.5.5 0 .1.1.4.2.6-1.3-1.4-2.2-1.2-3.3-.1-.1-.8.5-1.4 1.3-1.4zm3.3 1.3c-.3-1 .5-2.2 1.7-2.5 1-.3 2.2.5 2.5 1.7-2.2-1.3-3.2-.7-4.3 1.1l.1-.3z"/><path class="st18" d="M309.5 856.8c-.3-.6-.6-1.1-.9-1.7-.3-.6-.1-1.4.6-1.8.6-.3 1.4-.1 1.8.6 1.2 2.1 2.4 3.6 3.7 4.5.2-1.8.6-4.1 1.2-6 .1-.7.8-1 1.5-.9.7.1 1.2.8 1.2 1.4l-.5 6.6c2.7.1 5.1-1.8 5.1-1.8.7-.5 1.5-.4 1.9.1.5.7.4 1.5-.1 1.9 0 0-.4.4-1.1.8-1 2.3-3.5 6.5-7.9 5.3-4.6-1-6-5.8-6.5-9z"/><path d="M313 862.2l3 1.3v-2.2l.5 2.6 3 .6c.3-.1.6-.2.5-.6v-3c-2.7.6-6-.5-7.8-3.3l.3 4c0 .2.1.4.5.6z" fill="#fff"/></g></svg>